<svg width="40" height="40" viewBox="0 0 40 40" fill="none" xmlns="http://www.w3.org/2000/svg">
<rect width="40" height="40" fill="#F5F5F5"/>
<g id="Frame 2087324161" clip-path="url(#clip0_18_11132)">
<rect width="1920" height="8575" transform="translate(-694 -8216)" fill="white"/>
<g id="futer" clip-path="url(#clip1_18_11132)">
<rect width="1920" height="985" transform="translate(-694 -626.5)" fill="#543310"/>
<g id="Group 53">
<g id="Group">
</g>
<g id="Frame 2087324219">
<g id="wpf:geo-fence" clip-path="url(#clip2_18_11132)">
<path id="Vector" d="M20 0C17.5518 0 15.204 0.972525 13.4729 2.70363C11.7418 4.43473 10.7692 6.78262 10.7692 9.23077C10.7692 14.3292 18.7985 26.9892 18.7985 33.8462H21.2015C21.2015 27.0123 29.2308 13.9138 29.2308 9.23077C29.2308 6.78262 28.2582 4.43473 26.5271 2.70363C24.796 0.972525 22.4482 0 20 0ZM20 4.61538C21.2241 4.61538 22.398 5.10165 23.2636 5.9672C24.1291 6.83275 24.6154 8.00669 24.6154 9.23077C24.6154 10.4548 24.1291 11.6288 23.2636 12.4943C22.398 13.3599 21.2241 13.8462 20 13.8462C18.7759 13.8462 17.602 13.3599 16.7364 12.4943C15.8709 11.6288 15.3846 10.4548 15.3846 9.23077C15.3846 8.00669 15.8709 6.83275 16.7364 5.9672C17.602 5.10165 18.7759 4.61538 20 4.61538ZM10.5292 26.5862C10.4964 26.6014 10.464 26.6178 10.4323 26.6354C7.59385 27.1338 5.18769 27.8169 3.36615 28.7508C2.45385 29.2169 1.66769 29.7692 1.05846 30.4323C0.447692 31.0969 0 31.96 0 32.9323C0 34.3908 0.966154 35.5308 2.11538 36.3462C3.26462 37.1615 4.71538 37.7846 6.49077 38.3169C10.0369 39.3815 14.7769 40 20 40C25.2231 40 29.9631 39.3815 33.5092 38.3169C35.2831 37.7846 36.7354 37.1631 37.8846 36.3462C39.0338 35.5308 40 34.3908 40 32.9323C40 31.9569 39.5538 31.0492 38.9415 30.3846C38.3292 29.72 37.5508 29.2169 36.6338 28.7492C34.8031 27.8154 32.3738 27.1323 29.5185 26.6338C29.3177 26.5949 29.1112 26.5964 28.911 26.6383C28.7108 26.6801 28.521 26.7614 28.3526 26.8775C28.1843 26.9936 28.0407 27.142 27.9304 27.3142C27.8201 27.4864 27.7452 27.6788 27.7101 27.8803C27.675 28.0818 27.6805 28.2882 27.7261 28.4876C27.7717 28.6869 27.8567 28.8751 27.9759 29.0413C28.0951 29.2074 28.2463 29.3481 28.4206 29.4551C28.5948 29.5622 28.7887 29.6334 28.9908 29.6646C31.6415 30.1262 33.8446 30.78 35.24 31.4908C35.9385 31.8446 36.4292 32.2246 36.6831 32.5C36.9369 32.7754 36.9231 32.8846 36.9231 32.9323C36.9231 33.0046 36.8246 33.3369 36.1062 33.8462C35.3877 34.3554 34.1631 34.9138 32.5954 35.3846C29.4615 36.3246 24.9723 36.9231 20 36.9231C15.0277 36.9231 10.5385 36.3246 7.40308 35.3846C5.83692 34.9138 4.61231 34.3554 3.89538 33.8462C3.17538 33.3369 3.07692 33.0046 3.07692 32.9323C3.07692 32.8862 3.06615 32.7738 3.31692 32.5C3.56923 32.2262 4.06615 31.8446 4.76 31.4908C6.14462 30.7815 8.32615 30.1277 10.9615 29.6631C11.1665 29.6382 11.3645 29.5727 11.5439 29.4704C11.7233 29.3681 11.8805 29.2311 12.0064 29.0673C12.1322 28.9036 12.2241 28.7164 12.2768 28.5167C12.3294 28.317 12.3417 28.1089 12.313 27.9044C12.2843 27.6999 12.2151 27.5031 12.1094 27.3257C12.0038 27.1483 11.8638 26.9936 11.6978 26.8709C11.5317 26.7482 11.3428 26.6598 11.1422 26.6109C10.9415 26.562 10.7332 26.5536 10.5292 26.5862Z" fill="white"/>
</g>
</g>
</g>
</g>
</g>
<defs>
<clipPath id="clip0_18_11132">
<rect width="1920" height="8575" fill="white" transform="translate(-694 -8216)"/>
</clipPath>
<clipPath id="clip1_18_11132">
<rect width="1920" height="985" fill="white" transform="translate(-694 -626.5)"/>
</clipPath>
<clipPath id="clip2_18_11132">
<rect width="40" height="40" fill="white"/>
</clipPath>
</defs>
</svg>
