<svg width="21" height="20" viewBox="0 0 21 20" fill="none" xmlns="http://www.w3.org/2000/svg">
<rect width="21" height="20" fill="#543310"/>
<g id="480" clip-path="url(#clip0_18_11132)">
<rect width="480" height="8050" transform="translate(-129 -7829)" fill="#543310"/>
<rect id="Rectangle 12318" x="-129" y="-381" width="480" height="602" fill="#543310"/>
<g id="Frame 2087324270">
<g id="Frame 2087324269">
<g id="Frame 2087324268">
<g id="Frame 2087324219">
<g id="wpf:geo-fence" clip-path="url(#clip1_18_11132)">
<path id="Vector" d="M10.5 0C9.27592 0 8.10198 0.486262 7.23643 1.35181C6.37088 2.21737 5.88462 3.39131 5.88462 4.61538C5.88462 7.16462 9.89923 13.4946 9.89923 16.9231H11.1008C11.1008 13.5062 15.1154 6.95692 15.1154 4.61538C15.1154 3.39131 14.6291 2.21737 13.7636 1.35181C12.898 0.486262 11.7241 0 10.5 0ZM10.5 2.30769C11.112 2.30769 11.699 2.55082 12.1318 2.9836C12.5646 3.41638 12.8077 4.00335 12.8077 4.61538C12.8077 5.22742 12.5646 5.81439 12.1318 6.24717C11.699 6.67995 11.112 6.92308 10.5 6.92308C9.88796 6.92308 9.30099 6.67995 8.86821 6.24717C8.43544 5.81439 8.19231 5.22742 8.19231 4.61538C8.19231 4.00335 8.43544 3.41638 8.86821 2.9836C9.30099 2.55082 9.88796 2.30769 10.5 2.30769ZM5.76462 13.2931C5.74818 13.3007 5.73201 13.3089 5.71615 13.3177C4.29692 13.5669 3.09385 13.9085 2.18308 14.3754C1.72692 14.6085 1.33385 14.8846 1.02923 15.2162C0.723846 15.5485 0.5 15.98 0.5 16.4662C0.5 17.1954 0.983077 17.7654 1.55769 18.1731C2.13231 18.5808 2.85769 18.8923 3.74538 19.1585C5.51846 19.6908 7.88846 20 10.5 20C13.1115 20 15.4815 19.6908 17.2546 19.1585C18.1415 18.8923 18.8677 18.5815 19.4423 18.1731C20.0169 17.7654 20.5 17.1954 20.5 16.4662C20.5 15.9785 20.2769 15.5246 19.9708 15.1923C19.6646 14.86 19.2754 14.6085 18.8169 14.3746C17.9015 13.9077 16.6869 13.5662 15.2592 13.3169C15.1588 13.2975 15.0556 13.2982 14.9555 13.3191C14.8554 13.3401 14.7605 13.3807 14.6763 13.4387C14.5921 13.4968 14.5204 13.571 14.4652 13.6571C14.41 13.7432 14.3726 13.8394 14.355 13.9402C14.3375 14.0409 14.3402 14.1441 14.363 14.2438C14.3859 14.3435 14.4283 14.4376 14.488 14.5206C14.5476 14.6037 14.6232 14.6741 14.7103 14.7276C14.7974 14.7811 14.8943 14.8167 14.9954 14.8323C16.3208 15.0631 17.4223 15.39 18.12 15.7454C18.4692 15.9223 18.7146 16.1123 18.8415 16.25C18.9685 16.3877 18.9615 16.4423 18.9615 16.4662C18.9615 16.5023 18.9123 16.6685 18.5531 16.9231C18.1938 17.1777 17.5815 17.4569 16.7977 17.6923C15.2308 18.1623 12.9862 18.4615 10.5 18.4615C8.01385 18.4615 5.76923 18.1623 4.20154 17.6923C3.41846 17.4569 2.80615 17.1777 2.44769 16.9231C2.08769 16.6685 2.03846 16.5023 2.03846 16.4662C2.03846 16.4431 2.03308 16.3869 2.15846 16.25C2.28462 16.1131 2.53308 15.9223 2.88 15.7454C3.57231 15.3908 4.66308 15.0638 5.98077 14.8315C6.08327 14.8191 6.18227 14.7863 6.27196 14.7352C6.36166 14.6841 6.44027 14.6155 6.50318 14.5337C6.5661 14.4518 6.61206 14.3582 6.63839 14.2584C6.66471 14.1585 6.67087 14.0544 6.65651 13.9522C6.64214 13.8499 6.60754 13.7516 6.55472 13.6628C6.5019 13.5741 6.43192 13.4968 6.34888 13.4355C6.26584 13.3741 6.1714 13.3299 6.07108 13.3054C5.97076 13.281 5.86658 13.2768 5.76462 13.2931Z" fill="white"/>
</g>
</g>
</g>
</g>
</g>
</g>
<defs>
<clipPath id="clip0_18_11132">
<rect width="480" height="8050" fill="white" transform="translate(-129 -7829)"/>
</clipPath>
<clipPath id="clip1_18_11132">
<rect width="20" height="20" fill="#543310" transform="translate(0.5)"/>
</clipPath>
</defs>
</svg>
