<svg width="451" height="65" viewBox="0 0 451 65" fill="none" xmlns="http://www.w3.org/2000/svg">
<g clip-path="url(#clip0_457_1012)">
<path d="M27.7727 16.4551C27.7727 17.8895 27.622 19.4523 27.3098 21.1436C26.9975 22.8134 26.5776 24.5475 26.0285 26.3244C25.4794 28.0906 24.8226 29.8782 24.0474 31.6766C23.2721 33.4642 22.4323 35.1768 21.5064 36.836C20.5804 38.4845 19.5898 40.0259 18.5454 41.4602C17.5118 42.8946 16.4244 44.147 15.3046 45.2067C14.1956 46.2665 13.0651 47.1014 11.9238 47.7115C10.7717 48.311 9.64116 48.6107 8.5214 48.6107C7.81077 48.6107 7.11092 48.4822 6.44337 48.2146C5.78658 47.9684 5.1944 47.6045 4.67759 47.1228C4.17154 46.6304 3.76239 46.0524 3.46092 45.3673C3.14868 44.6715 2.99794 43.8794 2.99794 43.0017C2.99794 42.2309 3.11637 41.3639 3.35325 40.3898C3.59012 39.405 3.90236 38.3453 4.27921 37.2321C4.66682 36.1188 5.10826 34.9628 5.60355 33.7639C6.10959 32.5543 6.61564 31.334 7.14322 30.103C7.6708 28.8613 8.18762 27.6411 8.6829 26.4422C9.18895 25.2433 9.63039 24.0979 10.0072 22.9954C10.3948 21.8929 10.7179 20.8653 10.9547 19.9233C11.1916 18.9599 11.31 18.1143 11.31 17.3757C11.31 17.0438 11.2777 16.7227 11.2024 16.4337C11.1485 16.1233 11.0516 15.8664 10.9117 15.663C10.7717 15.4382 10.5779 15.2669 10.3195 15.1385C10.0826 15.01 9.7919 14.9458 9.43659 14.9458C8.83364 14.9458 8.18762 15.1492 7.49853 15.556C6.83098 15.9413 6.13113 16.5514 5.42051 17.3757C4.70989 18.1999 3.97773 19.2382 3.23481 20.512C2.50266 21.7644 1.78127 23.2523 1.07065 24.965L0.5 24.5903C1.29676 22.6529 2.09351 21.0258 2.8795 19.6985C3.67626 18.3605 4.48378 17.29 5.30207 16.4765C6.12036 15.6523 6.93865 15.0636 7.76771 14.6996C8.59676 14.3357 9.43659 14.1537 10.2872 14.1537C11.5577 14.1537 12.5482 14.4962 13.2481 15.1813C13.9587 15.8664 14.3248 16.8191 14.3248 18.05C14.3248 18.7779 14.2064 19.6343 13.9695 20.6191C13.7326 21.5931 13.4096 22.6529 13.0005 23.7982C12.6128 24.9436 12.1606 26.1425 11.6546 27.4163C11.1485 28.6794 10.6317 29.9639 10.0934 31.2591C9.57656 32.5436 9.05974 33.8067 8.5537 35.0591C8.04765 36.3115 7.59544 37.5104 7.18629 38.6343C6.79868 39.7476 6.47567 40.7859 6.2388 41.7493C6.00192 42.7019 5.88349 43.5048 5.88349 44.1791C5.88349 44.6822 5.95886 45.1425 6.09883 45.56C6.2388 45.9667 6.44337 46.32 6.71254 46.6304C6.99248 46.9408 7.32626 47.1763 7.70311 47.3369C8.07995 47.5081 8.5214 47.5831 9.00591 47.5831C9.8888 47.5831 10.804 47.3155 11.7623 46.7696C12.7313 46.2129 13.7003 45.4636 14.6693 44.511C15.6491 43.5476 16.6182 42.4236 17.5764 41.1284C18.5347 39.8332 19.4391 38.4416 20.2897 36.943C21.1618 35.4552 21.9586 33.8923 22.6907 32.2546C23.4229 30.6275 24.0474 29.0112 24.5857 27.4056C25.1348 25.7892 25.5547 24.2157 25.8455 22.685C26.1577 21.1543 26.3084 19.7306 26.3084 18.4247C26.3084 17.5148 26.2438 16.7548 26.1146 16.1233C25.9854 15.481 25.8455 14.9458 25.6947 14.5176C25.544 14.0895 25.404 13.7362 25.2748 13.4686C25.1456 13.201 25.081 12.9869 25.081 12.8157C25.081 12.6337 25.1671 12.441 25.3286 12.2269C25.5009 12.0128 25.7486 11.9165 26.0823 11.9165C26.4161 11.9165 26.696 12.045 26.9006 12.3126C27.1267 12.5588 27.299 12.9013 27.4282 13.3402C27.5682 13.7576 27.6651 14.2393 27.7189 14.7852C27.7727 15.3312 27.805 15.8878 27.805 16.4551H27.7727ZM31.6381 20.9081C32.1011 20.876 32.5425 20.7796 32.9624 20.5977C33.3823 20.4157 33.7592 20.1909 34.0822 19.934C34.416 19.6664 34.6851 19.3881 34.8789 19.0991C35.0728 18.7886 35.1697 18.4996 35.1697 18.2213C35.1697 18.0286 35.1158 17.8467 35.0189 17.6968C34.782 17.6968 34.5667 17.6433 34.3837 17.5469C34.2006 17.4506 34.0499 17.3222 33.9207 17.1723C33.7915 17.0224 33.6946 16.8405 33.63 16.6478C33.5761 16.4551 33.5438 16.2517 33.5438 16.0376C33.5438 15.8129 33.5761 15.5881 33.6515 15.374C33.7376 15.1492 33.8453 14.9458 33.9853 14.7638C34.136 14.5819 34.3298 14.4427 34.5559 14.3464C34.782 14.2393 35.0404 14.1751 35.3312 14.1751C35.6219 14.1751 35.9018 14.25 36.1279 14.3892C36.3648 14.5176 36.5586 14.6889 36.7201 14.9137C36.8708 15.1385 36.9893 15.3847 37.0539 15.663C37.1292 15.9413 37.1615 16.2303 37.1615 16.5193C37.1615 17.3329 36.9785 18.05 36.6124 18.6923C36.2571 19.3238 35.8049 19.8591 35.245 20.2979C34.6959 20.7261 34.0822 21.0686 33.3931 21.3041C32.704 21.5289 32.0365 21.636 31.3689 21.636L31.6166 20.9081H31.6381ZM71.7989 14.5283C71.3359 14.6568 70.8729 14.8388 70.41 15.0957C69.9577 15.3419 69.5271 15.6416 69.1072 15.9734C68.6872 16.2945 68.2889 16.6478 67.9336 17.0438C67.5782 17.4185 67.2768 17.7931 67.0076 18.1678C66.8353 18.414 66.6738 18.6923 66.5015 19.0027C66.3293 19.2917 66.1462 19.6664 65.9524 20.116C65.7586 20.5441 65.5325 21.0793 65.2849 21.7002C65.0372 22.3103 64.7358 23.0703 64.402 23.9588C64.079 24.8365 63.6914 25.8748 63.2499 27.0737C62.8192 28.2726 62.3132 29.6642 61.7318 31.2591C60.612 34.3205 59.4707 36.9538 58.3079 39.1374C57.145 41.3211 55.9068 43.1194 54.604 44.5324C53.3012 45.9239 51.8908 46.9622 50.3726 47.6259C48.876 48.2789 47.2287 48.6107 45.4306 48.6107C43.008 48.6107 41.1669 48.0755 39.8964 47.005C38.6474 45.9132 38.0229 44.436 38.0229 42.5521C38.0229 41.8456 38.109 41.1712 38.2705 40.5397C38.4428 39.9081 38.6582 39.3622 38.9381 38.8912C39.218 38.4202 39.541 38.0456 39.9071 37.7673C40.284 37.489 40.6823 37.3498 41.0807 37.3498C41.4468 37.3498 41.7375 37.4461 41.9421 37.6388C42.1574 37.8315 42.2543 38.1098 42.2543 38.4738C42.2543 38.7521 42.179 38.9876 42.039 39.1802C41.9098 39.3729 41.7483 39.5442 41.5329 39.6833C41.3391 39.8118 41.1238 39.9188 40.8762 40.0152C40.6393 40.1115 40.4024 40.1971 40.1871 40.2614C39.7349 40.4112 39.4226 40.6895 39.2396 41.0963C39.0673 41.4817 38.9919 41.9955 38.9919 42.627C38.9919 43.4191 39.1211 44.1363 39.3903 44.7786C39.6702 45.4101 40.0686 45.9453 40.5854 46.4056C41.1023 46.8552 41.7375 47.1977 42.4804 47.4546C43.2233 47.6901 44.0632 47.8079 44.9999 47.8079C45.9366 47.8079 46.7441 47.7222 47.4978 47.5617C48.2515 47.3904 48.9514 47.1121 49.5974 46.7267C50.2542 46.32 50.8787 45.7955 51.4709 45.1425C52.063 44.4788 52.6445 43.6439 53.2151 42.6591C53.8073 41.6743 54.3995 40.4969 55.0024 39.1481C55.6161 37.778 56.2729 36.2045 56.9835 34.4275C57.5434 32.9932 58.0387 31.7301 58.4802 30.6382C58.9108 29.5464 59.2984 28.5937 59.6322 27.7481C59.966 26.9132 60.2675 26.1853 60.5151 25.5751C60.7843 24.9436 61.0212 24.3977 61.2257 23.9267C61.4518 23.4557 61.6564 23.0382 61.861 22.6743C62.0548 22.3103 62.2594 21.9571 62.4747 21.6039C63.1207 20.5334 63.8744 19.5058 64.7465 18.5317C65.6294 17.5576 66.5984 16.712 67.6536 16.0055C66.6954 16.2945 65.7263 16.53 64.7358 16.6906C63.756 16.8619 62.8731 16.9368 62.0871 16.9368C61.3442 16.9368 60.6012 16.8619 59.8583 16.7227C59.1262 16.5836 58.4263 16.4337 57.7372 16.2624C57.0697 16.0912 56.4344 15.9413 55.8422 15.8021C55.2501 15.663 54.744 15.5881 54.3026 15.5881C53.775 15.5881 53.2582 15.7058 52.7629 15.9413C52.2891 16.1661 51.8692 16.4872 51.5032 16.9261C51.1371 17.3436 50.8464 17.8574 50.6418 18.4568C50.4265 19.0455 50.3296 19.6985 50.3296 20.4264C50.3296 21.2613 50.4695 21.9785 50.7495 22.5565L50.0173 22.974C49.845 22.6529 49.7051 22.2889 49.5974 21.8608C49.5005 21.4433 49.4467 20.9723 49.4467 20.4371C49.4467 19.463 49.6297 18.5853 49.9958 17.8038C50.3619 17.0224 50.8679 16.3588 51.5139 15.8129C52.1707 15.2669 52.9352 14.8495 53.8073 14.5605C54.6902 14.2714 55.6484 14.1216 56.6928 14.1216C57.1989 14.1216 57.6296 14.1537 57.9956 14.2286C58.3725 14.2821 58.7278 14.3571 59.0723 14.4534C59.4061 14.5498 59.7507 14.6568 60.106 14.7638C60.472 14.8602 60.892 14.9565 61.3657 15.0529C61.8394 15.1492 62.3993 15.2348 63.0453 15.299C63.6914 15.3526 64.4774 15.3847 65.4033 15.3847C66.0601 15.3847 66.6631 15.3526 67.1906 15.299C67.7182 15.2455 68.235 15.1706 68.7303 15.0743C69.2256 14.9672 69.7101 14.8281 70.2054 14.6782C70.7007 14.5069 71.2283 14.325 71.7989 14.1323V14.5069V14.5283ZM99.0501 16.4551C99.0501 17.8895 98.8994 19.4523 98.5871 21.1436C98.2749 22.8134 97.855 24.5475 97.3059 26.3244C96.7567 28.0906 96.1 29.8782 95.3247 31.6766C94.5495 33.4642 93.7097 35.1768 92.7837 36.836C91.8578 38.4845 90.8672 40.0259 89.8228 41.4602C88.7892 42.8946 87.7017 44.147 86.582 45.2067C85.473 46.2665 84.3424 47.1014 83.2011 47.7115C82.0491 48.311 80.9185 48.6107 79.7988 48.6107C79.0881 48.6107 78.3883 48.4822 77.7207 48.2146C77.0639 47.9684 76.4718 47.6045 75.955 47.1228C75.4489 46.6304 75.0398 46.0524 74.7383 45.3673C74.426 44.6715 74.2753 43.8794 74.2753 43.0017C74.2753 42.2309 74.3937 41.3639 74.6306 40.3898C74.8675 39.405 75.1797 38.3453 75.5566 37.2321C75.9442 36.1188 76.3856 34.9628 76.8809 33.7639C77.387 32.5543 77.893 31.334 78.4206 30.103C78.9482 28.8613 79.465 27.6411 79.9603 26.4422C80.4663 25.2433 80.9078 24.0979 81.2846 22.9954C81.6722 21.8929 81.9952 20.8653 82.2321 19.9233C82.469 18.9599 82.5874 18.1143 82.5874 17.3757C82.5874 17.0438 82.5551 16.7227 82.4797 16.4337C82.4259 16.1233 82.329 15.8664 82.189 15.663C82.0491 15.4382 81.8553 15.2669 81.5968 15.1385C81.36 15.01 81.0693 14.9458 80.714 14.9458C80.111 14.9458 79.465 15.1492 78.7759 15.556C78.1083 15.9413 77.4085 16.5514 76.6979 17.3757C75.9873 18.1999 75.2551 19.2382 74.5122 20.512C73.78 21.7644 73.0586 23.2523 72.348 24.965L71.7774 24.5903C72.5741 22.6529 73.3709 21.0258 74.1569 19.6985C74.9536 18.3605 75.7611 17.29 76.5794 16.4765C77.3977 15.6523 78.216 15.0636 79.0451 14.6996C79.8741 14.3357 80.714 14.1537 81.5645 14.1537C82.835 14.1537 83.8256 14.4962 84.5255 15.1813C85.2361 15.8664 85.6022 16.8191 85.6022 18.05C85.6022 18.7779 85.4837 19.6343 85.2469 20.6191C85.01 21.5931 84.687 22.6529 84.2778 23.7982C83.8902 24.9436 83.438 26.1425 82.932 27.4163C82.4259 28.6794 81.9091 29.9639 81.3707 31.2591C80.8539 32.5436 80.3371 33.8067 79.8311 35.0591C79.325 36.3115 78.8728 37.5104 78.4637 38.6343C78.076 39.7476 77.753 40.7859 77.5162 41.7493C77.2793 42.7019 77.1609 43.5048 77.1609 44.1791C77.1609 44.6822 77.2362 45.1425 77.3762 45.56C77.5162 45.9667 77.7207 46.32 77.9899 46.6304C78.2699 46.9408 78.6036 47.1763 78.9805 47.3369C79.3573 47.5081 79.7988 47.5831 80.2833 47.5831C81.1662 47.5831 82.0814 47.3155 83.0396 46.7696C84.0087 46.2129 84.9777 45.4636 85.9467 44.511C86.9265 43.5476 87.8955 42.4236 88.8538 41.1284C89.8121 39.8332 90.7165 38.4416 91.5671 36.943C92.4392 35.4552 93.2359 33.8923 93.9681 32.2546C94.7003 30.6275 95.3247 29.0112 95.8631 27.4056C96.4122 25.7892 96.8321 24.2157 97.1228 22.685C97.4351 21.1543 97.5858 19.7306 97.5858 18.4247C97.5858 17.5148 97.5212 16.7548 97.392 16.1233C97.2628 15.481 97.1228 14.9458 96.9721 14.5176C96.8214 14.0895 96.6814 13.7362 96.5522 13.4686C96.423 13.201 96.3584 12.9869 96.3584 12.8157C96.3584 12.6337 96.4445 12.441 96.606 12.2269C96.7783 12.0128 97.0259 11.9165 97.3597 11.9165C97.6935 11.9165 97.9734 12.045 98.178 12.3126C98.4041 12.5588 98.5764 12.9013 98.7056 13.3402C98.8455 13.7576 98.9424 14.2393 98.9963 14.7852C99.0501 15.3312 99.0824 15.8878 99.0824 16.4551H99.0501ZM101.107 35.4766C101.107 35.7228 101.031 35.9368 100.88 36.1081C100.741 36.258 100.547 36.3971 100.31 36.5042C100.073 36.6112 99.7823 36.7076 99.4485 36.7718C99.1255 36.8467 98.7917 36.9002 98.4364 36.9645C98.1457 37.018 97.7904 37.1571 97.3812 37.3605C96.9721 37.5746 96.5845 37.885 96.2076 38.3239C95.8308 38.7414 95.5078 39.298 95.2386 39.9938C94.991 40.6788 94.8618 41.5245 94.8618 42.5414C94.8618 43.5583 95.0017 44.4574 95.2817 45.1532C95.5724 45.8383 95.96 46.3842 96.4337 46.8017C96.9075 47.2191 97.4458 47.5188 98.0488 47.7008C98.6625 47.8721 99.2977 47.947 99.9438 47.947C100.676 47.947 101.365 47.84 102.022 47.6366C102.679 47.4225 103.314 47.1121 103.938 46.6946C104.552 46.2772 105.166 45.7419 105.769 45.1104C106.372 44.4788 106.985 43.7188 107.621 42.8518C108.396 41.7814 109.139 40.6039 109.871 39.3194C110.614 38.0242 111.346 36.6754 112.057 35.2839C112.767 33.8709 113.467 32.4473 114.135 31.0022C114.824 29.5571 115.491 28.1334 116.137 26.7419C116.794 25.3503 117.44 24.0123 118.054 22.7278C118.689 21.4433 119.292 20.2765 119.884 19.2168C120.498 18.1143 121.058 17.2258 121.542 16.5621C122.048 15.8771 122.522 15.3633 122.974 15.01C123.437 14.6461 123.9 14.4106 124.363 14.3036C124.826 14.1751 125.332 14.1109 125.881 14.1109C127.453 14.1109 128.584 14.4427 129.284 15.1171C129.984 15.7914 130.339 16.7869 130.339 18.1036C130.339 19.1205 130.167 20.33 129.811 21.743C129.456 23.156 129.015 24.6653 128.487 26.2816C127.959 27.8872 127.378 29.5464 126.764 31.2591C126.151 32.9611 125.569 34.6095 125.042 36.2152C124.503 37.8208 124.062 39.3194 123.717 40.7109C123.362 42.0918 123.19 43.2693 123.19 44.2433C123.19 45.3031 123.437 46.1273 123.922 46.7053C124.417 47.2941 125.225 47.5831 126.366 47.5831C127.292 47.5831 128.186 47.369 129.036 46.9301C129.908 46.5019 130.759 45.8597 131.599 45.0033C132.449 44.1363 133.321 43.0659 134.183 41.7814C135.066 40.4969 135.992 39.009 136.961 37.307L138.059 35.3802L138.629 35.7763L137.531 37.703C136.498 39.5335 135.507 41.1284 134.581 42.4879C133.655 43.8366 132.729 44.9712 131.803 45.8704C130.877 46.7803 129.93 47.4546 128.961 47.8935C128.003 48.3538 126.98 48.5786 125.892 48.5786C125.02 48.5786 124.256 48.4501 123.599 48.1825C122.942 47.9149 122.382 47.551 121.941 47.0907C121.499 46.6304 121.144 46.0952 120.907 45.485C120.681 44.8535 120.573 44.1898 120.573 43.4726C120.573 42.8625 120.649 42.1346 120.81 41.2997C120.982 40.4647 121.198 39.5549 121.467 38.5808C121.747 37.596 122.059 36.5577 122.414 35.4659C122.781 34.3633 123.157 33.2394 123.545 32.1047H114.695C114.178 33.1752 113.639 34.2349 113.09 35.2839C112.563 36.3329 112.014 37.3391 111.475 38.3132C110.948 39.2873 110.398 40.2186 109.86 41.0963C109.333 41.9633 108.805 42.7448 108.288 43.4619C107.599 44.4146 106.921 45.2174 106.253 45.8918C105.586 46.5662 104.918 47.0907 104.229 47.5189C103.54 47.947 102.84 48.2681 102.129 48.4608C101.419 48.6535 100.676 48.7498 99.9007 48.7498C98.038 48.7498 96.5737 48.2146 95.5293 47.1442C94.4957 46.0524 93.9681 44.4895 93.9681 42.445C93.9681 41.3425 94.1188 40.3149 94.4095 39.3515C94.7003 38.3774 95.1094 37.5211 95.6262 36.8039C96.143 36.076 96.7567 35.5087 97.4566 35.0912C98.1565 34.6737 98.9101 34.4597 99.7284 34.4597C100.138 34.4597 100.461 34.5346 100.719 34.6737C100.988 34.8129 101.117 35.0805 101.117 35.4659L101.107 35.4766ZM120.832 19.463C120.455 20.1695 120.035 20.9723 119.593 21.8715C119.163 22.7599 118.7 23.7126 118.226 24.7188C117.752 25.725 117.257 26.7633 116.729 27.8551C116.223 28.9256 115.707 30.0174 115.179 31.1199H123.911C124.374 29.7819 124.826 28.4546 125.257 27.1272C125.709 25.7999 126.108 24.5368 126.452 23.3272C126.818 22.1177 127.098 20.9937 127.313 19.9661C127.54 18.9385 127.647 18.0393 127.647 17.29C127.647 16.7976 127.593 16.4016 127.496 16.1019C127.4 15.7914 127.26 15.5559 127.077 15.3954C126.904 15.2134 126.7 15.0957 126.441 15.0421C126.204 14.9672 125.935 14.9351 125.645 14.9351C125.182 14.9351 124.751 15.01 124.363 15.1492C123.986 15.2883 123.61 15.5345 123.243 15.8771C122.877 16.2303 122.501 16.6906 122.102 17.2793C121.715 17.8681 121.284 18.6067 120.821 19.4951L120.832 19.463Z" fill="#FEFDFA"/>
<path d="M188.952 14.2582C186.956 18.6239 184.033 21.1371 181.767 20.3355C180.041 19.7288 179.501 17.9414 179.674 15.8073L180.969 14.0957C181.961 12.7957 181.228 12.709 180.235 13.0015C180.267 12.904 180.289 12.8065 180.321 12.709C180.418 12.7307 180.515 12.7415 180.645 12.7415C181.098 12.7415 180.893 12.3299 180.58 11.9616C180.753 11.4741 180.947 10.9974 181.163 10.5316C181.476 9.83829 181.81 9.19914 182.155 8.60333C182.393 8.495 182.447 8.34334 182.414 8.18084C184.27 5.21259 186.449 3.72847 188.337 4.40012C191.175 5.40759 190.862 10.055 188.952 14.269V14.2582ZM148.818 17.2156C145.635 18.0822 142.722 13.9223 141.33 9.93579C139.701 5.31009 140.111 1.84353 142.517 1.19355C144.675 0.608563 146.919 2.51517 148.559 5.29926C148.246 6.0359 147.663 7.94251 148.473 7.94251C149.066 7.94251 149.411 7.86668 149.616 7.74752C149.595 7.67169 149.573 7.58502 149.562 7.49836H149.649C149.67 7.55253 149.703 7.61752 149.724 7.67169C149.692 7.69335 149.659 7.71502 149.616 7.73669C149.713 8.17001 149.821 8.48416 149.961 8.48416C149.983 8.48416 150.005 8.48416 150.026 8.48416C150.026 8.48416 150.026 8.495 150.026 8.50583C150.533 9.93579 150.825 11.2791 150.911 12.4599C150.706 13.8248 150.371 15.2223 150.059 16.3706C149.724 16.7823 149.303 17.0747 148.796 17.2156H148.818ZM149.034 6.15507C149.131 6.33923 149.217 6.52339 149.314 6.71838C148.893 6.56672 148.904 6.35006 149.034 6.15507ZM189.222 3.75014C185.198 2.33101 181.098 5.48342 178.714 10.7158C178.66 10.8349 178.617 10.9541 178.563 11.0733C178.207 11.4524 177.926 11.7882 177.797 12.0266C176.988 13.5215 168.292 25.7628 165.864 28.8394C161.635 22.6862 158.312 17.3889 154.903 11.7341C154.644 11.3116 153.123 9.02582 151.774 6.89171C151.353 5.72175 150.609 4.25929 149.573 2.98099C149.573 2.94849 149.562 2.93766 149.541 2.93766C147.912 0.95522 145.592 -0.572235 142.744 0.207742C138.601 1.33438 137.673 6.05757 139.572 11.4416C141.007 15.5256 144.567 19.3063 148.602 18.2014C149.39 17.9847 150.069 17.6381 150.62 17.1939L161.57 33.4218L146.876 53.8853C145.142 56.3191 143.639 58.4605 142.366 60.3093L147.232 58.641L163.609 36.4225C168.486 43.6481 181.163 57.3194 183.774 65C184.432 62.9092 185.78 59.421 183.245 54.2645C182.145 52.022 169.457 33.6276 167.914 31.4177L177.991 18.0714C178.466 19.393 179.404 20.4546 180.915 20.9855C185.014 22.4371 189.125 19.133 191.445 14.0415C192.772 11.1383 193.84 5.39676 189.244 3.76097L189.222 3.75014Z" fill="url(#paint0_linear_457_1012)"/>
<path d="M202.437 49.1679C200.871 49.1679 199.478 48.921 198.257 48.4378C197.037 47.9655 196 47.2677 195.157 46.3659C194.325 45.4426 193.688 44.3153 193.234 42.9948C192.802 41.6529 192.586 40.1284 192.586 38.4214C192.586 37.4874 192.651 36.489 192.781 35.4476C192.921 34.3955 193.137 33.3327 193.418 32.2591C193.85 30.5521 194.423 28.9418 195.125 27.4173C195.827 25.8821 196.637 24.465 197.555 23.1659C198.484 21.8669 199.499 20.6967 200.59 19.6446C201.703 18.5818 202.869 17.68 204.09 16.9392C205.31 16.1984 206.585 15.6294 207.913 15.243C209.231 14.835 210.581 14.631 211.942 14.631C212.59 14.631 213.239 14.7062 213.908 14.8565C214.567 15.0068 215.161 15.2644 215.68 15.6294C216.22 15.9837 216.641 16.4561 216.965 17.0573C217.3 17.6478 217.473 18.3778 217.473 19.2581C217.473 20.0418 217.354 20.7719 217.116 21.4375C216.889 22.0924 216.565 22.7043 216.144 23.2625C215.734 23.8101 215.258 24.3147 214.708 24.7763C214.157 25.2379 213.573 25.6459 212.936 26.0109L212.558 25.4848C213.692 24.5723 214.535 23.5739 215.064 22.4896C215.615 21.3838 215.885 20.2351 215.885 19.0327C215.885 17.8303 215.593 16.8641 214.999 16.2843C214.427 15.7153 213.573 15.4255 212.45 15.4255C211.013 15.4255 209.555 15.8549 208.065 16.703C206.585 17.5404 205.17 18.6999 203.809 20.1814C202.448 21.6629 201.195 23.4128 200.05 25.4204C198.905 27.4173 197.965 29.5752 197.22 31.9048C196.745 33.3971 196.378 34.8786 196.118 36.3279C195.87 37.7665 195.74 39.1192 195.74 40.3753C195.74 45.5607 198.084 48.1587 202.761 48.1587C205.429 48.1587 207.892 47.3213 210.149 45.6466C212.396 43.9503 214.524 41.363 216.522 37.8631L217.624 35.9307L218.196 36.3279L217.095 38.2604C216.025 40.1284 214.934 41.7602 213.822 43.1237C212.709 44.4978 211.554 45.6251 210.365 46.5162C209.166 47.4072 207.913 48.0728 206.607 48.513C205.3 48.9639 203.917 49.1786 202.448 49.1786L202.437 49.1679ZM218.844 32.2269C219.276 30.5306 219.849 28.931 220.551 27.4065C221.264 25.8821 222.085 24.4757 223.003 23.1659C223.921 21.8562 224.926 20.6752 226.016 19.6231C227.107 18.571 228.263 17.68 229.473 16.9392C230.683 16.1877 231.936 15.608 233.232 15.2215C234.528 14.8135 235.835 14.6095 237.153 14.6095C239.81 14.6095 241.84 15.4255 243.255 17.068C244.66 18.6999 245.362 21.0725 245.362 24.1751C245.362 25.5063 245.232 26.902 244.962 28.3728C244.703 29.8436 244.336 31.3144 243.839 32.7959C243.309 34.374 242.661 35.877 241.894 37.3049C241.149 38.7327 240.317 40.0532 239.399 41.2664C238.481 42.4688 237.509 43.5638 236.472 44.5408C235.435 45.5177 234.344 46.3551 233.221 47.0315C232.098 47.7186 230.953 48.2446 229.786 48.5989C228.62 48.9746 227.453 49.1679 226.308 49.1679C225.001 49.1679 223.835 48.9317 222.808 48.4593C221.782 47.9869 220.907 47.2999 220.195 46.4088C219.482 45.4963 218.931 44.3905 218.553 43.0914C218.186 41.7817 218.002 40.3002 218.002 38.6469C218.002 37.627 218.078 36.5749 218.218 35.5013C218.358 34.4062 218.574 33.3219 218.855 32.2269H218.844ZM226.632 48.1372C228.026 48.1372 229.44 47.74 230.899 46.9456C232.357 46.1511 233.772 45.0346 235.122 43.6068C236.483 42.1789 237.747 40.4934 238.913 38.5288C240.091 36.5534 241.106 34.3955 241.948 32.0444C242.553 30.3481 243.018 28.6948 243.342 27.0737C243.677 25.4419 243.849 23.9604 243.849 22.6506C243.849 21.5234 243.72 20.5035 243.45 19.6124C243.201 18.6999 242.813 17.9376 242.316 17.3257C241.819 16.6923 241.214 16.2199 240.501 15.8978C239.788 15.565 238.978 15.3933 238.071 15.3933C237.099 15.3933 236.116 15.5865 235.122 15.9622C234.117 16.338 233.135 16.8748 232.152 17.5726C231.179 18.2597 230.229 19.0971 229.3 20.0848C228.382 21.0617 227.518 22.1675 226.708 23.4021C225.887 24.6153 225.142 25.9357 224.45 27.3636C223.759 28.7915 223.165 30.2837 222.657 31.8511C222.182 33.3756 221.815 34.8786 221.556 36.3601C221.307 37.8309 221.177 39.2051 221.177 40.4934C221.177 42.9841 221.642 44.8736 222.571 46.1726C223.5 47.4716 224.861 48.1265 226.643 48.1265L226.632 48.1372ZM269.632 27.4388C270.464 26.6228 271.209 25.7854 271.868 24.9051C272.538 24.0141 273.11 23.1337 273.575 22.2641C274.05 21.3945 274.417 20.5679 274.676 19.7734C274.925 18.979 275.054 18.249 275.054 17.5941C275.054 17.315 275.022 17.0466 274.968 16.7782C274.914 16.5098 274.806 16.2843 274.655 16.0911C274.514 15.8764 274.32 15.7261 274.061 15.608C273.823 15.4791 273.51 15.4147 273.132 15.4147C272.332 15.4147 271.512 15.6831 270.68 16.2306C269.859 16.7782 269.081 17.5619 268.314 18.6032C267.72 19.3977 267.18 20.2995 266.694 21.3086C266.219 22.2963 265.754 23.3592 265.301 24.4972C264.847 25.6244 264.404 26.8161 263.972 28.04C263.54 29.2746 263.076 30.5092 262.579 31.776C261.888 33.5366 261.196 35.147 260.516 36.6178C259.846 38.0886 259.144 39.4091 258.431 40.6008C257.729 41.7924 257.005 42.8445 256.26 43.7678C255.526 44.6803 254.759 45.464 253.959 46.1404C254.629 46.3336 255.385 46.5376 256.195 46.7523C257.027 46.9456 257.891 47.1281 258.788 47.2999C259.684 47.4716 260.602 47.6112 261.531 47.7186C262.46 47.8259 263.378 47.8903 264.296 47.8903C265.917 47.8903 267.331 47.6863 268.541 47.2784C269.751 46.8704 270.853 46.2585 271.857 45.4318C272.862 44.5945 273.801 43.5531 274.687 42.3077C275.584 41.0517 276.523 39.5701 277.496 37.8631L278.576 35.9307L279.148 36.3279L278.046 38.2604C276.707 40.6115 275.422 42.5332 274.169 44.0469C272.916 45.5392 271.684 46.7201 270.475 47.5897C269.276 48.4378 268.088 49.0283 266.91 49.3504C265.744 49.6725 264.566 49.8335 263.389 49.8335C262.59 49.8335 261.726 49.7583 260.818 49.6188C259.922 49.4792 258.993 49.286 258.032 49.0498C257.092 48.8243 256.131 48.5667 255.137 48.2768C254.154 47.9869 253.182 47.6863 252.22 47.3965C251.184 48.0084 250.093 48.4593 248.969 48.7384C247.846 49.0283 246.636 49.1786 245.34 49.1786C244.454 49.1786 243.731 49.1142 243.169 48.9854C242.618 48.878 242.186 48.717 241.862 48.5237C241.538 48.3305 241.311 48.105 241.192 47.8581C241.084 47.6112 241.019 47.3535 241.019 47.1066C241.019 46.602 241.182 46.1941 241.506 45.8935C241.83 45.5821 242.24 45.346 242.726 45.1849C243.223 45.0024 243.763 44.8843 244.346 44.8306C244.94 44.7555 245.502 44.7233 246.031 44.7233C247.198 44.7233 248.3 44.8199 249.347 45.0131C250.406 45.1957 251.378 45.3996 252.253 45.6466C252.685 45.142 253.117 44.5515 253.538 43.8859C253.97 43.2203 254.413 42.4473 254.867 41.5777C255.331 40.6974 255.806 39.7097 256.303 38.6254C256.8 37.5196 257.319 36.2957 257.88 34.9538C258.766 32.8603 259.565 30.9171 260.267 29.1457C260.98 27.3529 261.682 25.7318 262.352 24.2824C263.022 22.8331 263.713 21.5234 264.404 20.3854C265.106 19.2259 265.895 18.2275 266.77 17.3901C267.742 16.4561 268.757 15.7583 269.805 15.3181C270.864 14.8672 271.879 14.6525 272.862 14.6525C273.521 14.6525 274.072 14.7384 274.504 14.9209C274.957 15.1034 275.303 15.3503 275.562 15.6724C275.832 15.9837 276.016 16.338 276.113 16.7674C276.221 17.1861 276.286 17.637 276.286 18.1309C276.286 19.7842 275.757 21.4482 274.709 23.1445C273.672 24.8192 272.16 26.4833 270.172 28.1366L269.643 27.4817L269.632 27.4388ZM245.351 48.4056C246.517 48.4056 247.533 48.2983 248.408 48.0943C249.282 47.8796 250.093 47.5038 250.859 46.9456C250.395 46.806 249.898 46.6665 249.38 46.5269C248.872 46.3766 248.343 46.237 247.792 46.1297C247.241 46.0008 246.69 45.9042 246.129 45.8398C245.578 45.7539 245.038 45.711 244.508 45.711C243.677 45.711 243.029 45.8183 242.542 46.0438C242.078 46.2585 241.84 46.602 241.84 47.0959C241.84 47.2784 241.884 47.4502 241.97 47.6219C242.067 47.7722 242.24 47.9118 242.499 48.0406C242.759 48.148 243.104 48.2446 243.558 48.309C244.022 48.3842 244.616 48.4164 245.351 48.4164V48.4056ZM279.569 32.2162C280.001 30.5199 280.574 28.9203 281.276 27.3958C281.989 25.8713 282.81 24.465 283.728 23.1552C284.646 21.8454 285.651 20.6645 286.741 19.6124C287.843 18.5603 288.988 17.6692 290.198 16.9285C291.408 16.177 292.661 15.5972 293.957 15.2107C295.253 14.8028 296.56 14.5988 297.878 14.5988C300.535 14.5988 302.565 15.4147 303.97 17.0573C305.374 18.6891 306.076 21.0617 306.076 24.1644C306.076 25.4956 305.946 26.8912 305.676 28.362C305.428 29.8328 305.05 31.3036 304.553 32.7851C304.024 34.3633 303.375 35.8663 302.609 37.2942C301.863 38.722 301.032 40.0425 300.124 41.2556C299.206 42.458 298.234 43.5531 297.197 44.53C296.16 45.507 295.069 46.3444 293.946 47.0207C292.823 47.7078 291.678 48.2339 290.511 48.5881C289.345 48.9639 288.189 49.1571 287.033 49.1571C285.726 49.1571 284.56 48.921 283.533 48.4486C282.507 47.9762 281.632 47.2891 280.92 46.3981C280.207 45.4855 279.656 44.3797 279.278 43.0807C278.91 41.771 278.727 40.2894 278.727 38.6361C278.727 37.6162 278.802 36.5641 278.943 35.4906C279.083 34.3955 279.299 33.3112 279.58 32.2162H279.569ZM287.357 48.1265C288.75 48.1265 290.165 47.7293 291.624 46.9348C293.082 46.1404 294.497 45.0239 295.847 43.596C297.208 42.1682 298.472 40.4827 299.649 38.518C300.826 36.5427 301.842 34.3848 302.684 32.0336C303.289 30.3374 303.753 28.6841 304.078 27.063C304.412 25.4312 304.585 23.9496 304.585 22.6399C304.585 21.5126 304.456 20.4927 304.186 19.6017C303.937 18.6891 303.548 17.9269 303.051 17.315C302.555 16.6815 301.95 16.2092 301.237 15.8871C300.524 15.5543 299.714 15.3825 298.806 15.3825C297.834 15.3825 296.851 15.5758 295.858 15.9515C294.864 16.3273 293.87 16.8641 292.887 17.5619C291.915 18.249 290.965 19.0863 290.036 20.074C289.118 21.051 288.254 22.1568 287.444 23.3914C286.623 24.6045 285.877 25.925 285.186 27.3529C284.495 28.7807 283.901 30.273 283.393 31.8404C282.918 33.3649 282.551 34.8679 282.291 36.3494C282.043 37.8202 281.913 39.1944 281.913 40.4827C281.913 42.9734 282.378 44.8628 283.307 46.1619C284.236 47.4609 285.597 48.1158 287.379 48.1158L287.357 48.1265ZM315.397 49.1786C311.52 49.1786 309.575 46.9026 309.575 42.3614C309.575 40.3324 309.932 38.2067 310.634 35.9844C311.336 33.7514 312.362 31.5076 313.712 29.2531C315.073 26.9771 316.629 24.9373 318.378 23.1337C320.139 21.3194 322.008 19.7842 323.995 18.5174C325.993 17.2505 328.078 16.2736 330.238 15.608C332.42 14.9424 334.624 14.5988 336.838 14.5988C338.339 14.5988 339.679 14.7491 340.845 15.039C342.023 15.3288 343.027 15.7583 343.837 16.3165C344.658 16.8641 345.274 17.5404 345.695 18.3456C346.116 19.1615 346.332 20.074 346.332 21.0939C346.332 22.3071 346.051 23.4665 345.49 24.5508C344.939 25.6459 344.194 26.6014 343.232 27.4495C342.271 28.2761 341.158 28.9418 339.873 29.4678C338.599 29.9724 337.227 30.2408 335.779 30.2837C337.54 30.6058 338.825 31.1318 339.635 31.8511C340.456 32.5812 340.856 33.5474 340.856 34.7605C340.856 35.4476 340.748 36.1776 340.543 36.9613C340.327 37.7451 340.089 38.5502 339.83 39.3769C339.581 40.2035 339.344 41.0302 339.139 41.8676C338.923 42.705 338.825 43.5101 338.825 44.2831C338.825 45.5177 339.139 46.4517 339.754 47.1174C340.392 47.7722 341.288 48.105 342.455 48.105C343.275 48.105 344.032 47.944 344.755 47.6219C345.468 47.2999 346.213 46.7523 346.97 45.9686C347.747 45.1849 348.568 44.1328 349.443 42.8231C350.329 41.4918 351.344 39.8278 352.478 37.8309L353.58 35.8985L354.152 36.2957L353.051 38.2282C352.197 39.7204 351.409 41.0409 350.707 42.1682C350.016 43.2847 349.367 44.2509 348.741 45.0668C348.136 45.8827 347.564 46.5484 347.013 47.0851C346.462 47.6005 345.911 48.0192 345.349 48.3198C344.788 48.6311 344.204 48.8458 343.6 48.9746C342.995 49.1035 342.336 49.1679 341.634 49.1679C340.672 49.1679 339.808 49.0498 339.041 48.8136C338.264 48.5774 337.605 48.2339 337.054 47.783C336.503 47.3321 336.082 46.7953 335.79 46.1726C335.499 45.5285 335.347 44.8199 335.347 44.0362C335.347 43.2525 335.466 42.4044 335.704 41.4811C335.941 40.5578 336.211 39.6453 336.503 38.7327C336.795 37.8202 337.065 36.9613 337.302 36.1347C337.54 35.308 337.659 34.5995 337.659 33.9983C337.659 33.5903 337.594 33.1931 337.464 32.8066C337.335 32.4201 337.162 32.0551 336.935 31.733C336.708 31.411 336.438 31.1426 336.136 30.9171C335.844 30.6917 335.52 30.5414 335.185 30.477C335.131 30.4877 335.034 30.4984 334.894 30.4984C334.721 30.4984 334.58 30.477 334.472 30.434C334.375 30.3803 334.321 30.3052 334.321 30.2193C334.321 30.1442 334.375 30.0905 334.472 30.0261C334.58 29.9509 334.71 29.9187 334.85 29.9187C335.002 29.9187 335.121 29.9294 335.207 29.9616C335.293 29.9724 335.391 30.0153 335.499 30.0905C336.633 29.8436 337.702 29.4034 338.685 28.77C339.668 28.1366 340.521 27.3958 341.234 26.5262C341.947 25.6566 342.509 24.6904 342.919 23.6276C343.34 22.5647 343.556 21.4697 343.556 20.3532C343.556 17.9162 342.401 16.3809 340.078 15.7368C339.301 16.0481 338.545 16.5098 337.799 17.1217C337.065 17.7229 336.438 18.41 335.92 19.1722C335.769 19.3977 335.617 19.6231 335.477 19.8593C335.347 20.0955 335.207 20.4068 335.034 20.7826C334.861 21.1476 334.667 21.6092 334.44 22.189C334.213 22.7472 333.932 23.4558 333.598 24.3254C333.273 25.1735 332.885 26.2149 332.442 27.428C332.01 28.6304 331.48 30.069 330.865 31.7438C329.785 34.7176 328.661 37.3049 327.495 39.5057C326.328 41.6851 325.108 43.4994 323.822 44.938C322.548 46.3659 321.208 47.4287 319.815 48.1265C318.422 48.8243 316.953 49.1786 315.408 49.1786H315.397ZM331.405 22.5647C332.399 20.89 333.587 19.4514 334.948 18.249C336.309 17.0358 337.756 16.134 339.268 15.565C338.944 15.5113 338.599 15.4684 338.21 15.4362C337.832 15.404 337.432 15.3933 337.011 15.3933C334.905 15.3933 332.798 15.7261 330.703 16.3809C328.607 17.0358 326.587 17.9806 324.643 19.2152C322.721 20.4283 320.906 21.9206 319.199 23.6812C317.514 25.4312 316.002 27.3958 314.684 29.5752C313.388 31.7008 312.405 33.848 311.736 36.0381C311.077 38.2067 310.742 40.3216 310.742 42.3936C310.742 44.4656 311.12 45.9257 311.876 46.8597C312.654 47.7937 313.702 48.2661 315.041 48.2661C315.775 48.2661 316.456 48.1802 317.082 48.0192C317.73 47.8366 318.346 47.5468 318.919 47.1388C319.513 46.7201 320.085 46.1726 320.647 45.507C321.208 44.8414 321.781 44.0147 322.353 43.0378C322.926 42.0501 323.52 40.8799 324.125 39.5594C324.74 38.2174 325.399 36.6822 326.112 34.943C326.75 33.3541 327.29 31.98 327.754 30.8312C328.229 29.6718 328.64 28.6734 328.975 27.8574C329.309 27.0201 329.59 26.3222 329.817 25.7854C330.055 25.2379 330.271 24.7763 330.454 24.4005C330.638 24.0141 330.8 23.6812 330.94 23.4129C331.081 23.1337 331.232 22.8653 331.383 22.5969L331.405 22.5647ZM385.303 14.9746C384.839 15.1034 384.374 15.2859 383.91 15.5436C383.456 15.7905 383.024 16.0911 382.603 16.4239C382.182 16.746 381.782 17.1002 381.426 17.4975C381.069 17.8732 380.767 18.249 380.497 18.6247C380.324 18.8716 380.162 19.1508 379.989 19.4621C379.816 19.752 379.633 20.1277 379.438 20.5786C379.244 21.008 379.017 21.5448 378.769 22.1675C378.52 22.7794 378.218 23.5417 377.883 24.4327C377.559 25.3131 377.17 26.3544 376.727 27.5568C376.295 28.7592 375.787 30.1549 375.204 31.7545C374.081 34.8249 372.936 37.4659 371.769 39.656C370.603 41.8461 369.361 43.6497 368.054 45.0668C366.747 46.4625 365.332 47.5038 363.809 48.1695C362.307 48.8243 360.655 49.1571 358.851 49.1571C356.421 49.1571 354.574 48.6204 353.299 47.5468C352.046 46.4517 351.42 44.9702 351.42 43.0807C351.42 42.3722 351.506 41.6958 351.668 41.0624C351.841 40.429 352.057 39.8815 352.338 39.4091C352.619 38.9367 352.943 38.561 353.31 38.2818C353.688 38.0027 354.088 37.8631 354.487 37.8631C354.855 37.8631 355.146 37.9598 355.351 38.153C355.567 38.3463 355.665 38.6254 355.665 38.9904C355.665 39.2695 355.589 39.5057 355.449 39.699C355.319 39.8922 355.157 40.064 354.941 40.2035C354.746 40.3324 354.53 40.4397 354.282 40.5363C354.044 40.633 353.807 40.7189 353.591 40.7833C353.137 40.9336 352.824 41.2127 352.64 41.6207C352.467 42.0071 352.392 42.5225 352.392 43.1559C352.392 43.9503 352.521 44.6696 352.791 45.3137C353.072 45.9472 353.472 46.4839 353.99 46.9456C354.509 47.3965 355.146 47.74 355.891 47.9977C356.637 48.2339 357.479 48.352 358.419 48.352C359.359 48.352 360.169 48.2661 360.925 48.105C361.681 47.9333 362.383 47.6541 363.031 47.2677C363.69 46.8597 364.316 46.3336 364.911 45.6788C365.505 45.0131 366.088 44.1758 366.66 43.1881C367.254 42.2004 367.848 41.0195 368.453 39.6668C369.069 38.2926 369.728 36.7144 370.441 34.9323C371.002 33.4937 371.499 32.2269 371.942 31.1318C372.374 30.0368 372.763 29.0813 373.098 28.2332C373.433 27.3958 373.735 26.6658 373.984 26.0538C374.254 25.4204 374.491 24.8729 374.697 24.4005C374.923 23.9282 375.129 23.5095 375.334 23.1445C375.528 22.7794 375.733 22.4252 375.949 22.0709C376.598 20.9973 377.354 19.9667 378.229 18.9897C379.114 18.0128 380.086 17.1647 381.145 16.4561C380.184 16.746 379.211 16.9821 378.218 17.1432C377.235 17.315 376.349 17.3901 375.561 17.3901C374.815 17.3901 374.07 17.315 373.325 17.1754C372.59 17.0358 371.888 16.8855 371.197 16.7138C370.527 16.542 369.89 16.3917 369.296 16.2521C368.702 16.1126 368.194 16.0374 367.751 16.0374C367.222 16.0374 366.704 16.1555 366.207 16.3917C365.731 16.6171 365.31 16.9392 364.943 17.3794C364.576 17.7981 364.284 18.3134 364.079 18.9146C363.863 19.505 363.766 20.1599 363.766 20.89C363.766 21.7273 363.906 22.4466 364.187 23.0264L363.452 23.4451C363.28 23.123 363.139 22.758 363.031 22.3285C362.934 21.9098 362.88 21.4375 362.88 20.9007C362.88 19.9237 363.064 19.0434 363.431 18.2597C363.798 17.476 364.306 16.8104 364.954 16.2628C365.613 15.7153 366.38 15.2966 367.254 15.0068C368.14 14.7169 369.101 14.5666 370.149 14.5666C370.657 14.5666 371.089 14.5988 371.456 14.674C371.834 14.7276 372.191 14.8028 372.536 14.8994C372.871 14.996 373.217 15.1034 373.573 15.2107C373.94 15.3074 374.362 15.404 374.837 15.5006C375.312 15.5972 375.874 15.6831 376.522 15.7475C377.17 15.8012 377.959 15.8334 378.887 15.8334C379.546 15.8334 380.151 15.8012 380.68 15.7475C381.21 15.6939 381.728 15.6187 382.225 15.5221C382.722 15.4147 383.208 15.2752 383.705 15.1249C384.202 14.9531 384.731 14.7706 385.303 14.5773V14.9531V14.9746ZM407.565 24.6367C408.094 23.8423 408.494 23.0908 408.742 22.393C408.991 21.6951 409.12 20.9758 409.12 20.2565C409.12 19.5372 408.991 18.8287 408.742 18.2275C408.505 17.6263 408.148 17.111 407.684 16.6708C407.219 16.2414 406.647 15.9086 405.977 15.6831C405.318 15.4469 404.573 15.3288 403.741 15.3288C402.758 15.3288 401.862 15.4899 401.041 15.8119C400.242 16.134 399.55 16.5849 398.978 17.1754C398.416 17.7659 397.984 18.4637 397.671 19.2903C397.358 20.117 397.206 21.0295 397.206 22.0387C397.206 23.0478 397.347 24.0355 397.628 24.991C397.909 25.9465 398.265 26.8912 398.686 27.8467C399.107 28.7807 399.561 29.7147 400.058 30.638C400.566 31.5613 401.03 32.4845 401.451 33.4078C401.873 34.3311 402.229 35.2651 402.51 36.1991C402.791 37.1331 402.931 38.0886 402.931 39.0548C402.931 40.021 402.78 40.9658 402.467 41.8676C402.153 42.7479 401.721 43.5638 401.16 44.3046C400.609 45.0454 399.961 45.7217 399.194 46.3229C398.438 46.9241 397.606 47.4394 396.71 47.8581C395.824 48.2768 394.884 48.5989 393.88 48.8243C392.886 49.0498 391.871 49.1571 390.844 49.1571C389.278 49.1571 387.917 48.9102 386.729 48.4271C385.541 47.944 384.558 47.2891 383.759 46.4732C382.96 45.6573 382.355 44.734 381.944 43.6819C381.555 42.6191 381.35 41.524 381.35 40.386C381.35 39.6775 381.426 38.9904 381.577 38.3355C381.728 37.6806 381.944 37.1009 382.214 36.5963C382.495 36.0918 382.819 35.6945 383.186 35.4047C383.564 35.1148 383.975 34.9645 384.407 34.9645C384.785 34.9645 385.077 35.0719 385.293 35.2758C385.519 35.4906 385.627 35.7697 385.627 36.1347C385.627 36.4246 385.552 36.6715 385.401 36.8647C385.26 37.0472 385.087 37.1975 384.871 37.3264C384.655 37.4552 384.439 37.5518 384.202 37.6377C383.964 37.7236 383.748 37.8095 383.564 37.8846C383.197 38.0564 382.895 38.3355 382.635 38.7435C382.398 39.1514 382.279 39.7741 382.279 40.633C382.279 41.4918 382.441 42.3829 382.765 43.274C383.089 44.165 383.586 44.9809 384.245 45.711C384.915 46.441 385.768 47.0315 386.794 47.4931C387.82 47.944 389.041 48.1587 390.445 48.1587C391.665 48.1587 392.821 47.9762 393.901 47.6112C395.003 47.2354 395.953 46.6879 396.774 45.9794C397.606 45.2493 398.254 44.3475 398.74 43.274C399.215 42.1789 399.453 40.9228 399.453 39.495C399.453 38.4214 399.324 37.423 399.053 36.5212C398.805 35.6086 398.481 34.7498 398.081 33.9231C397.703 33.0965 397.282 32.302 396.818 31.5291C396.364 30.7454 395.943 29.9509 395.554 29.135C395.176 28.3191 394.852 27.4817 394.582 26.6228C394.333 25.7425 394.204 24.787 394.204 23.7457C394.204 22.4359 394.43 21.2228 394.873 20.117C395.338 19.0005 395.997 18.0342 396.839 17.2183C397.682 16.4024 398.697 15.7797 399.874 15.3288C401.073 14.8672 402.402 14.6418 403.86 14.6418C404.919 14.6418 405.869 14.7706 406.712 15.0175C407.565 15.2537 408.289 15.608 408.883 16.0696C409.488 16.5312 409.941 17.0895 410.254 17.7444C410.578 18.3993 410.74 19.14 410.74 19.9667C410.74 20.8792 410.546 21.7381 410.146 22.5433C409.758 23.3377 409.131 24.1536 408.289 24.9803L407.576 24.6475L407.565 24.6367ZM435.141 22.7687C435.637 21.8884 436.221 21.051 436.89 20.2565C437.56 19.4621 438.305 18.7213 439.105 18.0557C437.863 17.9484 436.631 17.7873 435.411 17.5726C434.201 17.3472 433.002 17.1324 431.803 16.9177C430.626 16.703 429.459 16.5312 428.303 16.3702C427.148 16.2199 426.014 16.1448 424.912 16.1448C423.659 16.1448 422.6 16.2521 421.747 16.4776C420.894 16.703 420.181 17.0144 419.641 17.4223C419.112 17.8088 418.723 18.2919 418.485 18.8502C418.247 19.4084 418.129 20.0311 418.129 20.7182C418.129 21.4053 418.237 21.9957 418.442 22.5003C418.658 23.0049 418.96 23.4236 419.349 23.7564C419.738 24.0785 420.202 24.3254 420.743 24.4864C421.293 24.6367 421.898 24.7119 422.557 24.7119C423.011 24.7119 423.475 24.6797 423.972 24.6045C424.469 24.5294 424.944 24.4327 425.43 24.3147C425.927 24.1751 426.402 24.0141 426.867 23.8315C427.331 23.649 427.763 23.4451 428.152 23.2196L428.573 23.7242C427.645 24.2502 426.651 24.6689 425.582 24.9588C424.512 25.2487 423.497 25.399 422.525 25.399C421.704 25.399 420.98 25.2916 420.332 25.0876C419.684 24.8622 419.133 24.5508 418.669 24.1429C418.215 23.7349 417.869 23.2411 417.632 22.6506C417.394 22.0601 417.275 21.3945 417.275 20.6538C417.275 18.6784 418.107 17.1754 419.76 16.1233C421.434 15.0712 423.842 14.5559 426.996 14.5559C428.26 14.5559 429.502 14.631 430.712 14.7813C431.933 14.9316 433.153 15.1141 434.363 15.3074C435.583 15.4899 436.815 15.6616 438.057 15.8334C439.299 16.0052 440.563 16.1018 441.881 16.1448C443.015 15.5006 444.192 14.996 445.38 14.631C446.579 14.266 447.767 14.0835 448.945 14.0835C449.55 14.0835 449.96 14.1372 450.165 14.2553C450.392 14.3626 450.5 14.5773 450.5 14.8887C450.5 15.3503 450.284 15.7797 449.841 16.1877C449.409 16.5742 448.804 16.9177 448.027 17.2183C447.271 17.5082 446.363 17.7444 445.305 17.9054C444.246 18.0772 443.112 18.1523 441.891 18.1523H441.297C441.103 18.1523 440.909 18.1523 440.703 18.1309C440.509 18.3241 440.325 18.5174 440.152 18.7213C440.001 18.9146 439.85 19.1186 439.71 19.3333C439.58 19.5158 439.461 19.7305 439.332 19.9882C439.202 20.2243 439.062 20.5357 438.889 20.9329C438.716 21.3086 438.521 21.781 438.295 22.3607C438.068 22.9297 437.798 23.649 437.474 24.5186C437.16 25.3668 436.793 26.3866 436.35 27.5783C435.918 28.7485 435.411 30.1334 434.827 31.733C433.704 34.7927 432.559 37.4337 431.393 39.6345C430.237 41.8246 429.006 43.6282 427.699 45.0454C426.392 46.441 424.987 47.4824 423.475 48.148C421.974 48.8029 420.31 49.1357 418.496 49.1357C416.109 49.1357 414.262 48.6096 412.966 47.5683C411.691 46.5162 411.043 45.0131 411.043 43.0592C411.043 42.3507 411.129 41.6743 411.291 41.0409C411.464 40.4075 411.68 39.86 411.961 39.3876C412.242 38.9153 412.566 38.5395 412.933 38.2604C413.311 37.9812 413.711 37.8417 414.132 37.8417C414.499 37.8417 414.78 37.949 414.975 38.1745C415.191 38.3892 415.288 38.6898 415.288 39.0978C415.288 39.291 415.255 39.4628 415.18 39.6023C415.126 39.7419 415.018 39.8707 414.867 39.9781C414.715 40.0854 414.499 40.2035 414.229 40.3324C413.959 40.4612 413.624 40.6008 413.214 40.7725C412.804 40.955 412.501 41.2127 412.307 41.5455C412.112 41.8676 412.015 42.3829 412.015 43.1022C412.015 44.8199 412.534 46.1189 413.581 46.9993C414.618 47.8689 416.195 48.2983 418.312 48.2983C419.166 48.2983 419.954 48.2231 420.678 48.0836C421.391 47.944 422.06 47.6971 422.687 47.3321C423.324 46.9563 423.918 46.441 424.48 45.7969C425.052 45.1527 425.635 44.3368 426.208 43.3384C426.802 42.3507 427.407 41.159 428.023 39.7741C428.66 38.3892 429.34 36.7574 430.086 34.8893C430.701 33.3112 431.241 31.9478 431.684 30.799C432.149 29.6503 432.538 28.6734 432.862 27.8682C433.196 27.0415 433.477 26.3544 433.704 25.8177C433.931 25.2701 434.115 24.8085 434.277 24.4327C434.449 24.057 434.59 23.7457 434.719 23.488C434.849 23.2303 434.979 22.9942 435.119 22.758L435.141 22.7687ZM448.815 14.6954C447.929 14.6954 447.033 14.8243 446.115 15.0927C445.197 15.361 444.322 15.7153 443.479 16.1662C444.279 16.134 445.056 16.0911 445.802 16.0159C446.558 15.93 447.238 15.8334 447.832 15.7261C448.426 15.6187 448.891 15.5006 449.247 15.3718C449.604 15.2322 449.776 15.0927 449.776 14.9531C449.776 14.7813 449.463 14.7062 448.826 14.7062L448.815 14.6954Z" fill="#FEFDFA"/>
</g>
<defs>
<linearGradient id="paint0_linear_457_1012" x1="165.595" y1="0.00191442" x2="165.595" y2="65" gradientUnits="userSpaceOnUse">
<stop stop-color="#C08D58"/>
<stop offset="1" stop-color="#FEF1BA"/>
</linearGradient>
<clipPath id="clip0_457_1012">
<rect width="450" height="65" fill="white" transform="translate(0.5)"/>
</clipPath>
</defs>
</svg>
