<svg width="32" height="32" viewBox="0 0 32 32" fill="none" xmlns="http://www.w3.org/2000/svg">
<path d="M29.9992 23.2147V27.2793C30.0007 27.6566 29.9233 28.0301 29.7718 28.3758C29.6203 28.7216 29.3982 29.0319 29.1196 29.287C28.841 29.5421 28.5121 29.7363 28.1539 29.8572C27.7958 29.9781 27.4162 30.023 27.0397 29.989C22.8623 29.536 18.8496 28.1114 15.324 25.8296C12.0439 23.7494 9.263 20.974 7.17871 17.7004C4.88441 14.1658 3.45663 10.1416 3.01102 5.95373C2.97709 5.57907 3.02171 5.20146 3.14202 4.84495C3.26234 4.48843 3.45571 4.16083 3.70984 3.88299C3.96397 3.60515 4.27328 3.38316 4.61808 3.23117C4.96288 3.07917 5.33561 3.00049 5.71255 3.00013H9.78521C10.444 2.99366 11.0827 3.2265 11.5823 3.65525C12.0818 4.084 12.4081 4.67941 12.5003 5.3305C12.6722 6.63125 12.991 7.90843 13.4506 9.13766C13.6332 9.6226 13.6728 10.1496 13.5645 10.6563C13.4562 11.163 13.2047 11.628 12.8397 11.9964L11.1156 13.7171C13.0482 17.1091 15.8622 19.9176 19.2609 21.8463L20.985 20.1256C21.3541 19.7613 21.8201 19.5103 22.3278 19.4022C22.8355 19.2942 23.3635 19.3336 23.8494 19.5159C25.0811 19.9746 26.3608 20.2928 27.6642 20.4643C28.3236 20.5572 28.9259 20.8887 29.3564 21.3958C29.7869 21.9029 30.0157 22.5502 29.9992 23.2147Z" stroke="#FDFFFE" stroke-width="2" stroke-linecap="round" stroke-linejoin="round"/>
</svg>
