<svg width="348" height="90" viewBox="0 0 348 90" fill="none" xmlns="http://www.w3.org/2000/svg">
<path d="M28.3258 4.00125C28.06 5.15624 28.7564 6.38147 29.849 6.70705C29.5665 7.5008 29.6505 8.36094 30.3684 9.11299C31.6681 10.4588 33.8393 10.0161 35.3941 9.45463C37.3019 8.76089 38.999 7.49374 40.2001 5.85404C52.4422 4.75581 64.9191 6.82276 76.1763 11.796C78.8213 12.9662 81.3924 14.3011 83.878 15.7731C62.3598 14.7731 39.3529 19.1764 22.4339 33.2385C20.4063 34.9236 18.4866 36.736 16.6713 38.6495C16.5868 38.7355 16.5401 38.8245 16.5016 38.9152C16.4523 38.9057 16.3997 38.8912 16.3439 38.8933C11.4897 38.6358 6.58101 39.9918 2.55875 42.7161C1.59557 43.3702 0.584141 44.1216 0.239683 45.287C-0.071411 46.3438 0.248848 47.5307 1.2341 48.1083C2.21935 48.686 3.3756 48.474 4.34712 48.0005C4.89245 47.7305 5.43089 47.4293 5.96268 47.1184C5.33275 47.7898 4.7359 48.4889 4.22812 49.2349C3.58606 50.1725 3.04745 51.2835 3.06889 52.4512C3.09388 53.6452 3.85586 54.7041 5.0094 55.0457C6.07409 55.3616 7.19284 55.0102 8.14283 54.5156C10.4704 53.2932 12.4913 51.1039 13.9698 48.9678C14.1589 48.6888 14.3448 48.405 14.5225 48.1195C14.3398 48.7237 14.1406 49.3246 13.9135 49.9159C13.4099 51.2467 12.8075 52.5372 12.1308 53.7921C11.4477 55.0585 10.8261 56.4049 11.1853 57.8806C11.5188 59.2449 12.7139 60.1314 14.1098 60.0935C15.5417 60.0454 16.7085 59.081 17.5079 57.9649C18.6779 56.332 19.3284 54.4285 19.5911 52.4588C19.7137 52.9129 19.8397 53.372 19.9837 53.8259C20.3497 54.9961 21.0045 56.1707 22.2342 56.5824C24.8698 57.4652 26.5891 54.6424 26.7539 52.4024C26.9353 50.0079 25.9542 47.7006 24.5832 45.787C22.8495 43.3603 20.5197 41.3813 17.9308 39.9151C17.9699 39.8885 18.0041 39.8653 18.0333 39.824C33.5444 23.4363 56.5054 17.3875 78.4981 17.4346C79.6352 17.4363 80.766 17.4709 81.8919 17.5088C79.9591 18.3341 78.0616 19.2429 76.2744 20.3563C74.2786 21.6042 71.3815 23.4713 71.3885 26.1535C71.3923 28.8522 74.344 30.1796 76.6723 29.6947C79.2626 29.1537 81.565 27.0527 83.2009 25.0748C84.8934 23.0226 86.1131 20.6108 86.7751 18.0403C86.8266 17.948 86.8569 17.8558 86.8707 17.7604C107.457 19.25 127.399 25.7556 146.886 32.3483C151.273 33.8329 155.659 35.3256 160.054 36.7904C153.843 36.5443 147.08 37.0315 142.823 42.0292C141.793 43.2374 141.068 44.7899 141.435 46.4035C141.796 48.0074 143.228 49.0121 144.81 49.1634C146.533 49.3333 148.333 48.734 149.929 48.1377C151.629 47.5063 153.261 46.67 154.804 45.7226C158.259 43.6051 161.307 40.8976 164.304 38.1888C169.761 39.9646 175.248 41.6696 180.786 43.1967C191.375 46.1232 202.153 48.319 213.042 49.7305C231.397 52.1115 250.025 52.3159 268.426 50.4096C255.227 59.8606 238.898 63.4619 222.959 65.1222C216.453 65.7997 209.917 66.1687 203.381 66.5163C203.325 64.6984 202.915 62.8846 202.15 61.2328C201.397 59.6088 200.3 57.7097 198.703 56.7882C196.949 55.7726 195.117 57.0094 194.633 58.8C194.175 60.4935 194.861 62.3135 195.923 63.6347C196.949 64.915 198.32 65.7971 199.648 66.7222C190.592 67.2193 181.547 67.8083 172.585 69.287C163.416 70.8066 154.38 73.2599 146.03 77.3968C145.978 77.4251 145.937 77.4599 145.889 77.4931C145.776 77.3477 145.614 77.2356 145.4 77.173C142.787 76.4822 139.994 76.8391 137.616 78.1029C136.403 78.7473 135.249 79.7099 134.849 81.0777C134.527 82.192 134.845 83.3231 135.636 84.0977C135.488 84.764 135.531 85.4585 135.939 86.0485C136.382 86.6793 137.157 86.9908 137.917 86.9837C137.929 88.1794 139.011 89.1423 140.228 89.0827C141.729 89.0094 142.925 87.6884 143.848 86.6388C145.758 84.4749 147.065 81.8243 147.669 78.9997C147.702 78.8483 147.697 78.7153 147.668 78.5989C162.351 71.6159 178.735 69.7898 194.797 68.784C186.866 71.433 179.146 74.6767 171.691 78.4787C168.601 78.4631 165.164 79.1777 163.342 81.9125C162.901 82.5777 162.605 83.3518 162.862 84.1515C163.12 84.9512 163.857 85.4896 164.629 85.7107C166.244 86.1754 167.743 85.2366 168.886 84.1953C170.255 82.9502 171.625 81.6329 172.678 80.101C172.758 80.0397 172.824 79.9587 172.879 79.8712C182.171 75.1445 191.91 71.3179 201.923 68.4305C201.99 68.4136 202.046 68.3902 202.098 68.3619C216.924 67.544 231.825 66.7749 246.182 62.7213C248.144 62.1701 250.085 61.5467 252.005 60.8595C249.913 62.0079 247.924 63.3296 246.074 64.8442C244.853 65.8451 243.686 66.9245 242.593 68.0608C241.61 69.0862 240.637 70.1773 240.236 71.5748C239.887 72.7862 240.112 74.2021 240.986 75.1419C241.847 76.0621 243.122 76.2353 244.301 75.9722C247.187 75.3306 249.301 72.8055 250.733 70.379C252.345 67.6506 253.54 64.646 254.789 61.7198C254.853 61.6553 254.908 61.5892 254.971 61.5247C255.072 61.4205 255.135 61.3133 255.173 61.2013C255.479 60.9363 255.549 60.5235 255.444 60.1793C255.499 59.9555 255.457 59.7472 255.362 59.5755C261.111 57.2263 266.574 54.2041 271.478 50.3581C271.598 50.262 271.677 50.1579 271.737 50.0458C273.736 49.813 275.736 49.5588 277.728 49.2734C289.765 47.5476 301.669 44.9094 313.302 41.3797C313.352 41.3892 313.396 41.4019 313.442 41.4065C313.822 41.4712 314.112 41.3098 314.29 41.067C323.004 38.3812 331.561 35.1922 339.896 31.4956C342.366 30.3987 344.814 29.2592 347.248 28.0788C348.271 27.5852 347.699 25.8811 346.67 26.3862C336.362 31.3945 325.674 35.6222 314.74 39.0566C312.239 34.9222 309.66 30.8409 306.995 26.8111C304.826 23.5334 302.336 19.4137 297.946 19.2712C296.294 19.2173 294.517 19.8296 293.484 21.1692C292.34 22.6623 292.321 24.7173 293.027 26.409C293.873 28.443 295.537 30.0423 297.059 31.5885C298.451 33.0076 299.91 34.367 301.463 35.6123C304.028 37.675 306.876 39.417 309.968 40.4986C301.533 42.9524 292.96 44.9408 284.294 46.4338C265.376 49.6941 246.051 50.6937 226.884 49.3369C226.854 49.2927 226.829 49.2453 226.791 49.1996C224.359 46.1652 224.149 42.1227 222.97 38.5455C221.749 34.8536 219.245 31.7031 215.824 29.8207C214.446 29.0651 212.711 28.4879 211.161 29.0461C209.438 29.6646 208.618 31.497 208.722 33.239C208.828 35.0155 209.73 36.732 210.569 38.2618C211.483 39.9339 212.593 41.4946 213.847 42.9212C215.96 45.3271 218.478 47.3425 221.279 48.8581C220.43 48.7755 219.585 48.6978 218.74 48.6119C207.833 47.4568 197.003 45.5324 186.366 42.8396C174.769 39.9023 163.424 36.0927 152.101 32.2533C142.014 28.8354 131.85 25.3557 121.548 22.4633C121.546 22.4288 121.536 22.3928 121.526 22.3567C121.653 19.483 121.326 16.624 120.5 13.8605C119.632 10.9529 118.238 7.70077 115.991 5.57996C113.967 3.67272 110.294 3.11442 108.651 5.80689C106.917 8.63964 108.926 11.7247 110.897 13.7752C113.47 16.4489 116.115 19.0596 118.735 21.6869C108.265 18.8729 97.6387 16.7533 86.8056 15.9918C86.7725 15.9641 86.7394 15.9365 86.7096 15.9137C86.6905 15.6329 86.5597 15.3563 86.2626 15.1712C75.5623 8.4512 63.1808 4.59976 50.5928 3.90514C47.4606 3.73221 44.3256 3.77609 41.2056 4.01043C41.1586 3.89907 41.0838 3.79942 40.9927 3.71796C39.5747 1.69302 37.2537 0.431814 34.7786 0.342844C33.4376 0.293359 32.1102 0.621531 30.9218 1.22797C29.7758 1.81276 28.6199 2.71955 28.3147 4.03743L28.3258 4.00125ZM7.66147 44.0444C6.40856 44.7663 5.17075 45.5209 3.90608 46.215C3.44919 46.4679 2.70696 46.9003 2.17391 46.5888C1.63264 46.2757 1.99154 45.5733 2.2883 45.2213C3.06343 44.3008 4.34986 43.6494 5.38941 43.0867C6.49918 42.4907 7.67245 42.0092 8.87454 41.6228C10.3531 41.1489 11.8744 40.8538 13.4071 40.7229C11.4936 41.8289 9.57506 42.9383 7.66147 44.0444ZM16.9393 55.3918C16.4767 56.3938 15.7949 57.6306 14.7481 58.1195C13.6017 58.6615 12.7174 57.8433 12.8762 56.6464C13.0349 55.4495 13.8821 54.3511 14.3949 53.2863C14.932 52.1836 15.4064 51.0517 15.8051 49.8925C16.3379 48.3627 16.7456 46.7961 17.0416 45.2121C17.169 45.4839 17.2833 45.7574 17.4025 46.0275C18.1097 49.1729 18.3059 52.4073 16.931 55.3902L16.9393 55.3918ZM22.2374 45.6675C23.5206 47.1678 24.6839 48.986 24.94 50.9831C25.0593 51.9268 25.0019 52.9258 24.5823 53.7912C24.1965 54.5906 23.1641 55.3849 22.3507 54.5974C21.6317 53.8962 21.4957 52.5913 21.2486 51.67C20.9417 50.5027 20.5872 49.339 20.1854 48.2003C19.863 47.2943 19.4998 46.4018 19.1185 45.5142C18.8611 44.3778 18.5415 43.2549 18.1941 42.1438C19.6953 43.1234 21.0639 44.3077 22.2292 45.666L22.2374 45.6675ZM15.2879 41.9249C14.2577 45.7414 12.0659 49.2361 8.98815 51.7418C8.31429 52.2854 4.94223 54.7258 4.84713 52.4187C4.81356 51.5172 5.40161 50.5948 5.93468 49.9175C6.79832 48.8222 7.76102 47.7887 8.76367 46.8141C10.7203 44.9193 12.9289 43.2904 15.283 41.9282L15.2879 41.9249ZM78.0963 27.1943C77.1878 27.7396 76.0668 28.1928 74.9931 27.9689C74.9192 27.9547 74.8386 27.9306 74.7661 27.9082C77.9402 26.0177 80.9092 23.7937 83.6094 21.2792C82.3209 23.6949 80.4417 25.7878 78.0996 27.1992L78.0963 27.1943ZM136.531 82.2713C136.458 81.8053 136.644 81.2488 136.874 80.935C137.447 80.1376 138.41 79.6198 139.304 79.2635C140.25 78.8789 141.239 78.673 142.233 78.6215C141.373 78.9119 140.533 79.253 139.722 79.6892C138.584 80.2969 137.361 81.1779 136.531 82.2713ZM143.403 84.3112C142.8 85.1368 142.118 85.9433 141.347 86.6173C141.03 86.8972 140.56 87.3096 140.105 87.2817C139.979 87.2743 139.655 87.165 139.678 86.9989C139.704 86.8164 139.678 86.6622 139.624 86.5197C140.071 86.3161 140.499 86.0617 140.901 85.8239C141.699 85.3468 142.435 84.7896 143.126 84.1769C143.486 83.854 143.825 83.523 144.152 83.1724C143.919 83.5667 143.672 83.9495 143.402 84.3194L143.403 84.3112ZM141.977 82.8218C141.29 83.4394 140.527 83.9787 139.733 84.4394C139.264 84.7072 137.972 85.5707 137.448 85.0521C136.996 84.6069 137.78 83.6158 138.046 83.2919C138.646 82.555 139.388 81.9649 140.197 81.4729C141.515 80.6783 142.987 80.1946 144.476 79.7996C143.795 80.9214 142.961 81.9458 141.977 82.8218ZM166.087 83.9246C165.683 84.0557 164.79 84.1393 164.583 83.6135C164.391 83.1418 165.23 82.3786 165.507 82.1121C166.037 81.609 166.677 81.2168 167.356 80.9425C168.289 80.5596 169.27 80.3735 170.26 80.2958C169.531 81.1272 168.735 81.8902 167.93 82.6515C167.391 83.1613 166.809 83.6928 166.092 83.9213L166.087 83.9246ZM196.3 60.2762C196.195 59.3226 196.739 57.5989 197.969 58.4114C198.511 58.7672 198.93 59.3424 199.309 59.8587C199.769 60.4927 200.177 61.1681 200.506 61.8836C201.09 63.1639 201.438 64.5181 201.563 65.9019C199.471 64.4206 196.599 62.9679 196.303 60.2811L196.3 60.2762ZM250.386 67.218C249.324 69.4513 248.052 71.7764 245.985 73.2236C245.193 73.7829 244.059 74.4382 243.035 74.2665C245.722 71.3957 248.412 68.5298 251.104 65.6556C250.865 66.1764 250.63 66.6939 250.388 67.2097L250.386 67.218ZM241.904 72.8637C241.881 72.5353 241.919 72.2016 242.017 71.9052C242.395 70.7675 243.356 69.8572 244.171 69.0169C245.097 68.0658 246.072 67.1669 247.097 66.3201C248.08 65.5164 249.102 64.7584 250.16 64.0544C247.409 66.9897 244.654 69.9283 241.904 72.8637ZM304.233 35.4512C301.311 33.3582 298.564 30.8172 296.233 28.0794C295.126 26.775 294.018 25.0911 294.422 23.2978C294.547 22.7253 294.842 22.2747 295.227 21.927C295.25 22.055 295.305 22.1893 295.413 22.3166C298.398 25.8497 301.387 29.3876 304.377 32.9173C306.085 34.9385 307.858 37.002 309.985 38.5882C307.943 37.8111 306.022 36.7294 304.241 35.4528L304.233 35.4512ZM305.466 31.4607C302.606 28.0795 299.75 24.6951 296.886 21.309C296.838 21.2486 296.787 21.2046 296.731 21.1639C297.069 21.0843 297.415 21.0358 297.765 21.0349C301.461 20.9755 303.671 24.9987 305.439 27.6748C307.631 30.9869 309.761 34.3339 311.842 37.7141C309.345 36.0994 307.377 33.7384 305.465 31.4689L305.466 31.4607ZM210.996 34.9982C210.504 33.7485 210.044 31.6822 211.489 30.8439C212.742 30.1221 214.418 31.0118 215.507 31.6692C218.503 33.4824 220.475 36.3854 221.474 39.6978C221.995 41.422 222.347 43.2247 222.844 44.9655C219.295 40.561 215.949 35.9909 212.818 31.2746C212.178 30.3117 210.701 31.3145 211.341 32.2773C214.839 37.5543 218.616 42.6421 222.64 47.5261C217.484 44.8792 213.113 40.41 210.992 34.9933L210.996 34.9982ZM147.565 47.0132C146.539 47.3014 145.097 47.6715 144.066 47.132C149.271 45.2023 154.341 42.9057 159.224 40.2704C155.737 43.1831 151.964 45.7808 147.565 47.0132ZM143.099 45.5818C143.103 44.6833 143.717 43.7147 144.266 43.0915C146.263 40.8038 149.211 39.5178 152.146 38.9366C154.324 38.5037 156.548 38.4335 158.776 38.4963C153.732 41.2412 148.496 43.608 143.107 45.5834L143.099 45.5818ZM114.297 14.6476C112.556 12.8927 109.623 10.721 109.817 7.94531C109.84 7.60021 109.927 7.276 110.059 6.98596C112.626 10.2723 114.946 13.7412 116.994 17.3664C116.092 16.4596 115.196 15.5495 114.297 14.6476ZM111.411 5.81003C111.501 5.78474 111.582 5.75785 111.679 5.74238C112.878 5.55143 113.993 6.11996 114.842 6.91871C116.734 8.69385 117.892 11.5042 118.668 13.9296C119.147 15.4241 119.469 16.9609 119.647 18.5168C117.282 14.0463 114.541 9.7888 111.411 5.81003ZM77.4057 21.7591C79.4131 20.5177 81.5628 19.5594 83.7426 18.6666C80.6284 21.7918 77.1178 24.4911 73.2973 26.7131C73.2367 26.5608 73.1892 26.4067 73.1793 26.2343C73.1293 25.3296 73.8189 24.5461 74.4201 23.9586C75.3009 23.1097 76.367 22.4072 77.4042 21.7673L77.4057 21.7591ZM38.7216 4.84465C37.6786 6.21219 36.2878 7.25704 34.656 7.82067C33.9136 8.07403 32.9437 8.38158 32.1555 8.15729C31.5978 7.9987 31.2916 7.5689 31.6129 7.04261C31.9664 6.4586 32.6484 6.07426 33.2277 5.75966C33.9262 5.37848 34.6963 5.11344 35.4707 4.93869C36.543 4.69773 37.6453 4.67992 38.7216 4.84465ZM33.8842 2.13966C35.215 1.9954 36.4896 2.30489 37.5904 2.94742C35.3126 2.89646 32.986 3.55216 31.2144 4.92002C31.1151 4.99464 31.0175 5.08238 30.9248 5.16681C30.7778 5.06603 30.6017 5.00654 30.3786 5.01472C30.3228 5.01675 30.2669 4.99744 30.1954 4.90269C30.109 4.79655 30.0602 4.67206 30.0538 4.52592C30.0451 4.1449 30.415 3.72177 30.711 3.46339C31.5781 2.70979 32.7515 2.24962 33.8857 2.13142L33.8842 2.13966Z" fill="url(#paint0_linear_456_957)"/>
<defs>
<linearGradient id="paint0_linear_456_957" x1="43.8196" y1="113.273" x2="292.001" y2="-55.2682" gradientUnits="userSpaceOnUse">
<stop stop-color="#C08D58"/>
<stop offset="1" stop-color="#FEF1BA"/>
</linearGradient>
</defs>
</svg>
