<svg width="132" height="128" viewBox="0 0 132 128" fill="none" xmlns="http://www.w3.org/2000/svg">
<path fill-rule="evenodd" clip-rule="evenodd" d="M86.3722 28.3946C70.2114 43.7913 75.6385 49.4167 73.6687 68.1809C71.4677 89.1348 51.5279 73.5532 43.9601 93.4074C38.5129 107.695 51.95 116.551 63.2465 116.259C82.6837 115.763 80.2315 92.0546 63.8697 100.892C58.1511 103.977 65.8998 91.714 75.8697 93.6604C86.0606 95.6459 90.5531 103.179 88.5229 110.225C85.9501 119.13 78.2817 124.065 68.9852 126.254C62.935 127.675 57.1661 128.191 51.739 127.938C-19.256 119.821 -13.5274 18.2826 46.6134 12.4042C74.945 9.63044 93.2968 21.8057 86.3722 28.4043V28.3946Z" fill="#212121"/>
<path fill-rule="evenodd" clip-rule="evenodd" d="M91.5289 90.7415C97.1087 91.9991 100.435 89.5717 100.214 85.3993C100.074 82.6795 99.9337 79.9597 99.7935 77.2398C102.188 73.5451 102.428 74.637 99.3727 71.2835C99.3727 71.2835 101.506 70.3574 102.779 68.7488C104.051 67.1306 100.515 64.4497 100.976 63.7479C101.436 63.0557 107.757 59.0491 105.524 58.5519C103.29 58.0547 94.3539 49.9147 92.8813 45.6058C90.3268 38.1482 88.7741 32.2406 86.4901 28C70.0813 43.0712 75.8213 49.0471 73.8579 67.8325C71.664 88.8211 51.7891 73.2137 44.2458 93.1007C38.8964 107.197 51.8292 116.019 62.9788 116C47.5516 100.354 56.7779 82.933 91.5289 90.7415Z" fill="url(#paint0_linear_53_33)"/>
<path fill-rule="evenodd" clip-rule="evenodd" d="M78.9946 36.709C74.1983 51.7856 76.3546 51.7075 75.3974 65.6995C74.5107 78.7731 66.238 82.7988 55.7183 87.7038C37.3895 96.2339 44.594 117.447 68.4649 114.564L72.4853 114.037L69.0292 116.372C58.3785 121.502 42.0951 115.492 39.6063 103.308C37.4197 92.6381 45.7125 83.7172 55.5369 80.0238C73.2209 73.3795 68.7168 66.3835 71.7397 51.2482C73.3519 43.1676 73.8154 42.6595 78.9946 36.7188V36.709Z" fill="white"/>
<defs>
<linearGradient id="paint0_linear_53_33" x1="74.5" y1="28" x2="74.5" y2="116" gradientUnits="userSpaceOnUse">
<stop stop-color="#C08D58"/>
<stop offset="1" stop-color="#FEF1BA"/>
</linearGradient>
</defs>
</svg>
