<svg width="175" height="45" viewBox="0 0 175 45" fill="none" xmlns="http://www.w3.org/2000/svg">
<path d="M14.2852 2.00063C14.1523 2.57812 14.5004 3.19075 15.0468 3.35354C14.9055 3.75041 14.9475 4.18047 15.3065 4.5565C15.9563 5.22938 17.0419 5.00804 17.8193 4.72732C18.7732 4.38045 19.6217 3.74688 20.2223 2.92703C26.3433 2.37791 32.5818 3.41139 38.2104 5.89799C39.5329 6.48309 40.8185 7.15058 42.0612 7.88655C31.3021 7.38657 19.7987 9.5882 11.3392 16.6193C10.3254 17.4618 9.36556 18.368 8.45789 19.3248C8.41566 19.3678 8.39232 19.4123 8.37308 19.4576C8.34842 19.4528 8.32209 19.4456 8.29421 19.4466C5.86712 19.3179 3.41276 19.9959 1.40163 21.3581C0.920042 21.6851 0.414329 22.0608 0.242097 22.6435C0.0865534 23.1719 0.246681 23.7653 0.739307 24.0542C1.23193 24.343 1.81005 24.237 2.29582 24.0003C2.56848 23.8653 2.8377 23.7147 3.1036 23.5592C2.78863 23.8949 2.49021 24.2444 2.23632 24.6175C1.91529 25.0863 1.64599 25.6418 1.65671 26.2256C1.6692 26.8226 2.05019 27.352 2.62696 27.5228C3.1593 27.6808 3.71868 27.5051 4.19367 27.2578C5.35744 26.6466 6.36793 25.552 7.10713 24.4839C7.20173 24.3444 7.29466 24.2025 7.38348 24.0598C7.29214 24.3618 7.19258 24.6623 7.07902 24.958C6.82722 25.6234 6.52599 26.2686 6.18767 26.896C5.84612 27.5292 5.53533 28.2025 5.71493 28.9403C5.88168 29.6224 6.4792 30.0657 7.17714 30.0467C7.89308 30.0227 8.4765 29.5405 8.87621 28.9825C9.46123 28.166 9.78648 27.2143 9.9178 26.2294C9.97912 26.4565 10.0421 26.686 10.1141 26.913C10.2971 27.498 10.6245 28.0854 11.2394 28.2912C12.5572 28.7326 13.4168 27.3212 13.4992 26.2012C13.5899 25.004 13.0993 23.8503 12.4139 22.8935C11.547 21.6801 10.3821 20.6907 9.08766 19.9575C9.10722 19.9443 9.12432 19.9326 9.13889 19.912C16.8944 11.7181 28.3749 8.69374 39.3713 8.71731C39.9398 8.71815 40.5052 8.73544 41.0682 8.75439C40.1018 9.16705 39.1531 9.62148 38.2595 10.1782C37.2615 10.8021 35.813 11.7357 35.8165 13.0768C35.8184 14.4261 37.2943 15.0898 38.4584 14.8474C39.7536 14.5769 40.9048 13.5264 41.7227 12.5374C42.569 11.5113 43.1788 10.3054 43.5098 9.02017C43.5356 8.97399 43.5507 8.92789 43.5576 8.8802C53.8507 9.62499 63.8217 12.8778 73.5651 16.1742C75.7588 16.9164 77.9516 17.6628 80.1493 18.3952C77.0438 18.2722 73.6622 18.5158 71.5336 21.0146C71.0186 21.6187 70.6564 22.3949 70.8399 23.2018C71.0202 24.0037 71.7364 24.5061 72.5272 24.5817C73.3886 24.6667 74.2888 24.367 75.0865 24.0689C75.9366 23.7531 76.7528 23.335 77.5241 22.8613C79.252 21.8026 80.7759 20.4488 82.2744 19.0944C85.0027 19.9823 87.7463 20.8348 90.5152 21.5984C95.8096 23.0616 101.199 24.1595 106.643 24.8652C115.821 26.0558 125.135 26.158 134.335 25.2048C127.736 29.9303 119.571 31.731 111.602 32.5611C108.349 32.8999 105.081 33.0843 101.813 33.2581C101.785 32.3492 101.58 31.4423 101.197 30.6164C100.821 29.8044 100.272 28.8548 99.4738 28.3941C98.5967 27.8863 97.6807 28.5047 97.4386 29.4C97.2099 30.2468 97.5529 31.1567 98.0836 31.8173C98.597 32.4575 99.2822 32.8986 99.9464 33.3611C95.418 33.6097 90.8958 33.9042 86.4149 34.6435C81.8301 35.4033 77.3122 36.63 73.1374 38.6984C73.1113 38.7126 73.091 38.73 73.0665 38.7466C73.01 38.6739 72.9291 38.6178 72.8221 38.5865C71.516 38.2411 70.119 38.4195 68.93 39.0514C68.3237 39.3736 67.7468 39.8549 67.5469 40.5389C67.3859 41.096 67.5449 41.6616 67.9401 42.0488C67.8663 42.382 67.8878 42.7292 68.0917 43.0243C68.313 43.3397 68.701 43.4954 69.0808 43.4918C69.0867 44.0897 69.628 44.5712 70.2364 44.5413C70.9867 44.5047 71.5847 43.8442 72.0463 43.3194C73.0011 42.2375 73.6549 40.9121 73.9567 39.4998C73.9732 39.4242 73.9709 39.3576 73.9564 39.2994C81.2976 35.8079 89.4897 34.8949 97.521 34.392C93.5554 35.7165 89.6953 37.3384 85.9675 39.2393C84.4227 39.2316 82.7043 39.5889 81.7934 40.9563C81.5727 41.2888 81.4248 41.6759 81.5534 42.0758C81.6821 42.4756 82.0507 42.7448 82.4365 42.8554C83.2444 43.0877 83.9937 42.6183 84.5652 42.0976C85.2498 41.4751 85.9348 40.8164 86.4613 40.0505C86.5012 40.0198 86.5344 39.9793 86.5618 39.9356C91.2079 37.5722 96.0774 35.6589 101.084 34.2153C101.117 34.2068 101.145 34.1951 101.171 34.181C108.584 33.772 116.035 33.3875 123.213 31.3606C124.194 31.085 125.165 30.7734 126.125 30.4297C125.079 31.0039 124.084 31.6648 123.159 32.4221C122.549 32.9226 121.965 33.4622 121.419 34.0304C120.927 34.5431 120.441 35.0887 120.24 35.7874C120.066 36.3931 120.178 37.101 120.615 37.571C121.046 38.0311 121.683 38.1177 122.273 37.9861C123.716 37.6653 124.773 36.4028 125.489 35.1895C126.295 33.8253 126.892 32.323 127.517 30.8599C127.549 30.8277 127.576 30.7946 127.608 30.7623C127.658 30.7102 127.69 30.6566 127.709 30.6007C127.862 30.4682 127.897 30.2618 127.844 30.0897C127.872 29.9778 127.851 29.8736 127.803 29.7877C130.678 28.6132 133.409 27.1021 135.861 25.1791C135.921 25.131 135.961 25.079 135.991 25.0229C136.99 24.9065 137.99 24.7794 138.986 24.6367C145.005 23.7738 150.957 22.4547 156.773 20.6898C156.798 20.6946 156.82 20.701 156.843 20.7033C157.033 20.7356 157.178 20.6549 157.267 20.5335C161.624 19.1906 165.903 17.5961 170.07 15.7478C171.305 15.1993 172.529 14.6296 173.746 14.0394C174.258 13.7926 173.972 12.9405 173.457 13.1931C168.303 15.6973 162.959 17.8111 157.492 19.5283C156.242 17.4611 154.952 15.4204 153.62 13.4056C152.535 11.7667 151.29 9.70685 149.095 9.63558C148.269 9.60867 147.381 9.91483 146.864 10.5846C146.292 11.3312 146.283 12.3587 146.636 13.2045C147.059 14.2215 147.891 15.0212 148.652 15.7943C149.348 16.5038 150.077 17.1835 150.854 17.8062C152.136 18.8375 153.56 19.7085 155.106 20.2493C150.889 21.4762 146.602 22.4704 142.269 23.2169C132.81 24.847 123.148 25.3469 113.564 24.6684C113.549 24.6464 113.537 24.6226 113.518 24.5998C112.302 23.0826 112.197 21.0614 111.607 19.2727C110.997 17.4268 109.745 15.8515 108.034 14.9103C107.345 14.5326 106.478 14.244 105.703 14.523C104.841 14.8323 104.431 15.7485 104.483 16.6195C104.536 17.5077 104.987 18.366 105.407 19.1309C105.864 19.967 106.419 20.7473 107.046 21.4606C108.102 22.6636 109.361 23.6712 110.762 24.4291C110.337 24.3878 109.915 24.3489 109.492 24.306C104.039 23.7284 98.6238 22.7662 93.3051 21.4198C87.507 19.9512 81.8341 18.0463 76.1726 16.1267C71.1292 14.4177 66.047 12.6779 60.8964 11.2317C60.8954 11.2144 60.8903 11.1964 60.8852 11.1784C60.9489 9.74148 60.7854 8.31198 60.3721 6.93028C59.9385 5.47644 59.2414 3.85039 58.1177 2.78998C57.1057 1.83636 55.2694 1.55721 54.4477 2.90345C53.5806 4.31983 54.5853 5.86235 55.5709 6.88762C56.8574 8.22444 58.1797 9.52979 59.4897 10.8435C54.2549 9.43647 48.9416 8.37663 43.525 7.99591C43.5085 7.98207 43.492 7.96824 43.4771 7.95685C43.4675 7.81648 43.4021 7.67815 43.2535 7.58559C37.9034 4.22561 31.7127 2.29988 25.4187 1.95257C23.8526 1.8661 22.2851 1.88805 20.7251 2.00522C20.7015 1.94954 20.6641 1.89972 20.6186 1.85898C19.9096 0.846515 18.7491 0.215909 17.5115 0.171427C16.8411 0.146683 16.1774 0.310773 15.5832 0.613993C15.0102 0.906383 14.4322 1.35979 14.2796 2.01873L14.2852 2.00063ZM3.95299 22.0222C3.32654 22.3831 2.70763 22.7605 2.0753 23.1075C1.84685 23.234 1.47574 23.4502 1.20921 23.2944C0.938577 23.1378 1.11803 22.7867 1.26641 22.6107C1.65397 22.1504 2.29718 21.8247 2.81696 21.5434C3.37185 21.2453 3.95848 21.0046 4.55953 20.8114C5.29878 20.5745 6.05943 20.4269 6.82582 20.3614C5.86903 20.9145 4.90979 21.4692 3.95299 22.0222ZM8.59189 27.6959C8.3606 28.1969 8.01973 28.8153 7.4963 29.0597C6.9231 29.3308 6.48097 28.9217 6.56034 28.3232C6.63972 27.7248 7.06332 27.1756 7.31972 26.6432C7.58825 26.0918 7.82545 25.5259 8.02478 24.9462C8.29119 24.1814 8.49507 23.398 8.64308 22.6061C8.70677 22.742 8.76391 22.8787 8.8235 23.0138C9.1771 24.5864 9.2752 26.2037 8.58778 27.6951L8.59189 27.6959ZM11.241 22.8338C11.8826 23.5839 12.4642 24.493 12.5922 25.4916C12.6519 25.9634 12.6232 26.4629 12.4134 26.8956C12.2205 27.2953 11.7043 27.6924 11.2976 27.2987C10.9381 26.9481 10.8701 26.2957 10.7466 25.835C10.5931 25.2514 10.4159 24.6695 10.215 24.1002C10.0538 23.6472 9.87215 23.2009 9.68152 22.7571C9.55282 22.1889 9.39301 21.6275 9.21932 21.0719C9.9699 21.5617 10.6542 22.1539 11.2369 22.833L11.241 22.8338ZM7.76619 20.9624C7.25108 22.8707 6.1552 24.618 4.61633 25.8709C4.2794 26.1427 2.59337 27.3629 2.54582 26.2094C2.52904 25.7586 2.82306 25.2974 3.0896 24.9587C3.52142 24.4111 4.00277 23.8944 4.50409 23.407C5.4824 22.4596 6.58672 21.6452 7.76374 20.9641L7.76619 20.9624ZM39.1704 13.5972C38.7162 13.8698 38.1556 14.0964 37.6188 13.9845C37.5818 13.9773 37.5415 13.9653 37.5053 13.9541C39.0924 13.0089 40.5768 11.8969 41.927 10.6396C41.2827 11.8474 40.3431 12.8939 39.1721 13.5996L39.1704 13.5972ZM68.3879 41.1356C68.3512 40.9027 68.4444 40.6244 68.5593 40.4675C68.8458 40.0688 69.3272 39.8099 69.7742 39.6318C70.2473 39.4395 70.7417 39.3365 71.2386 39.3108C70.8086 39.456 70.3886 39.6265 69.983 39.8446C69.4143 40.1485 68.8025 40.589 68.3879 41.1356ZM71.8239 42.1556C71.522 42.5684 71.1815 42.9716 70.796 43.3087C70.6374 43.4486 70.4023 43.6548 70.175 43.6408C70.1118 43.6372 69.9496 43.5825 69.9611 43.4995C69.9741 43.4082 69.9611 43.3311 69.9341 43.2599C70.1579 43.1581 70.3715 43.0309 70.573 42.912C70.9718 42.6734 71.3398 42.3948 71.6854 42.0884C71.8651 41.927 72.0349 41.7615 72.1981 41.5862C72.0819 41.7833 71.9583 41.9748 71.8231 42.1597L71.8239 42.1556ZM71.111 41.4109C70.767 41.7197 70.3858 41.9894 69.9886 42.2197C69.7545 42.3536 69.1082 42.7853 68.8464 42.5261C68.6202 42.3035 69.0124 41.8079 69.1453 41.646C69.4452 41.2775 69.8163 40.9825 70.2208 40.7365C70.8797 40.3391 71.6156 40.0973 72.3602 39.8998C72.0196 40.4607 71.603 40.9729 71.111 41.4109ZM83.166 41.9623C82.964 42.0278 82.5173 42.0697 82.4138 41.8068C82.3179 41.5709 82.7374 41.1893 82.8756 41.0561C83.1405 40.8045 83.461 40.6084 83.8001 40.4713C84.2666 40.2798 84.7571 40.1868 85.2522 40.1479C84.888 40.5636 84.4898 40.9451 84.0875 41.3258C83.8177 41.5807 83.5266 41.8464 83.1684 41.9607L83.166 41.9623ZM98.272 30.1381C98.2197 29.6613 98.4917 28.7995 99.1069 29.2057C99.3778 29.3836 99.5874 29.6712 99.777 29.9294C100.007 30.2464 100.211 30.5841 100.375 30.9418C100.667 31.5819 100.841 32.2591 100.904 32.951C99.8579 32.2103 98.4216 31.4839 98.2737 30.1406L98.272 30.1381ZM125.315 33.609C124.784 34.7256 124.148 35.8882 123.115 36.6118C122.719 36.8914 122.152 37.2191 121.64 37.1333C122.983 35.6978 124.328 34.2649 125.674 32.8278C125.555 33.0882 125.437 33.3469 125.316 33.6049L125.315 33.609ZM121.074 36.4318C121.063 36.2677 121.082 36.1008 121.131 35.9526C121.32 35.3838 121.8 34.9286 122.208 34.5085C122.671 34.0329 123.158 33.5834 123.671 33.1601C124.162 32.7582 124.673 32.3792 125.202 32.0272C123.827 33.4949 122.449 34.9642 121.074 36.4318ZM152.239 17.7256C150.778 16.6791 149.404 15.4086 148.239 14.0397C147.685 13.3875 147.131 12.5455 147.333 11.6489C147.396 11.3626 147.543 11.1374 147.736 10.9635C147.747 11.0275 147.775 11.0946 147.829 11.1583C149.321 12.9248 150.816 14.6938 152.311 16.4586C153.165 17.4693 154.051 18.501 155.115 19.2941C154.094 18.9056 153.133 18.3647 152.243 17.7264L152.239 17.7256ZM152.855 15.7304C151.425 14.0398 149.997 12.3475 148.565 10.6545C148.541 10.6243 148.516 10.6023 148.488 10.582C148.657 10.5421 148.83 10.5179 149.005 10.5175C150.853 10.4878 151.958 12.4993 152.842 13.8374C153.938 15.4934 155.003 17.167 156.043 18.8571C154.795 18.0497 153.811 16.8692 152.855 15.7345L152.855 15.7304ZM105.62 17.4991C105.374 16.8743 105.144 15.8411 105.867 15.422C106.493 15.061 107.331 15.5059 107.876 15.8346C109.374 16.7412 110.36 18.1927 110.859 19.8489C111.12 20.711 111.296 21.6123 111.544 22.4827C109.77 20.2805 108.097 17.9954 106.531 15.6373C106.211 15.1559 105.473 15.6572 105.793 16.1387C107.542 18.7772 109.43 21.3211 111.442 23.763C108.864 22.4396 106.679 20.205 105.618 17.4967L105.62 17.4991ZM73.9045 23.5066C73.3916 23.6507 72.6707 23.8358 72.1553 23.566C74.7578 22.6012 77.2928 21.4528 79.7342 20.1352C77.9906 21.5915 76.1044 22.8904 73.9045 23.5066ZM71.6718 22.7909C71.6739 22.3416 71.9808 21.8573 72.255 21.5457C73.2535 20.4019 74.7279 19.7589 76.1951 19.4683C77.284 19.2519 78.3961 19.2168 79.5105 19.2482C76.9883 20.6206 74.37 21.804 71.6759 22.7917L71.6718 22.7909ZM57.2709 7.3238C56.4 6.44636 54.9339 5.3605 55.0309 3.97266C55.0423 3.80011 55.0858 3.63801 55.1516 3.49299C56.4354 5.13617 57.5954 6.87059 58.6192 8.68318C58.1684 8.22979 57.72 7.77473 57.2709 7.3238ZM55.8275 2.90502C55.8725 2.89238 55.9134 2.87894 55.9617 2.8712C56.5613 2.77572 57.1187 3.05999 57.5435 3.45936C58.4892 4.34693 59.0683 5.75208 59.4561 6.96478C59.6957 7.71207 59.8567 8.48045 59.9457 9.25839C58.7635 7.02315 57.3928 4.8944 55.8275 2.90502ZM38.8251 10.8796C39.8288 10.2589 40.9036 9.77971 41.9936 9.3333C40.4365 10.8959 38.6812 12.2456 36.7709 13.3565C36.7406 13.2804 36.7169 13.2033 36.7119 13.1171C36.6869 12.6648 37.0317 12.273 37.3323 11.9793C37.7727 11.5548 38.3058 11.2036 38.8243 10.8837L38.8251 10.8796ZM19.4831 2.42233C18.9616 3.1061 18.2662 3.62852 17.4502 3.91034C17.079 4.03702 16.5941 4.1908 16.2 4.07866C15.9211 3.99935 15.7681 3.78445 15.9287 3.52131C16.1055 3.22931 16.4465 3.03714 16.7361 2.87983C17.0853 2.68925 17.4704 2.55672 17.8576 2.46935C18.3937 2.34887 18.9449 2.33997 19.4831 2.42233ZM17.0643 1.06983C17.7298 0.997701 18.3671 1.15245 18.9175 1.47372C17.7785 1.44824 16.6152 1.77609 15.7295 2.46002C15.6798 2.49733 15.631 2.54119 15.5847 2.58341C15.5112 2.53302 15.4231 2.50328 15.3116 2.50736C15.2837 2.50839 15.2557 2.49873 15.2199 2.45135C15.1767 2.39828 15.1523 2.33604 15.1492 2.26297C15.1448 2.07246 15.3297 1.86089 15.4778 1.73171C15.9113 1.3549 16.498 1.12482 17.0651 1.06572L17.0643 1.06983Z" fill="url(#paint0_linear_297_746)"/>
<defs>
<linearGradient id="paint0_linear_297_746" x1="22.0321" y1="56.6365" x2="146.123" y2="-27.6341" gradientUnits="userSpaceOnUse">
<stop stop-color="#C08D58"/>
<stop offset="1" stop-color="#FEF1BA"/>
</linearGradient>
</defs>
</svg>
