<svg width="632" height="498" viewBox="0 0 632 498" fill="none" xmlns="http://www.w3.org/2000/svg">
<path d="M414.356 496.344C414.32 496.304 414.395 496.374 414.356 496.344C414.344 496.331 414.369 496.357 414.356 496.344C414.163 496.124 414.78 495.579 414.585 495.368C414.563 495.332 414.622 495.408 414.585 495.368C408.671 488.72 399.523 483.312 392.969 476.914C386.295 469.789 381.534 461.561 375.39 454.262C357.096 431.911 336.26 410.404 309.021 392.368C308.994 392.351 309.047 392.384 309.021 392.368C308.793 392.232 309.249 392.504 309.021 392.368C308.967 392.335 309.074 392.401 309.021 392.368C285.713 378.878 258.942 369.314 235.023 356.473C229.252 353.121 222.18 348.859 218.048 344.255C218.036 344.242 218.048 344.255 218.048 344.255C212.972 338.596 211.217 333.008 206.787 327.202C200.915 320.697 191.804 314.99 186.846 308.112C178.003 296.164 174.741 283.072 168.133 270.784C229.438 334.432 307.528 394.258 401.596 433.652C401.427 433.592 401.751 433.709 401.596 433.652C401.497 433.619 401.696 433.686 401.596 433.652C410.869 437.908 418.965 442.638 427.251 447.908C429.767 449.497 432.745 451.276 435.244 452.871C475.936 478.523 541.298 501.492 588.361 489.839C588.329 489.842 588.392 489.836 588.361 489.839C591.924 489.182 595.811 488.901 599.403 488.313C599.276 488.335 599.531 488.292 599.403 488.313C604.107 487.678 607.537 486.991 612.121 486.152C612.073 486.161 612.169 486.143 612.121 486.152C612.811 486.015 614.556 485.983 615.244 485.856C615.116 485.877 613.924 485.495 613.797 485.516C615.34 485.127 618.389 485.06 620.041 484.923C619.964 484.926 618.672 484.581 618.595 484.584C619.167 484.553 620.913 485.303 621.488 485.263C621.411 485.265 620.118 484.921 620.041 484.923C624.127 484.513 640.304 488.167 626.515 483.355C626.486 483.348 626.558 483.365 626.515 483.355C626.244 483.271 625.339 483.1 625.068 483.015C625.054 483.012 625.083 483.019 625.068 483.015C624.43 482.804 624.269 482.848 623.622 482.676C623.607 482.672 623.622 482.676 623.622 482.676C623.564 482.662 623.677 482.699 623.622 482.676C611.373 479.832 599.092 480.541 587.299 481.355C568.459 479.764 550.029 477.106 531.639 471.379C503.901 462.244 479.89 446.49 449.794 442.906C449.34 442.82 448.801 442.652 448.347 442.566C448.318 442.56 448.362 442.57 448.347 442.566C400.203 431.606 357.504 409.524 318.315 385.286C353.54 392.483 388.8 397.166 422.245 410.709C458.763 426.661 496.684 431.866 535.771 434.267C538.198 434.085 557.229 434.455 550.165 431.469C488.933 415.183 465.648 374.318 391.043 374.566C390.845 374.561 389.794 374.232 389.596 374.226C389.582 374.223 389.596 374.226 389.596 374.226C389.505 374.226 389.688 374.227 389.596 374.226C389.49 374.222 389.702 374.231 389.596 374.226C373.302 374.746 358.22 374.549 342.991 377.697C335.562 378.61 327.608 378.255 319.917 378.457C319.626 378.461 320.206 378.463 319.917 378.457C318.591 378.444 318.122 378.767 316.795 378.754C316.675 378.746 316.916 378.761 316.795 378.754C316.506 378.748 315.637 378.42 315.348 378.414C315.5 378.419 316.643 378.749 316.795 378.754C298.245 379.444 264.612 348.67 249.957 338.364C199.951 297.761 154.777 254.925 121.944 207.451C157.899 248.462 211.062 260.6 258.054 290.86C258.016 290.83 258.093 290.89 258.054 290.86C257.882 290.748 258.227 290.973 258.054 290.86C258.028 290.844 258.081 290.877 258.054 290.86C258.241 290.976 259.314 291.084 259.501 291.2C259.567 291.246 259.204 292.139 259.272 292.175C259.165 292.109 258.161 290.926 258.054 290.86C268.852 298.325 282.505 304.05 294.825 309.783C307.107 316.454 319.422 322.792 333.499 327.094C355.776 333.97 379.595 334.949 401.492 343.053C401.451 343.033 401.548 343.076 401.492 343.053C429.991 353.119 414.943 347.23 401.19 337.836C385.126 325.459 370.754 311.622 353.617 299.909C353.512 299.833 353.707 299.982 353.617 299.909C353.602 299.906 353.617 299.909 353.617 299.909C353.51 299.843 353.721 299.985 353.617 299.909C353.59 299.893 353.646 299.916 353.617 299.909C323.093 280.628 293.326 256.721 252.361 256.588C229.606 256.569 206.343 257.707 184.441 246.822C184.359 246.782 184.526 246.852 184.441 246.822C184.427 246.818 184.456 246.825 184.441 246.822C183.969 246.618 183.469 246.676 182.995 246.482C182.869 246.432 183.121 246.532 182.995 246.482C182.719 246.356 183.273 246.599 182.995 246.482C182.951 246.472 183.038 246.492 182.995 246.482C178.489 243.994 173.977 240.908 169.673 238.209C169.488 238.084 169.874 238.329 169.673 238.209C169.353 238.011 169.991 238.418 169.673 238.209C169.607 238.163 169.739 238.255 169.673 238.209C169.486 238.093 168.428 237.989 168.226 237.87C168.255 237.876 169.644 238.202 169.673 238.209C147.038 224.393 129.163 206.801 112.358 189.762C112.434 189.831 113.729 190.033 113.805 190.102C98.4383 174.883 89.7604 156.249 81.4684 139.283C81.4462 139.247 81.4905 139.319 81.4684 139.283C81.4013 139.113 81.5499 139.457 81.4684 139.283C81.4066 139.156 81.5301 139.411 81.4684 139.283C64.9627 99.481 51.1314 59.9991 46.8835 20.0061C44.2733 14.1947 46.7377 6.55123 42.096 1.38509C39.1394 -0.801558 35.1889 1.73969 35.3935 3.92898C35.4347 3.75335 35.5957 3.13249 35.6224 2.95346C35.5705 3.23982 35.4309 3.63922 35.3935 3.92898C35.4026 3.88995 35.3843 3.96801 35.3935 3.92898C35.2682 4.72315 34.7932 5.05391 34.9356 5.88001C34.9203 5.81467 34.9508 5.94536 34.9356 5.88001C35.9655 13.0191 38.1268 20.2962 39.0362 27.4276C39.0058 27.2969 39.0522 27.5549 39.0362 27.4276C41.3181 44.1463 50.5816 61.4852 45.6348 77.3514C45.5837 77.5041 45.6714 77.1953 45.6348 77.3514C39.5133 104.019 14.2677 122.908 3.18251 147.669C-4.01485 164.788 3.33333 183.952 11.7586 202.174C18.8274 231.711 42.9597 258.239 65.6285 284.808C91.1955 312.118 105.992 341.385 115.46 371.639C116.733 376.571 119.77 382.212 119.488 386.994C119.444 387.118 118.129 386.542 118.041 386.655C117.681 387.085 118.802 388.357 119.259 387.97C119.236 388.005 119.297 387.938 119.259 387.97C119.304 387.908 119.445 387.046 119.488 386.994C119.467 387.02 119.509 386.968 119.488 386.994C128.463 362.695 134.252 336.213 125.545 309.163C125.58 309.274 125.283 310.018 125.316 310.139C119.919 290.867 110.369 272.257 102.045 253.214C101.987 253.067 102.102 253.361 102.045 253.214C85.4106 214.154 58.8535 176.624 40.5769 137.92C38.3272 117.873 47.4397 98.9302 51.1925 79.6851C51.3153 79.2919 51.2963 79.1126 51.4214 78.7096C63.6475 113.431 73.8331 147.819 97.5899 181.15C97.5578 181.091 97.6219 181.209 97.5899 181.15C97.6318 181.231 97.3167 182.053 97.3609 182.125C110.532 203.572 125.55 225.308 143.55 245.458C143.46 245.386 142.191 245.201 142.103 245.119C148.36 251.806 155.181 258.747 160.14 265.82C168.541 283.234 175.706 300.461 176.865 318.121C178.5 336.489 189.369 355.471 200.594 373.095C222.758 408.717 272.33 429.515 316.91 449.799C348.653 465.774 380.049 482.249 412.681 496.98C413.219 497.291 414.961 497.927 415.574 497.659C416.113 497.25 414.742 496.784 414.356 496.344ZM605.117 483.479C599.411 484.734 593.447 485.567 587.601 486.573C587.519 486.595 587.68 486.56 587.601 486.573C585.693 486.887 583.22 486.779 581.356 487.165C581.34 487.172 581.356 487.165 581.356 487.165C581.342 487.162 581.371 487.169 581.356 487.165C547.052 494.865 509.718 481.633 475.594 469.547C459.121 463.21 445.118 454.408 430.831 445.66C437.905 448.473 444.559 452.484 451.386 455.631C470.92 464.426 489.869 474.143 511.761 478.035C511.746 478.032 511.775 478.039 511.761 478.035C513.88 478.45 517.1 478.362 519.223 478.758C519.165 478.744 519.281 478.771 519.223 478.758C519.018 478.72 519.426 478.805 519.223 478.758C533.862 480.989 548.963 485.142 563.539 485.042C563.462 485.044 563.601 485.036 563.539 485.042C563.387 485.037 563.69 485.047 563.539 485.042C563.493 485.041 563.584 485.042 563.539 485.042C564.287 485.043 564.236 485.381 564.985 485.381C564.817 485.383 565.154 485.38 564.985 485.381C567.728 485.418 569.929 485.111 572.676 485.128C572.633 485.118 572.72 485.138 572.676 485.128C572.843 485.136 573.955 485.469 574.123 485.468C574.094 485.461 572.708 485.125 572.676 485.128C576.27 485.189 579.912 484.583 583.49 484.578C583.398 484.577 583.579 484.589 583.49 484.578C583.642 484.583 584.77 484.91 584.937 484.918C584.908 484.911 584.968 484.915 584.937 484.918C592.218 485.35 598.328 484.336 605.117 483.479ZM476.594 452.284C505.751 465.078 535.462 479.987 568.794 482.158C551.391 482.717 533.023 477.951 515.57 474.812C507.231 473.154 499.103 471.02 491.206 468.065C491.443 468.161 492.413 468.317 492.652 468.404C469.967 460.012 448.226 448.694 426.19 439.424C426.711 439.547 428.545 439.987 429.083 440.103C444.871 445.518 460.89 446.838 476.594 452.284ZM346.644 381.643C346.853 381.599 347.87 382.012 348.091 381.982C347.819 382.032 346.916 381.593 346.644 381.643C346.644 381.643 346.63 381.639 346.644 381.643C346.596 381.652 346.463 382.609 346.415 382.618C346.511 382.599 346.548 381.661 346.644 381.643ZM343.293 382.914C387.772 374.391 445.103 378.461 484.233 406.731C494.93 413.123 507.058 418.202 518.338 423.999C514.693 423.185 510.175 423.102 506.536 422.259C506.377 422.221 506.695 422.296 506.536 422.259C504.769 421.844 503.951 421.642 502.196 421.24C502.124 421.223 502.269 421.257 502.196 421.24C485.791 417.544 468.292 415.506 453.468 407.744C453.424 407.734 453.511 407.755 453.468 407.744C418.957 390.276 381.311 385.702 343.293 382.914C343.512 382.894 343.086 382.948 343.293 382.914ZM451.334 410.331C475.295 422.472 503.977 421.421 529.225 429.642C506.415 426.337 483.766 426.682 461.305 419.876C421.036 405.905 380.826 391.054 338.037 385.798C376.53 389.037 415.835 393.62 451.334 410.331ZM364.566 331.298C364.508 331.285 364.566 331.298 364.566 331.298C364.435 331.268 364.699 331.319 364.566 331.298C340.61 327.992 317.945 319.493 298.405 307.536C285.2 301.276 271.696 296.42 260.188 288.273C260.028 288.174 258.887 288.03 258.741 287.934C258.821 287.983 260.093 288.22 260.188 288.273C257.167 286.36 254.017 283.892 250.977 281.994C250.883 281.941 251.074 282.038 250.977 281.994C250.897 281.945 251.072 282.047 250.977 281.994C256.096 283.824 261.33 285.844 266.433 287.68C290.046 296.157 313.572 304.085 336.705 313.437C336.48 313.354 336.93 313.521 336.705 313.437C353.84 320.012 370.583 327.141 386.495 335.416C379.65 333.449 371.537 332.595 364.566 331.298ZM383.757 327.569C383.704 327.536 383.757 327.569 383.757 327.569C383.704 327.536 383.796 327.598 383.757 327.569C383.757 327.569 383.745 327.556 383.757 327.569ZM279.39 264.99C293.385 268.079 305.45 275.099 316.618 281.962C340.973 295.029 361.746 310.451 382.54 326.254C382.513 326.237 382.566 326.27 382.54 326.254C382.513 326.237 382.581 326.274 382.54 326.254C382.525 326.25 382.54 326.254 382.54 326.254C387.051 329.371 391.339 333.084 395.404 336.478C337.859 304.935 270.428 287.972 210.325 260.102C211.228 260.293 212.319 260.642 213.218 260.781C235.624 263.723 256.483 258.842 279.39 264.99ZM46.1971 165.999C46.1163 165.888 44.8313 165.771 44.7505 165.66C47.3535 169.874 49.5298 174.603 52.3585 178.767C52.3631 178.748 52.3684 178.79 52.3585 178.767C56.54 185.504 63.6007 191.965 67.5016 198.79C67.4231 198.668 66.3647 197.586 66.2839 197.475C67.3464 199.134 68.4142 201.721 69.479 203.371C69.4691 203.348 69.7179 202.418 69.708 202.395C70.5205 203.688 70.8584 205.681 71.6855 206.977C71.607 206.855 72.0074 206.126 71.9144 206.001C72.6927 207.244 73.3258 208.37 74.1209 209.607C74.0423 209.485 74.1971 209.738 74.1209 209.607C74.5454 210.272 74.685 211.231 75.1096 211.897C75.0532 211.812 75.1805 211.986 75.1096 211.897C97.4522 252.75 118.792 293.624 123.932 335.545C123.937 335.526 123.942 335.568 123.932 335.545C123.926 335.441 123.938 335.65 123.932 335.545C123.929 335.493 123.935 335.597 123.932 335.545C123.767 344.391 122.986 353.159 122.319 361.927C122.241 361.086 122.869 360.821 122.777 359.976C121.124 346.895 116.812 333.094 110.766 320.104C110.747 320.058 110.786 320.15 110.766 320.104C110.756 320.081 110.776 320.127 110.766 320.104C110.46 319.456 110.098 318.465 109.778 317.813C109.785 317.846 109.541 318.756 109.549 318.789C108.774 317.207 108.59 314.818 107.8 313.232C107.862 313.36 107.495 314.077 107.571 314.208C101.488 300.334 92.3015 287.571 84.9762 273.91C84.9266 273.795 85.028 274.015 84.9762 273.91C84.9045 273.759 85.2913 273.088 85.2051 272.934C85.2272 272.97 84.9686 273.877 84.9762 273.91C84.8801 273.733 85.3012 273.111 85.2051 272.934C85.1731 272.875 85.2372 272.993 85.2051 272.934C85.1434 272.807 85.2646 273.072 85.2051 272.934C85.1731 272.875 85.2349 273.003 85.2051 272.934C85.1655 272.843 85.2593 273.029 85.2051 272.934C85.193 272.921 85.2029 272.944 85.2051 272.934C85.1434 272.807 83.8347 272.726 83.7585 272.595C83.8423 272.759 85.1358 272.774 85.2051 272.934C69.2642 237.434 58.5022 201.305 44.7505 165.66C44.8732 165.853 46.0744 165.806 46.1971 165.999ZM52.3481 198.321C59.4973 223.738 69.1965 249.668 80.1783 274.842C89.2851 290.682 100.204 305.209 107.415 321.376C107.385 321.307 107.445 321.445 107.415 321.376C107.477 321.504 108.571 322.563 108.633 322.691C108.611 322.655 107.437 321.412 107.415 321.376C114.91 337.506 118.419 354.514 120.258 370.707C120.171 370.295 120.574 370.143 120.487 369.731C110.401 339.569 93.1621 309.461 67.7621 282.221C67.8817 282.362 68.8601 283.394 68.9798 283.536C60.598 274.311 53.5962 263.561 45.3128 254.308C45.447 254.453 44.9665 255.132 45.0838 255.283C21.6206 228.127 13.1382 197.162 6.06548 167.902C3.54208 144.528 22.3809 126.736 38.079 109.543C26.4408 137.963 40.9192 168.214 52.3481 198.321ZM294.325 389.948C336.15 411.747 362.27 444.292 385.735 475.217C333.207 437.151 279.134 399.429 229.767 359.356C251.089 369.652 273.222 379.374 294.325 389.948ZM199.782 324.529C207.09 330.125 209.986 336.495 213.708 343.236C207.654 336.143 201.889 329.584 195.671 322.535C196.703 323.22 198.753 323.834 199.782 324.529ZM354.825 463.845C354.239 463.604 353.964 463.745 353.378 463.505C307.855 439.684 253.772 422.387 219.776 388.918C202.87 370.682 191.111 349.381 184.931 329.277C184.849 328.455 185.485 328.152 185.389 327.326C185.386 327.274 185.392 327.378 185.389 327.326C185.303 323.198 183.808 318.722 183.796 314.601C184.033 315.027 184.747 315.493 185.014 315.916C209.569 352.553 251.131 383.213 292.181 412.088C323.444 433.89 351.199 456.826 383.602 477.804C373.887 473.217 364.85 467.958 354.825 463.845Z" fill="url(#paint0_linear_62_11307)"/>
<defs>
<linearGradient id="paint0_linear_62_11307" x1="372.63" y1="78.6027" x2="281.6" y2="466.445" gradientUnits="userSpaceOnUse">
<stop stop-color="#FFEE93"/>
<stop offset="1" stop-color="#FEF6E3"/>
</linearGradient>
</defs>
</svg>
