<svg width="132" height="128" viewBox="0 0 132 128" fill="none" xmlns="http://www.w3.org/2000/svg">
<path fill-rule="evenodd" clip-rule="evenodd" d="M66 111C95.7425 111 120 88.5418 120 60.9946C120 33.4474 95.7542 11 66 11C36.2458 11 12 33.4582 12 60.9946C12 88.531 36.2575 111 66 111Z" fill="url(#paint0_linear_91_34372)"/>
<path fill-rule="evenodd" clip-rule="evenodd" d="M77.3455 39.1085C77.3455 38.4999 76.5819 38 75.6607 38C74.7395 38 73.988 38.5108 74.0001 39.1194L74.6547 111C75.7819 110.837 76.897 110.652 78 110.435L77.3455 39.1085Z" fill="white"/>
<path fill-rule="evenodd" clip-rule="evenodd" d="M98.4187 39.9159C99.301 39.9159 100 39.4766 100 38.9533C100 38.4206 99.2781 38 98.4072 38L75.57 38.0841C74.6991 38.0841 73.9887 38.5234 74.0001 39.0467C74.0001 39.5701 74.722 40 75.5929 40L98.4187 39.9159Z" fill="white"/>
<path fill-rule="evenodd" clip-rule="evenodd" d="M99.4187 91.9159C100.301 91.9159 101 91.486 101 90.9533C101 90.4206 100.278 90 99.4072 90L76.5813 90.0841C75.699 90.0841 75 90.514 75 91.0467C75 91.5794 75.7219 92 76.5928 92L99.4187 91.9159Z" fill="white"/>
<path fill-rule="evenodd" clip-rule="evenodd" d="M99.205 87.9189C99.6428 87.9189 100 87.7117 100 87.4595C100 87.2072 99.6428 87 99.1935 87L76.795 87.0721C76.3572 87.0721 76 87.2793 76 87.5405C76 87.7928 76.3572 88 76.8065 88L99.205 87.9189Z" fill="white"/>
<path fill-rule="evenodd" clip-rule="evenodd" d="M99.2046 84.9279C99.6426 84.9279 100 84.7207 100 84.4595C100 84.2072 99.6426 84 99.1931 84L76.7954 84.0811C76.3573 84.0811 76 84.2883 76 84.5405C76 84.8018 76.3689 85 76.8069 85L99.2161 84.9189L99.2046 84.9279Z" fill="white"/>
<path fill-rule="evenodd" clip-rule="evenodd" d="M99.205 82.9279C99.6428 82.9279 100 82.7207 100 82.4595C100 82.2072 99.6428 82 99.1935 82L76.795 82.0721C76.3572 82.0721 76 82.2883 76 82.5405C76 82.7928 76.3687 83 76.8065 83L99.205 82.9189V82.9279Z" fill="white"/>
<path fill-rule="evenodd" clip-rule="evenodd" d="M98.205 79.9279C98.6543 79.9279 99 79.7207 99 79.4595C99 79.2072 98.6313 79 98.1935 79L75.795 79.0811C75.3572 79.0811 75 79.2883 75 79.5405C75 79.7928 75.3687 80 75.8065 80L98.205 79.9189V79.9279Z" fill="white"/>
<path fill-rule="evenodd" clip-rule="evenodd" d="M98.205 76.9107C98.6428 76.9107 99 76.7054 99 76.4554C99 76.2054 98.6428 76 98.1935 76L75.795 76.0804C75.3572 76.0804 75 76.2857 75 76.5446C75 76.7946 75.3687 77 75.8065 77L98.205 76.9196V76.9107Z" fill="white"/>
<path fill-rule="evenodd" clip-rule="evenodd" d="M98.205 73.9196C98.6428 73.9196 99 73.7143 99 73.4554C99 73.2054 98.6428 73 98.1935 73L75.795 73.0804C75.3572 73.0804 75 73.2857 75 73.5446C75 73.7946 75.3572 74 75.795 74L98.1935 73.9196H98.205Z" fill="white"/>
<path fill-rule="evenodd" clip-rule="evenodd" d="M98.205 70.9189C98.6428 70.9189 99 70.7117 99 70.4595C99 70.2072 98.6428 70 98.1935 70L75.795 70.0811C75.3572 70.0811 75 70.2883 75 70.5405C75 70.7928 75.3572 71 75.8065 71L98.205 70.9189Z" fill="white"/>
<path fill-rule="evenodd" clip-rule="evenodd" d="M98.2046 68.9279C98.6427 68.9279 99 68.7117 99 68.4595C99 68.1982 98.6427 68 98.2046 68L75.7954 68.0811C75.3574 68.0811 75 68.2883 75 68.5405C75 68.7928 75.3574 69 75.8069 69L98.2161 68.9189L98.2046 68.9279Z" fill="white"/>
<path fill-rule="evenodd" clip-rule="evenodd" d="M98.2159 65.9189C98.6539 65.9189 99.0113 65.7117 98.9997 65.4595C98.9997 65.1982 98.6424 65 98.2043 65L75.7954 65.0811C75.3573 65.0811 75 65.2883 75 65.5405C75 65.7928 75.3689 66 75.8069 66L98.2159 65.9189Z" fill="white"/>
<path fill-rule="evenodd" clip-rule="evenodd" d="M98.205 62.9279C98.6428 62.9279 99 62.7117 99 62.4595C99 62.1982 98.6313 62 98.1935 62L75.795 62.0811C75.3456 62.0811 75 62.2883 75 62.5405C75 62.7928 75.3572 63 75.8065 63L98.205 62.9279Z" fill="white"/>
<path fill-rule="evenodd" clip-rule="evenodd" d="M98.205 59.9189C98.6428 59.9189 99 59.7117 99 59.4595C99 59.1982 98.6313 59 98.1935 59L75.795 59.0811C75.3572 59.0811 75 59.2883 75 59.5405C75 59.8018 75.3572 60 75.8065 60L98.205 59.9189Z" fill="white"/>
<path fill-rule="evenodd" clip-rule="evenodd" d="M98.205 56.9189C98.6428 56.9189 99 56.7117 99 56.4595C99 56.2072 98.6428 56 98.1935 56L75.795 56.0811C75.3572 56.0811 75 56.2883 75 56.5405C75 56.8018 75.3572 57 75.795 57L98.1935 56.9189H98.205Z" fill="white"/>
<path fill-rule="evenodd" clip-rule="evenodd" d="M98.205 53.9189C98.6428 53.9189 99 53.7117 99 53.4595C99 53.1982 98.6428 53 98.1935 53L75.795 53.0721C75.3572 53.0721 75 53.2883 75 53.5405C75 53.8018 75.3572 54 75.8065 54L98.205 53.9189Z" fill="white"/>
<path fill-rule="evenodd" clip-rule="evenodd" d="M98.205 51.9279C98.6428 51.9279 99 51.7207 99 51.4595C99 51.2072 98.6313 51 98.1935 51L75.795 51.0811C75.3572 51.0811 75 51.2883 75 51.5405C75 51.7928 75.3687 52 75.8065 52L98.205 51.9189V51.9279Z" fill="white"/>
<path fill-rule="evenodd" clip-rule="evenodd" d="M98.205 48.9189C98.6428 48.9189 99 48.7117 99 48.4595C99 48.2072 98.6313 48 98.1935 48L75.795 48.0721C75.3572 48.0721 75 48.2883 75 48.5405C75 48.7928 75.3687 49 75.8065 49L98.205 48.9189Z" fill="white"/>
<path fill-rule="evenodd" clip-rule="evenodd" d="M98.205 45.9196C98.6543 45.9196 99 45.7143 99 45.4554C99 45.2054 98.6313 45 98.1935 45L75.795 45.0804C75.3457 45.0804 75 45.2946 75 45.5446C75 45.7946 75.3687 46 75.8065 46L98.205 45.9196Z" fill="white"/>
<path fill-rule="evenodd" clip-rule="evenodd" d="M98.205 42.9107C98.6428 42.9107 99 42.7054 99 42.4554C99 42.2054 98.6428 42 98.1935 42L75.795 42.0804C75.3572 42.0804 75 42.2857 75 42.5446C75 42.8036 75.3572 43 75.795 43L98.1935 42.9196L98.205 42.9107Z" fill="white"/>
<path fill-rule="evenodd" clip-rule="evenodd" d="M35 101.989C58.2757 43.3261 67.4209 20.2283 71 11.1739C69.8147 11.0761 68.6178 11.0217 67.4093 11C64.051 17.5435 58.6475 27.2283 54.836 29.8804C48.9212 33.9783 46.4926 35.1739 46.4926 35.1739L35.0116 102L35 101.989ZM51.7334 39.7065C53.5578 39.7065 55.0452 41.087 55.0452 42.8043C55.0452 44.5217 53.5578 45.9022 51.7334 45.9022C49.909 45.9022 48.4216 44.5217 48.4216 42.8043C48.4216 41.087 49.909 39.7065 51.7334 39.7065Z" fill="white"/>
<path fill-rule="evenodd" clip-rule="evenodd" d="M69 101.989C50.877 57.0572 41.1746 33.0278 36 20.1963C37.2349 19.4173 38.4932 18.6816 39.7986 18C42.8211 23.2148 46.2787 28.3972 48.9248 30.2148C54.9109 34.2937 57.3806 35.4838 57.3806 35.4838L69 102V101.989ZM51.9825 39.9954C50.1361 39.9954 48.6308 41.3694 48.6308 43.0788C48.6308 44.7883 50.1361 46.1623 51.9825 46.1623C53.8289 46.1623 55.3343 44.7883 55.3343 43.0788C55.3343 41.3694 53.8289 39.9954 51.9825 39.9954Z" fill="white"/>
<path fill-rule="evenodd" clip-rule="evenodd" d="M65.9942 6.89467C49.8254 6.89467 35.1977 12.9585 24.5975 22.7448C14.009 32.542 7.44813 46.0616 7.44813 61.0054C7.44813 75.9492 13.9973 89.4688 24.5975 99.2659C35.186 109.063 49.8254 115.116 65.9942 115.116C82.1629 115.116 96.7907 109.063 107.391 99.2659C117.991 89.4796 124.54 75.9492 124.54 61.0054C124.54 46.0616 117.991 32.542 107.391 22.7448C96.8023 12.9585 82.1629 6.89467 65.9942 6.89467ZM19.3324 17.8679C31.2751 6.82993 47.7708 0 65.9942 0C84.2176 0 100.713 6.82993 112.668 17.8679C124.61 28.9058 132 44.1626 132 60.9946C132 77.8267 124.61 93.0942 112.668 104.132C100.725 115.17 84.2176 122 65.9942 122C47.7708 122 31.2751 115.17 19.3324 104.132C7.38976 93.0942 0 77.8374 0 60.9946C0 44.1518 7.38976 28.9058 19.3324 17.8679Z" fill="#352D25"/>
<defs>
<linearGradient id="paint0_linear_91_34372" x1="66" y1="11" x2="66" y2="111" gradientUnits="userSpaceOnUse">
<stop stop-color="#C08D58"/>
<stop offset="1" stop-color="#FEF1BA"/>
</linearGradient>
</defs>
</svg>
