<svg width="39" height="40" viewBox="0 0 39 40" fill="none" xmlns="http://www.w3.org/2000/svg">
<path d="M34.4271 3.895C33.4332 2.98105 29.4107 0.067358 20.4423 0.0283004C20.4423 0.0283004 9.8695 -0.604433 4.72007 4.11372C1.85579 6.97274 0.846255 11.1675 0.736692 16.3622C0.62713 21.5568 0.49409 31.29 9.89297 33.9303H9.9008L9.89297 37.961C9.89297 37.961 9.83037 39.5936 10.9103 39.9217C12.2094 40.3279 12.9764 39.0859 14.2207 37.7501C14.9015 37.0158 15.8406 35.9379 16.5528 35.1176C22.9857 35.6566 27.9238 34.4224 28.4873 34.2428C29.7864 33.8209 37.1349 32.8835 38.3244 23.1504C39.5609 13.1048 37.7296 6.76183 34.4271 3.895ZM35.5149 22.4161C34.5054 30.5401 28.5499 31.0557 27.4543 31.4072C26.9847 31.5556 22.6413 32.6336 17.1867 32.2821C17.1867 32.2821 13.1172 37.1799 11.8494 38.4532C11.4347 38.8672 10.9808 38.8281 10.9886 38.0079C10.9886 37.4689 11.0199 31.3134 11.0199 31.3134C11.0121 31.3134 11.0121 31.3134 11.0199 31.3134C3.05315 29.1106 3.52271 20.8226 3.60879 16.4872C3.69488 12.1518 4.51659 8.59754 6.94262 6.20721C11.3016 2.26239 20.2779 2.84826 20.2779 2.84826C27.8612 2.8795 31.4924 5.16047 32.3376 5.926C35.1314 8.31632 36.5558 14.0344 35.5149 22.4161ZM24.6369 16.1044C24.6682 16.7762 23.6587 16.8231 23.6274 16.1513C23.5413 14.4327 22.7352 13.5969 21.0762 13.5032C20.4031 13.4641 20.4657 12.4564 21.1309 12.4955C23.3144 12.6127 24.5274 13.8625 24.6369 16.1044ZM26.2256 16.9871C26.3038 13.675 24.23 11.0816 20.2936 10.7926C19.6284 10.7457 19.6988 9.73802 20.364 9.78489C24.903 10.113 27.3212 13.2298 27.2351 17.0105C27.2273 17.6823 26.2099 17.6511 26.2256 16.9871ZM29.9038 18.0339C29.9116 18.7056 28.8942 18.7135 28.8942 18.0417C28.8473 11.6753 24.5978 8.20696 19.4405 8.1679C18.7753 8.16009 18.7753 7.16022 19.4405 7.16022C25.2082 7.19927 29.849 11.1753 29.9038 18.0339ZM29.0194 25.697V25.7126C28.1742 27.1968 26.5934 28.8372 24.9656 28.3138L24.95 28.2904C23.2987 27.8295 19.4092 25.8297 16.9519 23.8769C15.6841 22.877 14.5259 21.6975 13.6337 20.5648C12.8277 19.5571 12.0138 18.3619 11.2234 16.9246C9.55646 13.9172 9.18864 12.5736 9.18864 12.5736C8.66431 10.9488 10.2999 9.37088 11.7947 8.52723H11.8103C12.5303 8.15228 13.219 8.27726 13.6807 8.83188C13.6807 8.83188 14.6511 9.98799 15.0659 10.5582C15.4572 11.0894 15.9815 11.9409 16.2554 12.4174C16.7328 13.2688 16.4354 14.1359 15.9659 14.4952L15.0268 15.2451C14.5494 15.6279 14.612 16.3388 14.612 16.3388C14.612 16.3388 16.005 21.5959 21.2092 22.9239C21.2092 22.9239 21.9214 22.9864 22.3048 22.5099L23.0561 21.5725C23.4161 21.1038 24.2848 20.8069 25.1378 21.2834C26.2882 21.9318 27.7516 22.9395 28.722 23.8534C29.2699 24.2987 29.3951 24.9783 29.0194 25.697Z" fill="#7360F2"/>
</svg>
