<svg width="200" height="29" viewBox="0 0 200 29" fill="none" xmlns="http://www.w3.org/2000/svg">
<g clip-path="url(#clip0_642_68600)">
<path d="M12.1212 7.50814C12.1212 8.14317 12.0542 8.83506 11.9155 9.58383C11.7767 10.3231 11.59 11.0908 11.346 11.8775C11.1019 12.6594 10.81 13.4509 10.4655 14.247C10.121 15.0384 9.7477 15.7967 9.33616 16.5312C8.92462 17.261 8.48438 17.9435 8.0202 18.5785C7.56081 19.2135 7.07749 19.768 6.57982 20.2371C6.08693 20.7063 5.58447 21.0759 5.07723 21.3461C4.5652 21.6114 4.06274 21.7441 3.56506 21.7441C3.24923 21.7441 2.93819 21.6873 2.6415 21.5688C2.34959 21.4598 2.0864 21.2987 1.8567 21.0854C1.63179 20.8674 1.44995 20.6115 1.31596 20.3082C1.17719 20.0002 1.11019 19.6495 1.11019 19.2609C1.11019 18.9197 1.16283 18.5358 1.26811 18.1046C1.37339 17.6686 1.51216 17.1994 1.67965 16.7066C1.85192 16.2137 2.04812 15.7019 2.26824 15.1711C2.49315 14.6356 2.71806 14.0954 2.95254 13.5504C3.18702 13.0007 3.41672 12.4604 3.63684 11.9296C3.86175 11.3989 4.05795 10.8918 4.22544 10.4037C4.39771 9.91556 4.54127 9.46061 4.64655 9.04358C4.75182 8.61707 4.80446 8.24268 4.80446 7.91569C4.80446 7.76878 4.79011 7.62661 4.75661 7.49866C4.73268 7.36123 4.68961 7.24749 4.62741 7.15745C4.5652 7.05793 4.47906 6.98211 4.36421 6.92524C4.25894 6.86837 4.12973 6.83994 3.97182 6.83994C3.70384 6.83994 3.41672 6.92998 3.11046 7.11006C2.81377 7.28066 2.50272 7.55079 2.18689 7.91569C1.87106 8.2806 1.54566 8.74028 1.21547 9.30422C0.89007 9.85869 0.569453 10.5174 0.253622 11.2757L0 11.1098C0.354114 10.252 0.708228 9.5317 1.05756 8.94406C1.41167 8.35168 1.77057 7.87778 2.13425 7.51762C2.49794 7.15271 2.86162 6.89207 3.23009 6.73094C3.59856 6.56981 3.97182 6.48925 4.34986 6.48925C4.91452 6.48925 5.35477 6.6409 5.66582 6.94419C5.98165 7.24749 6.14435 7.66926 6.14435 8.21425C6.14435 8.5365 6.09171 8.91563 5.98644 9.35161C5.88116 9.78287 5.7376 10.252 5.55576 10.7591C5.38349 11.2662 5.1825 11.7969 4.95759 12.3609C4.73268 12.9201 4.50299 13.4888 4.26372 14.0622C4.03403 14.6309 3.80433 15.1901 3.57942 15.7445C3.35451 16.299 3.15353 16.8298 2.97168 17.3274C2.79941 17.8202 2.65585 18.2799 2.55058 18.7064C2.4453 19.1282 2.39266 19.4836 2.39266 19.7822C2.39266 20.0049 2.42616 20.2087 2.48837 20.3935C2.55058 20.5736 2.6415 20.73 2.76113 20.8674C2.88555 21.0049 3.03389 21.1091 3.20138 21.1802C3.36887 21.256 3.56506 21.2892 3.7804 21.2892C4.1728 21.2892 4.57955 21.1707 5.00545 20.929C5.43612 20.6826 5.8668 20.3509 6.29748 19.9291C6.73295 19.5026 7.16363 19.005 7.58952 18.4316C8.01541 17.8581 8.41738 17.2421 8.79542 16.5786C9.18303 15.9199 9.53715 15.228 9.86255 14.5029C10.1879 13.7826 10.4655 13.067 10.7048 12.3562C10.9488 11.6406 11.1354 10.9439 11.2646 10.2662C11.4034 9.58857 11.4704 8.95828 11.4704 8.38012C11.4704 7.9773 11.4417 7.64083 11.3843 7.36123C11.3269 7.07689 11.2646 6.83994 11.1977 6.65038C11.1307 6.46081 11.0684 6.30443 11.011 6.18595C10.9536 6.06748 10.9249 5.9727 10.9249 5.89687C10.9249 5.81631 10.9632 5.73101 11.035 5.63623C11.1115 5.54145 11.2216 5.49879 11.3699 5.49879C11.5183 5.49879 11.6427 5.55566 11.7336 5.67414C11.8341 5.78314 11.9107 5.93478 11.9681 6.12908C12.0303 6.31391 12.0734 6.52716 12.0973 6.76885C12.1212 7.01054 12.1356 7.25697 12.1356 7.50814H12.1212ZM13.8392 9.47957C14.0449 9.46535 14.2411 9.4227 14.4277 9.34214C14.6144 9.26157 14.7819 9.16205 14.9254 9.04832C15.0738 8.92984 15.1934 8.80663 15.2795 8.67867C15.3657 8.54124 15.4087 8.41329 15.4087 8.29008C15.4087 8.20477 15.3848 8.12421 15.3417 8.05786C15.2365 8.05786 15.1408 8.03417 15.0594 7.99152C14.9781 7.94887 14.9111 7.892 14.8536 7.82565C14.7962 7.7593 14.7531 7.67874 14.7244 7.59344C14.7005 7.50814 14.6862 7.4181 14.6862 7.32332C14.6862 7.2238 14.7005 7.12428 14.734 7.0295C14.7723 6.92998 14.8201 6.83994 14.8824 6.75937C14.9493 6.67881 15.0355 6.6172 15.136 6.57455C15.2365 6.52716 15.3513 6.49873 15.4805 6.49873C15.6097 6.49873 15.7341 6.5319 15.8346 6.59351C15.9399 6.65038 16.026 6.7262 16.0978 6.82572C16.1648 6.92524 16.2175 7.03424 16.2462 7.15745C16.2797 7.28066 16.294 7.40862 16.294 7.53657C16.294 7.89674 16.2127 8.21425 16.05 8.49859C15.8921 8.77819 15.6911 9.01514 15.4422 9.20944C15.1982 9.399 14.9254 9.55065 14.6192 9.65491C14.3129 9.75443 14.0162 9.80182 13.7195 9.80182L13.8296 9.47957H13.8392ZM31.6884 6.65511C31.4826 6.71198 31.2769 6.79255 31.0711 6.90628C30.8701 7.01528 30.6787 7.14797 30.4921 7.29488C30.3054 7.43705 30.1284 7.59344 29.9705 7.76878C29.8126 7.93465 29.6786 8.10051 29.5589 8.26638C29.4824 8.37538 29.4106 8.49859 29.334 8.63602C29.2575 8.76398 29.1761 8.92984 29.09 9.12888C29.0038 9.31844 28.9033 9.55539 28.7933 9.83026C28.6832 10.1004 28.5492 10.4368 28.4009 10.8302C28.2573 11.2188 28.0851 11.6785 27.8889 12.2092C27.6974 12.74 27.4725 13.3561 27.2141 14.0622C26.7165 15.4176 26.2092 16.5834 25.6924 17.5501C25.1756 18.5169 24.6253 19.313 24.0462 19.9386C23.4672 20.5546 22.8403 21.0143 22.1656 21.3082C21.5005 21.5972 20.7683 21.7441 19.9691 21.7441C18.8924 21.7441 18.0742 21.5072 17.5095 21.0333C16.9544 20.5499 16.6768 19.8959 16.6768 19.0619C16.6768 18.7491 16.7151 18.4505 16.7869 18.1709C16.8635 17.8913 16.9592 17.6496 17.0836 17.4411C17.208 17.2326 17.3516 17.0667 17.5143 16.9435C17.6818 16.8203 17.8588 16.7587 18.0359 16.7587C18.1986 16.7587 18.3278 16.8013 18.4187 16.8866C18.5144 16.972 18.5575 17.0952 18.5575 17.2563C18.5575 17.3795 18.524 17.4838 18.4618 17.5691C18.4043 17.6544 18.3326 17.7302 18.2369 17.7918C18.1507 17.8487 18.055 17.8961 17.945 17.9387C17.8397 17.9814 17.7344 18.0193 17.6387 18.0477C17.4377 18.1141 17.2989 18.2373 17.2176 18.4174C17.141 18.588 17.1075 18.8154 17.1075 19.095C17.1075 19.4457 17.1649 19.7632 17.2846 20.0476C17.409 20.3272 17.5861 20.5641 17.8158 20.7679C18.0454 20.9669 18.3278 21.1186 18.658 21.2323C18.9882 21.3366 19.3614 21.3887 19.7777 21.3887C20.1941 21.3887 20.553 21.3508 20.8879 21.2797C21.2229 21.2039 21.5339 21.0807 21.8211 20.9101C22.113 20.73 22.3905 20.4978 22.6537 20.2087C22.9169 19.9149 23.1753 19.5452 23.4289 19.1092C23.6921 18.6733 23.9553 18.152 24.2233 17.5548C24.4961 16.9483 24.788 16.2516 25.1038 15.4649C25.3526 14.8299 25.5728 14.2707 25.769 13.7873C25.9604 13.304 26.1326 12.8822 26.281 12.5078C26.4293 12.1382 26.5633 11.8159 26.6734 11.5458C26.793 11.2662 26.8983 11.0245 26.9892 10.816C27.0897 10.6075 27.1806 10.4226 27.2715 10.2615C27.3577 10.1004 27.4486 9.94399 27.5443 9.7876C27.8314 9.3137 28.1664 8.85876 28.554 8.42751C28.9464 7.99626 29.3771 7.62187 29.8461 7.3091C29.4202 7.43705 28.9895 7.54131 28.5492 7.6124C28.1138 7.68822 27.7214 7.72139 27.372 7.72139C27.0419 7.72139 26.7117 7.68822 26.3815 7.62661C26.0561 7.56501 25.745 7.49866 25.4388 7.42284C25.1421 7.34701 24.8597 7.28066 24.5966 7.21906C24.3334 7.15745 24.1085 7.12428 23.9123 7.12428C23.6778 7.12428 23.4481 7.17641 23.228 7.28066C23.0174 7.38018 22.8308 7.52235 22.6681 7.71665C22.5054 7.90148 22.3762 8.12895 22.2852 8.39433C22.1895 8.65498 22.1465 8.94406 22.1465 9.26631C22.1465 9.63596 22.2087 9.95347 22.3331 10.2094L22.0077 10.3942C21.9311 10.252 21.8689 10.0909 21.8211 9.90134C21.778 9.71652 21.7541 9.508 21.7541 9.27105C21.7541 8.8398 21.8354 8.4512 21.9981 8.10525C22.1608 7.75931 22.3857 7.46549 22.6729 7.2238C22.9648 6.98211 23.3045 6.79728 23.6921 6.66933C24.0845 6.54138 24.5104 6.47503 24.9746 6.47503C25.1995 6.47503 25.3909 6.48925 25.5536 6.52242C25.7211 6.54612 25.879 6.57929 26.0321 6.62194C26.1805 6.66459 26.3336 6.71198 26.4915 6.75937C26.6542 6.80202 26.8409 6.84468 27.0514 6.88733C27.262 6.92998 27.5108 6.96789 27.7979 6.99632C28.0851 7.02002 28.4344 7.03424 28.8459 7.03424C29.1378 7.03424 29.4058 7.02002 29.6403 6.99632C29.8748 6.97263 30.1045 6.93946 30.3246 6.8968C30.5447 6.84941 30.7601 6.78781 30.9802 6.72146C31.2003 6.64564 31.4348 6.56507 31.6884 6.47977V6.64564V6.65511ZM43.8001 7.50814C43.8001 8.14317 43.7331 8.83506 43.5943 9.58383C43.4555 10.3231 43.2689 11.0908 43.0248 11.8775C42.7808 12.6594 42.4889 13.4509 42.1443 14.247C41.7998 15.0384 41.4265 15.7967 41.015 16.5312C40.6035 17.261 40.1632 17.9435 39.699 18.5785C39.2396 19.2135 38.7563 19.768 38.2586 20.2371C37.7658 20.7063 37.2633 21.0759 36.7561 21.3461C36.244 21.6114 35.7416 21.7441 35.2439 21.7441C34.9281 21.7441 34.617 21.6873 34.3203 21.5688C34.0284 21.4598 33.7652 21.2987 33.5355 21.0854C33.3106 20.8674 33.1288 20.6115 32.9948 20.3082C32.856 20.0002 32.789 19.6495 32.789 19.2609C32.789 18.9197 32.8417 18.5358 32.9469 18.1046C33.0522 17.6686 33.191 17.1994 33.3585 16.7066C33.5308 16.2137 33.7269 15.7019 33.9471 15.1711C34.172 14.6356 34.3969 14.0954 34.6314 13.5504C34.8659 13.0007 35.0956 12.4604 35.3157 11.9296C35.5406 11.3989 35.7368 10.8918 35.9043 10.4037C36.0765 9.91556 36.2201 9.46061 36.3254 9.04358C36.4307 8.61707 36.4833 8.24268 36.4833 7.91569C36.4833 7.76878 36.4689 7.62661 36.4354 7.49866C36.4115 7.36123 36.3684 7.24749 36.3062 7.15745C36.244 7.05793 36.1579 6.98211 36.043 6.92524C35.9378 6.86837 35.8086 6.83994 35.6506 6.83994C35.3827 6.83994 35.0956 6.92998 34.7893 7.11006C34.4926 7.28066 34.1816 7.55079 33.8657 7.91569C33.5499 8.2806 33.2245 8.74028 32.8943 9.30422C32.5689 9.85869 32.2483 10.5174 31.9325 11.2757L31.6788 11.1098C32.0329 10.252 32.3871 9.5317 32.7364 8.94406C33.0905 8.35168 33.4494 7.87778 33.8131 7.51762C34.1768 7.15271 34.5405 6.89207 34.9089 6.73094C35.2774 6.56981 35.6506 6.48925 36.0287 6.48925C36.5934 6.48925 37.0336 6.6409 37.3447 6.94419C37.6605 7.24749 37.8232 7.66926 37.8232 8.21425C37.8232 8.5365 37.7705 8.91563 37.6653 9.35161C37.56 9.78287 37.4164 10.252 37.2346 10.7591C37.0623 11.2662 36.8613 11.7969 36.6364 12.3609C36.4115 12.9201 36.1818 13.4888 35.9426 14.0622C35.7129 14.6309 35.4832 15.1901 35.2583 15.7445C35.0333 16.299 34.8324 16.8298 34.6505 17.3274C34.4782 17.8202 34.3347 18.2799 34.2294 18.7064C34.1241 19.1282 34.0715 19.4836 34.0715 19.7822C34.0715 20.0049 34.105 20.2087 34.1672 20.3935C34.2294 20.5736 34.3203 20.73 34.44 20.8674C34.5644 21.0049 34.7127 21.1091 34.8802 21.1802C35.0477 21.256 35.2439 21.2892 35.4592 21.2892C35.8516 21.2892 36.2584 21.1707 36.6843 20.929C37.115 20.6826 37.5456 20.3509 37.9763 19.9291C38.4118 19.5026 38.8425 19.005 39.2684 18.4316C39.6942 17.8581 40.0962 17.2421 40.4743 16.5786C40.8619 15.9199 41.216 15.228 41.5414 14.5029C41.8668 13.7826 42.1443 13.067 42.3836 12.3562C42.6276 11.6406 42.8143 10.9439 42.9435 10.2662C43.0823 9.58857 43.1492 8.95828 43.1492 8.38012C43.1492 7.9773 43.1205 7.64083 43.0631 7.36123C43.0057 7.07689 42.9435 6.83994 42.8765 6.65038C42.8095 6.46081 42.7473 6.30443 42.6899 6.18595C42.6324 6.06748 42.6037 5.9727 42.6037 5.89687C42.6037 5.81631 42.642 5.73101 42.7138 5.63623C42.7903 5.54145 42.9004 5.49879 43.0488 5.49879C43.1971 5.49879 43.3215 5.55566 43.4124 5.67414C43.5129 5.78314 43.5895 5.93478 43.6469 6.12908C43.7091 6.31391 43.7522 6.52716 43.7761 6.76885C43.8001 7.01054 43.8144 7.25697 43.8144 7.50814H43.8001ZM44.714 15.9294C44.714 16.0384 44.6805 16.1331 44.6136 16.209C44.5513 16.2753 44.4652 16.3369 44.3599 16.3843C44.2547 16.4317 44.1255 16.4744 43.9771 16.5028C43.8335 16.536 43.6852 16.5597 43.5273 16.5881C43.3981 16.6118 43.2402 16.6734 43.0583 16.7634C42.8765 16.8582 42.7042 16.9956 42.5367 17.1899C42.3692 17.3748 42.2257 17.6212 42.106 17.9292C41.996 18.2325 41.9386 18.6069 41.9386 19.0571C41.9386 19.5073 42.0008 19.9054 42.1252 20.2134C42.2544 20.5167 42.4267 20.7584 42.6372 20.9432C42.8478 21.1281 43.087 21.2608 43.355 21.3413C43.6278 21.4171 43.9101 21.4503 44.1972 21.4503C44.5226 21.4503 44.8289 21.4029 45.1208 21.3129C45.4127 21.2181 45.695 21.0807 45.9726 20.8959C46.2453 20.711 46.5181 20.4741 46.7861 20.1945C47.0541 19.9149 47.3268 19.5784 47.6092 19.1946C47.9537 18.7206 48.2839 18.1994 48.6093 17.6307C48.9395 17.0573 49.2649 16.4601 49.5807 15.8441C49.8965 15.2185 50.2076 14.5882 50.5043 13.9485C50.8105 13.3087 51.1072 12.6784 51.3944 12.0623C51.6863 11.4463 51.9734 10.8539 52.2461 10.2852C52.5285 9.71652 52.7965 9.19997 53.0596 8.7308C53.3324 8.24268 53.5812 7.84935 53.7966 7.55553C54.0215 7.25223 54.2321 7.02476 54.433 6.86837C54.6388 6.70724 54.8446 6.60299 55.0503 6.5556C55.2561 6.49873 55.481 6.47029 55.7251 6.47029C56.4237 6.47029 56.9262 6.6172 57.2372 6.91576C57.5483 7.21432 57.7062 7.65505 57.7062 8.23795C57.7062 8.68815 57.6296 9.22366 57.4717 9.84921C57.3138 10.4748 57.1176 11.143 56.8831 11.8586C56.6486 12.5694 56.3902 13.304 56.1175 14.0622C55.8447 14.8157 55.5863 15.5455 55.3518 16.2564C55.1126 16.9672 54.9164 17.6307 54.7632 18.2467C54.6053 18.8581 54.5287 19.3794 54.5287 19.8106C54.5287 20.2798 54.6388 20.6447 54.8541 20.9006C55.0743 21.1612 55.4332 21.2892 55.9404 21.2892C56.3519 21.2892 56.7491 21.1944 57.1272 21.0001C57.5148 20.8106 57.8928 20.5262 58.2661 20.1471C58.6441 19.7632 59.0317 19.2893 59.4146 18.7206C59.807 18.152 60.2185 17.4932 60.6492 16.7397L61.1373 15.8867L61.3909 16.0621L60.9028 16.9151C60.4434 17.7255 60.0032 18.4316 59.5916 19.0334C59.1801 19.6305 58.7685 20.1329 58.357 20.531C57.9455 20.9338 57.5244 21.2323 57.0937 21.4266C56.6678 21.6304 56.2132 21.7299 55.7299 21.7299C55.3422 21.7299 55.0025 21.6731 54.7106 21.5546C54.4187 21.4361 54.1698 21.275 53.9736 21.0712C53.7774 20.8674 53.6195 20.6305 53.5143 20.3603C53.4138 20.0807 53.3659 19.7869 53.3659 19.4694C53.3659 19.1993 53.3994 18.877 53.4712 18.5074C53.5478 18.1377 53.6435 17.7349 53.7631 17.3037C53.8875 16.8677 54.0263 16.408 54.1842 15.9246C54.3469 15.4365 54.5144 14.9389 54.6867 14.4366H50.7531C50.5234 14.9105 50.2842 15.3796 50.0401 15.8441C49.8056 16.3085 49.5616 16.754 49.3223 17.1852C49.0878 17.6165 48.8438 18.0288 48.6045 18.4174C48.37 18.8012 48.1356 19.1472 47.9059 19.4647C47.5996 19.8864 47.2981 20.2419 47.0014 20.5404C46.7047 20.839 46.4081 21.0712 46.1018 21.2608C45.7955 21.4503 45.4845 21.5925 45.1687 21.6778C44.8528 21.7631 44.5226 21.8057 44.1781 21.8057C43.3502 21.8057 42.6994 21.5688 42.2352 21.0949C41.7759 20.6115 41.5414 19.9196 41.5414 19.0145C41.5414 18.5263 41.6084 18.0714 41.7376 17.6449C41.8668 17.2136 42.0486 16.8345 42.2783 16.517C42.508 16.1948 42.7808 15.9436 43.0918 15.7588C43.4029 15.5739 43.7378 15.4792 44.1015 15.4792C44.2834 15.4792 44.4269 15.5123 44.5418 15.5739C44.6614 15.6356 44.7188 15.754 44.7188 15.9246L44.714 15.9294ZM53.4808 8.8398C53.3133 9.15258 53.1266 9.508 52.9304 9.90608C52.739 10.2994 52.5333 10.7212 52.3227 11.1667C52.1122 11.6121 51.892 12.0718 51.6575 12.5552C51.4326 13.0291 51.2029 13.5125 50.9685 14.0006H54.8494C55.0551 13.4082 55.2561 12.8206 55.4475 12.2329C55.6485 11.6453 55.8256 11.0861 55.9787 10.5506C56.1414 10.0151 56.2658 9.51748 56.3615 9.06253C56.462 8.60759 56.5099 8.20951 56.5099 7.87778C56.5099 7.65979 56.4859 7.48444 56.4429 7.35175C56.3998 7.21432 56.3376 7.11006 56.2562 7.03897C56.1797 6.95841 56.0888 6.90628 55.9739 6.88259C55.8686 6.84941 55.749 6.8352 55.6198 6.8352C55.414 6.8352 55.2226 6.86837 55.0503 6.92998C54.8829 6.99158 54.7154 7.10058 54.5527 7.25223C54.39 7.40862 54.2225 7.6124 54.0454 7.87304C53.8732 8.13369 53.6817 8.46068 53.476 8.85402L53.4808 8.8398Z" fill="#FEFDFA"/>
<path d="M83.7567 6.53543C82.8696 8.46823 81.5701 9.58091 80.5632 9.226C79.796 8.95743 79.5562 8.16608 79.6329 7.22127L80.2083 6.46349C80.6495 5.88797 80.3234 5.8496 79.8823 5.9791C79.8966 5.93593 79.9062 5.89277 79.9206 5.8496C79.9638 5.85919 80.0069 5.86399 80.0645 5.86399C80.2659 5.86399 80.1748 5.68174 80.0357 5.51868C80.1124 5.30286 80.1987 5.09183 80.2946 4.8856C80.4337 4.57866 80.5823 4.29569 80.7358 4.03191C80.8413 3.98395 80.8652 3.91681 80.8509 3.84487C81.6756 2.53076 82.6442 1.8737 83.4833 2.17105C84.7444 2.61708 84.6054 4.67458 83.7567 6.54023V6.53543ZM65.9191 7.84475C64.5046 8.22843 63.2099 6.38676 62.5913 4.62182C61.8673 2.57392 62.0495 1.03919 63.1188 0.751432C64.0778 0.492447 65.0752 1.33655 65.804 2.56912C65.665 2.89525 65.406 3.73935 65.7657 3.73935C66.0294 3.73935 66.1828 3.70578 66.2739 3.65303C66.2643 3.61945 66.2547 3.58108 66.25 3.54272H66.2883C66.2979 3.5667 66.3123 3.59547 66.3219 3.61945C66.3075 3.62905 66.2931 3.63864 66.2739 3.64823C66.3171 3.84007 66.365 3.97915 66.4274 3.97915C66.437 3.97915 66.4466 3.97915 66.4561 3.97915C66.4561 3.97915 66.4561 3.98395 66.4561 3.98875C66.6815 4.62182 66.811 5.21653 66.8493 5.73929C66.7582 6.34359 66.6096 6.96228 66.4705 7.47066C66.3219 7.65291 66.1349 7.7824 65.9095 7.84475H65.9191ZM66.015 2.94801C66.0582 3.02954 66.0965 3.11107 66.1397 3.1974C65.9527 3.13026 65.9575 3.03434 66.015 2.94801ZM83.8765 1.88329C82.088 1.25501 80.2659 2.65066 79.2062 4.96714C79.1822 5.01989 79.163 5.07265 79.139 5.1254C78.9808 5.29326 78.8561 5.44194 78.7986 5.54745C78.439 6.2093 74.5741 11.6288 73.4953 12.9909C71.6156 10.2667 70.1387 7.92148 68.6235 5.41796C68.5084 5.23092 67.8323 4.21896 67.2329 3.27414C67.0459 2.75617 66.7151 2.10871 66.2547 1.54278C66.2547 1.52839 66.25 1.52359 66.2404 1.52359C65.5163 0.64592 64.4854 -0.0303191 63.2195 0.314994C61.3782 0.813781 60.9658 2.90485 61.8097 5.28847C62.4475 7.09657 64.0299 8.77038 65.8232 8.28119C66.1732 8.18527 66.4753 8.03179 66.7199 7.83516L71.5868 15.0196L65.056 24.0793C64.2856 25.1568 63.6175 26.1048 63.0517 26.9233L65.2142 26.1847L72.4931 16.3481C74.6605 19.547 80.2946 25.5996 81.455 29C81.7475 28.0744 82.3469 26.53 81.2201 24.2471C80.731 23.2544 75.092 15.1107 74.4063 14.1323L78.8849 8.22363C79.0959 8.80875 79.513 9.27876 80.1843 9.51376C82.0065 10.1564 83.8334 8.69364 84.8643 6.43951C85.4541 5.15418 85.9288 2.61229 83.8861 1.88809L83.8765 1.88329Z" fill="url(#paint0_linear_642_68600)"/>
<path d="M89.7498 21.9907C89.0537 21.9907 88.4345 21.8814 87.892 21.6675C87.3495 21.4584 86.8887 21.1494 86.5142 20.7502C86.1446 20.3414 85.8614 19.8424 85.6597 19.2577C85.4677 18.6636 85.3717 17.9887 85.3717 17.233C85.3717 16.8195 85.4005 16.3775 85.4581 15.9164C85.5205 15.4506 85.6165 14.9801 85.7413 14.5048C85.9334 13.7491 86.1878 13.0361 86.4998 12.3612C86.8119 11.6815 87.1719 11.0541 87.58 10.479C87.9928 9.90393 88.4441 9.38586 88.9289 8.92007C89.4234 8.44953 89.9419 8.05028 90.4843 7.72232C91.0268 7.39437 91.5933 7.14246 92.1837 6.97136C92.7694 6.79075 93.3695 6.70044 93.9743 6.70044C94.2624 6.70044 94.5504 6.73371 94.848 6.80025C95.1409 6.86679 95.4049 6.98086 95.6353 7.14246C95.8754 7.29931 96.0626 7.50844 96.2066 7.77461C96.3554 8.03602 96.4322 8.35922 96.4322 8.74896C96.4322 9.09593 96.3794 9.41913 96.2738 9.71381C96.173 10.0037 96.029 10.2747 95.8418 10.5218C95.6594 10.7642 95.4481 10.9876 95.2033 11.192C94.9585 11.3964 94.6992 11.577 94.416 11.7386L94.248 11.5057C94.752 11.1017 95.1265 10.6596 95.3617 10.1796C95.6065 9.69005 95.7266 9.18148 95.7266 8.64915C95.7266 8.11682 95.5969 7.68905 95.3329 7.43239C95.0785 7.18049 94.6992 7.05216 94.2 7.05216C93.5615 7.05216 92.9134 7.24228 92.2509 7.61776C91.5933 7.98849 90.9644 8.50181 90.3595 9.15772C89.7546 9.81362 89.1978 10.5884 88.6889 11.4772C88.18 12.3612 87.7624 13.3165 87.4312 14.3479C87.2199 15.0086 87.0567 15.6645 86.9415 16.3062C86.8311 16.9431 86.7735 17.5419 86.7735 18.098C86.7735 20.3937 87.8152 21.5439 89.8939 21.5439C91.0796 21.5439 92.1741 21.1732 93.1774 20.4317C94.176 19.6808 95.1217 18.5353 96.0098 16.9858L96.4995 16.1303L96.7539 16.3062L96.2642 17.1617C95.789 17.9887 95.3041 18.7112 94.8096 19.3148C94.3152 19.9232 93.8015 20.4222 93.2735 20.8167C92.7406 21.2112 92.1837 21.5059 91.6029 21.7008C91.022 21.9004 90.4075 21.9954 89.7546 21.9954L89.7498 21.9907ZM97.0419 14.4905C97.2339 13.7396 97.4884 13.0314 97.8004 12.3565C98.1172 11.6815 98.4821 11.0589 98.8901 10.479C99.2982 9.89918 99.7446 9.37635 100.23 8.91056C100.714 8.44477 101.228 8.05028 101.766 7.72232C102.303 7.38962 102.86 7.13296 103.436 6.96185C104.012 6.78124 104.593 6.69093 105.179 6.69093C106.36 6.69093 107.262 7.05216 107.891 7.77936C108.515 8.50181 108.827 9.55221 108.827 10.9258C108.827 11.5152 108.77 12.1331 108.65 12.7842C108.535 13.4354 108.371 14.0865 108.15 14.7424C107.915 15.4411 107.627 16.1065 107.286 16.7387C106.955 17.3708 106.585 17.9554 106.177 18.4925C105.769 19.0248 105.337 19.5096 104.876 19.9422C104.416 20.3747 103.931 20.7454 103.431 21.0449C102.932 21.349 102.423 21.5819 101.905 21.7388C101.386 21.9051 100.868 21.9907 100.359 21.9907C99.7783 21.9907 99.2598 21.8861 98.8037 21.677C98.3477 21.4679 97.9588 21.1637 97.642 20.7692C97.3252 20.3652 97.0803 19.8756 96.9123 19.3005C96.7491 18.7207 96.6675 18.0647 96.6675 17.3328C96.6675 16.8813 96.7011 16.4155 96.7635 15.9402C96.8259 15.4554 96.9219 14.9753 97.0467 14.4905H97.0419ZM100.503 21.5344C101.122 21.5344 101.751 21.3585 102.399 21.0068C103.047 20.6551 103.676 20.1608 104.276 19.5287C104.881 18.8965 105.443 18.1503 105.961 17.2805C106.485 16.406 106.936 15.4506 107.31 14.4097C107.579 13.6588 107.786 12.9268 107.93 12.2091C108.078 11.4867 108.155 10.8308 108.155 10.2509C108.155 9.75183 108.098 9.3003 107.978 8.90581C107.867 8.50181 107.694 8.16435 107.474 7.89343C107.253 7.61301 106.984 7.40388 106.667 7.26129C106.35 7.11395 105.99 7.0379 105.587 7.0379C105.155 7.0379 104.718 7.12345 104.276 7.28981C103.83 7.45616 103.393 7.69381 102.956 8.00275C102.524 8.30694 102.102 8.67767 101.689 9.11494C101.281 9.54746 100.897 10.037 100.537 10.5836C100.172 11.1207 99.8407 11.7053 99.5334 12.3374C99.2262 12.9696 98.9622 13.6302 98.7365 14.3242C98.5253 14.9991 98.3621 15.6645 98.2469 16.3204C98.1364 16.9716 98.0788 17.5799 98.0788 18.1503C98.0788 19.253 98.2853 20.0895 98.6981 20.6646C99.111 21.2397 99.7158 21.5297 100.508 21.5297L100.503 21.5344ZM119.614 12.3707C119.984 12.0095 120.315 11.6388 120.608 11.249C120.906 10.8545 121.16 10.4648 121.366 10.0798C121.578 9.6948 121.741 9.32882 121.856 8.9771C121.967 8.62538 122.024 8.30218 122.024 8.01225C122.024 7.88868 122.01 7.76985 121.986 7.65103C121.962 7.53221 121.914 7.43239 121.847 7.34684C121.784 7.25178 121.698 7.18524 121.582 7.13296C121.477 7.07592 121.338 7.0474 121.17 7.0474C120.814 7.0474 120.45 7.16623 120.08 7.40863C119.715 7.65103 119.369 7.998 119.029 8.45903C118.765 8.81075 118.525 9.21 118.308 9.65678C118.097 10.094 117.891 10.5646 117.689 11.0684C117.488 11.5675 117.291 12.095 117.099 12.6369C116.907 13.1835 116.7 13.7301 116.479 14.2909C116.172 15.0704 115.865 15.7833 115.563 16.4345C115.265 17.0856 114.953 17.6703 114.636 18.1978C114.324 18.7254 114.002 19.1912 113.671 19.6C113.345 20.004 113.004 20.3509 112.649 20.6504C112.946 20.7359 113.282 20.8262 113.642 20.9213C114.012 21.0068 114.396 21.0876 114.794 21.1637C115.193 21.2397 115.601 21.3015 116.014 21.349C116.427 21.3966 116.835 21.4251 117.243 21.4251C117.963 21.4251 118.592 21.3348 119.129 21.1542C119.667 20.9736 120.157 20.7026 120.603 20.3367C121.05 19.9659 121.467 19.5049 121.861 18.9536C122.259 18.3975 122.677 17.7415 123.109 16.9858L123.589 16.1303L123.844 16.3062L123.354 17.1617C122.759 18.2026 122.187 19.0534 121.631 19.7235C121.074 20.3842 120.526 20.907 119.989 21.292C119.456 21.6675 118.928 21.9289 118.405 22.0715C117.886 22.2141 117.363 22.2854 116.84 22.2854C116.484 22.2854 116.1 22.2521 115.697 22.1903C115.299 22.1285 114.886 22.043 114.458 21.9384C114.041 21.8386 113.614 21.7245 113.172 21.5962C112.735 21.4679 112.303 21.3348 111.876 21.2065C111.415 21.4774 110.93 21.677 110.431 21.8006C109.931 21.9289 109.394 21.9954 108.818 21.9954C108.424 21.9954 108.102 21.9669 107.853 21.9099C107.608 21.8624 107.416 21.7911 107.272 21.7055C107.128 21.62 107.027 21.5201 106.974 21.4108C106.926 21.3015 106.898 21.1874 106.898 21.0781C106.898 20.8547 106.97 20.6741 107.114 20.541C107.258 20.4032 107.44 20.2986 107.656 20.2273C107.877 20.1465 108.117 20.0943 108.376 20.0705C108.64 20.0372 108.89 20.023 109.125 20.023C109.643 20.023 110.133 20.0657 110.599 20.1513C111.069 20.2321 111.501 20.3224 111.89 20.4317C112.082 20.2083 112.274 19.9469 112.461 19.6522C112.653 19.3576 112.85 19.0153 113.052 18.6304C113.258 18.2406 113.47 17.8033 113.69 17.3233C113.911 16.8337 114.142 16.2919 114.391 15.6978C114.785 14.771 115.14 13.9107 115.452 13.1264C115.769 12.3327 116.081 11.615 116.379 10.9733C116.676 10.3317 116.984 9.75184 117.291 9.24802C117.603 8.7347 117.953 8.29268 118.342 7.92195C118.774 7.50844 119.225 7.1995 119.691 7.00463C120.162 6.805 120.613 6.70994 121.05 6.70994C121.342 6.70994 121.587 6.74797 121.779 6.82877C121.981 6.90957 122.135 7.01889 122.25 7.16148C122.37 7.29931 122.451 7.45616 122.495 7.64628C122.543 7.83164 122.571 8.03127 122.571 8.2499C122.571 8.98186 122.336 9.71856 121.871 10.4695C121.41 11.211 120.738 11.9477 119.854 12.6797L119.619 12.3897L119.614 12.3707ZM108.823 21.6532C109.341 21.6532 109.792 21.6057 110.181 21.5154C110.57 21.4203 110.93 21.254 111.271 21.0068C111.064 20.945 110.844 20.8833 110.613 20.8215C110.388 20.7549 110.152 20.6931 109.907 20.6456C109.663 20.5886 109.418 20.5458 109.168 20.5173C108.923 20.4792 108.683 20.4602 108.448 20.4602C108.078 20.4602 107.79 20.5078 107.574 20.6076C107.368 20.7026 107.262 20.8547 107.262 21.0734C107.262 21.1542 107.282 21.2302 107.32 21.3063C107.363 21.3728 107.44 21.4346 107.555 21.4916C107.67 21.5392 107.824 21.5819 108.026 21.6105C108.232 21.6437 108.496 21.658 108.823 21.658V21.6532ZM124.031 14.4858C124.223 13.7348 124.477 13.0266 124.789 12.3517C125.106 11.6768 125.471 11.0541 125.879 10.4743C126.287 9.89442 126.734 9.3716 127.218 8.90581C127.708 8.44002 128.217 8.04552 128.755 7.71757C129.292 7.38486 129.849 7.1282 130.425 6.9571C131.001 6.77649 131.582 6.68618 132.168 6.68618C133.349 6.68618 134.251 7.0474 134.875 7.77461C135.499 8.49706 135.811 9.54746 135.811 10.9211C135.811 11.5104 135.754 12.1283 135.634 12.7795C135.523 13.4306 135.355 14.0818 135.135 14.7377C134.899 15.4364 134.611 16.1018 134.27 16.7339C133.939 17.3661 133.57 17.9507 133.166 18.4878C132.758 19.0201 132.326 19.5049 131.865 19.9374C131.404 20.3699 130.92 20.7407 130.42 21.0401C129.921 21.3443 129.412 21.5772 128.894 21.734C128.375 21.9004 127.862 21.9859 127.348 21.9859C126.767 21.9859 126.249 21.8814 125.793 21.6722C125.337 21.4631 124.948 21.1589 124.631 20.7644C124.314 20.3604 124.069 19.8709 123.901 19.2958C123.738 18.7159 123.656 18.06 123.656 17.328C123.656 16.8765 123.69 16.4107 123.752 15.9354C123.815 15.4506 123.911 14.9706 124.036 14.4858H124.031ZM127.492 21.5297C128.111 21.5297 128.74 21.3538 129.388 21.0021C130.036 20.6504 130.665 20.156 131.265 19.5239C131.87 18.8918 132.432 18.1456 132.955 17.2758C133.478 16.4012 133.93 15.4459 134.304 14.405C134.573 13.654 134.779 12.9221 134.923 12.2044C135.072 11.4819 135.149 10.826 135.149 10.2461C135.149 9.74708 135.091 9.29555 134.971 8.90106C134.861 8.49705 134.688 8.1596 134.467 7.88868C134.246 7.60825 133.978 7.39912 133.661 7.25653C133.344 7.10919 132.984 7.03315 132.581 7.03315C132.149 7.03315 131.712 7.1187 131.27 7.28505C130.828 7.45141 130.387 7.68905 129.95 7.998C129.518 8.30218 129.095 8.67291 128.683 9.11019C128.275 9.5427 127.89 10.0323 127.53 10.5788C127.166 11.1159 126.834 11.7005 126.527 12.3327C126.22 12.9648 125.956 13.6255 125.73 14.3194C125.519 14.9943 125.356 15.6598 125.241 16.3157C125.13 16.9668 125.073 17.5752 125.073 18.1455C125.073 19.2482 125.279 20.0848 125.692 20.6599C126.105 21.235 126.71 21.5249 127.502 21.5249L127.492 21.5297ZM139.954 21.9954C138.231 21.9954 137.367 20.9878 137.367 18.9773C137.367 18.079 137.525 17.1379 137.837 16.1541C138.149 15.1654 138.605 14.1721 139.205 13.174C139.81 12.1663 140.502 11.2633 141.279 10.4648C142.062 9.66153 142.892 8.98186 143.776 8.42101C144.664 7.86016 145.59 7.42764 146.55 7.13296C147.52 6.83827 148.499 6.68618 149.483 6.68618C150.151 6.68618 150.746 6.75272 151.264 6.88105C151.788 7.00938 152.234 7.1995 152.594 7.44665C152.959 7.68905 153.233 7.98849 153.42 8.34496C153.607 8.70618 153.703 9.11019 153.703 9.56172C153.703 10.0988 153.578 10.6121 153.329 11.0922C153.084 11.577 152.753 12 152.325 12.3755C151.898 12.7414 151.404 13.0361 150.832 13.269C150.266 13.4924 149.656 13.6112 149.013 13.6302C149.796 13.7728 150.367 14.0057 150.727 14.3242C151.092 14.6474 151.269 15.0751 151.269 15.6122C151.269 15.9164 151.221 16.2396 151.13 16.5866C151.034 16.9335 150.928 17.29 150.813 17.656C150.703 18.022 150.597 18.388 150.506 18.7587C150.41 19.1294 150.367 19.4859 150.367 19.8281C150.367 20.3747 150.506 20.7882 150.78 21.0829C151.063 21.3728 151.461 21.5201 151.98 21.5201C152.345 21.5201 152.681 21.4489 153.002 21.3063C153.319 21.1637 153.65 20.9213 153.986 20.5743C154.332 20.2273 154.697 19.7616 155.086 19.1817C155.479 18.5923 155.931 17.8556 156.435 16.9716L156.924 16.116L157.179 16.2919L156.689 17.1474C156.31 17.8081 155.959 18.3927 155.647 18.8918C155.34 19.3861 155.052 19.8138 154.774 20.1751C154.505 20.5363 154.25 20.831 154.006 21.0686C153.761 21.2968 153.516 21.4821 153.266 21.6152C153.017 21.753 152.757 21.8481 152.489 21.9051C152.22 21.9622 151.927 21.9907 151.615 21.9907C151.188 21.9907 150.804 21.9384 150.463 21.8338C150.117 21.7293 149.824 21.5772 149.579 21.3776C149.335 21.1779 149.147 20.9403 149.018 20.6646C148.888 20.3794 148.821 20.0657 148.821 19.7188C148.821 19.3718 148.874 18.9963 148.979 18.5876C149.085 18.1788 149.205 17.7748 149.335 17.3708C149.464 16.9668 149.584 16.5866 149.69 16.2206C149.796 15.8546 149.848 15.5409 149.848 15.2748C149.848 15.0942 149.82 14.9183 149.762 14.7472C149.704 14.5761 149.627 14.4145 149.527 14.2719C149.426 14.1293 149.306 14.0105 149.171 13.9107C149.042 13.8109 148.898 13.7443 148.749 13.7158C148.725 13.7206 148.682 13.7253 148.619 13.7253C148.543 13.7253 148.48 13.7158 148.432 13.6968C148.389 13.673 148.365 13.6398 148.365 13.6017C148.365 13.5685 148.389 13.5447 148.432 13.5162C148.48 13.4829 148.538 13.4686 148.6 13.4686C148.667 13.4686 148.72 13.4734 148.759 13.4877C148.797 13.4924 148.84 13.5114 148.888 13.5447C149.392 13.4354 149.868 13.2405 150.304 12.9601C150.741 12.6797 151.12 12.3517 151.437 11.9667C151.754 11.5817 152.004 11.154 152.186 10.6834C152.373 10.2129 152.469 9.72807 152.469 9.23376C152.469 8.15484 151.956 7.47517 150.924 7.18999C150.578 7.32783 150.242 7.53221 149.911 7.80312C149.584 8.06929 149.306 8.37348 149.075 8.71094C149.008 8.81075 148.941 8.91056 148.879 9.01513C148.821 9.11969 148.759 9.25753 148.682 9.42388C148.605 9.58548 148.519 9.78986 148.418 10.0465C148.317 10.2937 148.192 10.6074 148.043 10.9924C147.899 11.3678 147.726 11.8289 147.53 12.366C147.338 12.8983 147.102 13.5352 146.829 14.2766C146.349 15.5932 145.849 16.7387 145.331 17.713C144.813 18.6779 144.27 19.4811 143.699 20.118C143.132 20.7502 142.537 21.2207 141.918 21.5297C141.298 21.8386 140.646 21.9954 139.959 21.9954H139.954ZM147.069 10.2129C147.51 9.47141 148.039 8.83451 148.643 8.30218C149.248 7.7651 149.892 7.36585 150.564 7.11395C150.42 7.09018 150.266 7.07117 150.093 7.05691C149.925 7.04265 149.748 7.0379 149.56 7.0379C148.624 7.0379 147.688 7.18524 146.757 7.47517C145.825 7.7651 144.928 8.18336 144.064 8.72995C143.209 9.26703 142.403 9.92769 141.644 10.7072C140.895 11.4819 140.223 12.3517 139.637 13.3165C139.061 14.2576 138.625 15.2082 138.327 16.1778C138.034 17.1379 137.885 18.0743 137.885 18.9916C137.885 19.9089 138.053 20.5553 138.389 20.9688C138.735 21.3823 139.201 21.5914 139.796 21.5914C140.122 21.5914 140.425 21.5534 140.703 21.4821C140.991 21.4013 141.265 21.273 141.519 21.0924C141.783 20.907 142.038 20.6646 142.287 20.3699C142.537 20.0752 142.791 19.7093 143.046 19.2768C143.3 18.8395 143.564 18.3214 143.833 17.7368C144.107 17.1427 144.4 16.463 144.717 15.693C145 14.9896 145.24 14.3812 145.446 13.8726C145.657 13.3593 145.84 12.9173 145.989 12.5561C146.137 12.1853 146.262 11.8764 146.363 11.6388C146.469 11.3964 146.565 11.192 146.646 11.0256C146.728 10.8545 146.8 10.7072 146.862 10.5884C146.925 10.4648 146.992 10.346 147.059 10.2271L147.069 10.2129ZM171.024 6.85253C170.817 6.90957 170.611 6.99037 170.404 7.10444C170.203 7.21376 170.011 7.34684 169.824 7.49418C169.636 7.63677 169.459 7.79362 169.3 7.96948C169.142 8.13583 169.007 8.30218 168.887 8.46854C168.811 8.57786 168.739 8.70143 168.662 8.83927C168.585 8.9676 168.503 9.13395 168.417 9.33357C168.331 9.52369 168.23 9.76134 168.119 10.037C168.009 10.3079 167.875 10.6454 167.726 11.0399C167.582 11.4296 167.409 11.8907 167.212 12.423C167.02 12.9553 166.794 13.5732 166.535 14.2814C166.036 15.6407 165.527 16.81 165.009 17.7796C164.49 18.7492 163.938 19.5477 163.357 20.1751C162.776 20.7929 162.147 21.254 161.471 21.5487C160.803 21.8386 160.069 21.9859 159.267 21.9859C158.187 21.9859 157.366 21.7483 156.8 21.273C156.243 20.7882 155.964 20.1323 155.964 19.2958C155.964 18.9821 156.003 18.6826 156.075 18.4022C156.151 18.1218 156.248 17.8794 156.372 17.6703C156.497 17.4611 156.641 17.2948 156.804 17.1712C156.972 17.0476 157.15 16.9858 157.328 16.9858C157.491 16.9858 157.62 17.0286 157.712 17.1142C157.808 17.1997 157.851 17.3233 157.851 17.4849C157.851 17.6085 157.817 17.713 157.755 17.7986C157.697 17.8841 157.625 17.9602 157.529 18.022C157.443 18.079 157.347 18.1265 157.236 18.1693C157.131 18.2121 157.025 18.2501 156.929 18.2786C156.728 18.3452 156.588 18.4688 156.507 18.6494C156.43 18.8205 156.396 19.0486 156.396 19.329C156.396 19.6808 156.454 19.9992 156.574 20.2844C156.699 20.5648 156.876 20.8025 157.107 21.0068C157.337 21.2065 157.62 21.3585 157.952 21.4726C158.283 21.5772 158.657 21.6295 159.075 21.6295C159.493 21.6295 159.853 21.5914 160.189 21.5201C160.525 21.4441 160.837 21.3205 161.125 21.1494C161.418 20.9688 161.696 20.7359 161.96 20.446C162.224 20.1513 162.483 19.7806 162.738 19.3433C163.002 18.906 163.266 18.3832 163.535 17.7843C163.808 17.1759 164.101 16.4773 164.418 15.6883C164.668 15.0514 164.889 14.4905 165.085 14.0057C165.277 13.5209 165.45 13.0979 165.599 12.7224C165.748 12.3517 165.882 12.0285 165.993 11.7576C166.113 11.4772 166.218 11.2348 166.31 11.0256C166.41 10.8165 166.502 10.6311 166.593 10.4695C166.679 10.3079 166.77 10.1511 166.866 9.99424C167.154 9.51894 167.49 9.06266 167.879 8.63014C168.273 8.19762 168.705 7.82214 169.175 7.50844C168.748 7.63677 168.316 7.74134 167.875 7.81263C167.438 7.88868 167.044 7.92195 166.694 7.92195C166.362 7.92195 166.031 7.88868 165.7 7.82689C165.373 7.7651 165.061 7.69856 164.754 7.62251C164.456 7.54646 164.173 7.47992 163.909 7.41814C163.645 7.35635 163.42 7.32308 163.223 7.32308C162.988 7.32308 162.757 7.37536 162.536 7.47992C162.325 7.57974 162.138 7.72232 161.975 7.91719C161.811 8.10256 161.682 8.3307 161.591 8.59687C161.495 8.85828 161.451 9.14821 161.451 9.47141C161.451 9.84214 161.514 10.1606 161.639 10.4172L161.312 10.6026C161.235 10.46 161.173 10.2984 161.125 10.1083C161.082 9.92294 161.058 9.71381 161.058 9.47616C161.058 9.04364 161.139 8.6539 161.303 8.30694C161.466 7.95997 161.691 7.66529 161.979 7.42289C162.272 7.18049 162.613 6.99512 163.002 6.86679C163.396 6.73846 163.823 6.67192 164.288 6.67192C164.514 6.67192 164.706 6.68618 164.869 6.71945C165.037 6.74322 165.196 6.77649 165.349 6.81926C165.498 6.86204 165.652 6.90957 165.81 6.9571C165.973 6.99988 166.161 7.04265 166.372 7.08543C166.583 7.1282 166.833 7.16623 167.121 7.19475C167.409 7.21851 167.759 7.23277 168.172 7.23277C168.465 7.23277 168.734 7.21851 168.969 7.19475C169.204 7.17098 169.435 7.13771 169.656 7.09493C169.876 7.0474 170.092 6.98562 170.313 6.91907C170.534 6.84303 170.769 6.76223 171.024 6.67667V6.84303V6.85253ZM180.918 11.1302C181.153 10.7785 181.331 10.4458 181.441 10.1368C181.551 9.82788 181.609 9.50943 181.609 9.19099C181.609 8.87254 181.551 8.55884 181.441 8.29268C181.335 8.02651 181.177 7.79837 180.97 7.6035C180.764 7.41338 180.51 7.26604 180.212 7.16623C179.919 7.06166 179.588 7.00938 179.218 7.00938C178.781 7.00938 178.383 7.08068 178.018 7.22326C177.663 7.36585 177.356 7.56548 177.101 7.82689C176.852 8.0883 176.66 8.39724 176.52 8.76322C176.381 9.1292 176.314 9.5332 176.314 9.97998C176.314 10.4268 176.376 10.864 176.501 11.287C176.626 11.7101 176.784 12.1283 176.972 12.5513C177.159 12.9648 177.36 13.3783 177.581 13.7871C177.807 14.1958 178.013 14.6046 178.201 15.0134C178.388 15.4221 178.546 15.8356 178.671 16.2491C178.796 16.6626 178.858 17.0856 178.858 17.5134C178.858 17.9412 178.791 18.3594 178.652 18.7587C178.513 19.1484 178.321 19.5096 178.071 19.8376C177.826 20.1656 177.538 20.465 177.197 20.7312C176.861 20.9973 176.492 21.2255 176.093 21.4108C175.699 21.5962 175.282 21.7388 174.835 21.8386C174.394 21.9384 173.942 21.9859 173.486 21.9859C172.79 21.9859 172.185 21.8766 171.657 21.6627C171.129 21.4489 170.692 21.1589 170.337 20.7977C169.982 20.4365 169.713 20.0277 169.531 19.5619C169.358 19.0914 169.267 18.6066 169.267 18.1028C169.267 17.7891 169.3 17.4849 169.367 17.195C169.435 16.905 169.531 16.6484 169.651 16.425C169.776 16.2016 169.92 16.0257 170.083 15.8974C170.251 15.7691 170.433 15.7025 170.625 15.7025C170.793 15.7025 170.923 15.7501 171.019 15.8404C171.12 15.9354 171.168 16.059 171.168 16.2206C171.168 16.3489 171.134 16.4583 171.067 16.5438C171.004 16.6246 170.928 16.6911 170.832 16.7482C170.736 16.8052 170.64 16.848 170.534 16.886C170.428 16.924 170.332 16.9621 170.251 16.9953C170.088 17.0714 169.953 17.195 169.838 17.3756C169.732 17.5562 169.68 17.8319 169.68 18.2121C169.68 18.5923 169.752 18.9868 169.896 19.3813C170.04 19.7758 170.26 20.137 170.553 20.4602C170.851 20.7834 171.23 21.0449 171.686 21.2492C172.142 21.4489 172.685 21.5439 173.309 21.5439C173.851 21.5439 174.365 21.4631 174.845 21.3015C175.335 21.1352 175.757 20.8928 176.122 20.5791C176.492 20.2559 176.78 19.8566 176.996 19.3813C177.207 18.8965 177.312 18.3404 177.312 17.7083C177.312 17.233 177.255 16.791 177.135 16.3917C177.024 15.9877 176.88 15.6075 176.703 15.2415C176.535 14.8755 176.348 14.5238 176.141 14.1816C175.939 13.8346 175.752 13.4829 175.579 13.1217C175.411 12.7605 175.267 12.3897 175.147 12.0095C175.037 11.6197 174.979 11.1967 174.979 10.7357C174.979 10.1558 175.08 9.61875 175.277 9.1292C175.483 8.63489 175.776 8.20713 176.151 7.8459C176.525 7.48468 176.976 7.209 177.5 7.00938C178.033 6.805 178.623 6.70519 179.271 6.70519C179.742 6.70519 180.164 6.76223 180.538 6.87155C180.918 6.97611 181.239 7.13296 181.503 7.33733C181.772 7.54171 181.974 7.78887 182.113 8.0788C182.257 8.36873 182.329 8.69668 182.329 9.06266C182.329 9.46666 182.243 9.84689 182.065 10.2034C181.892 10.5551 181.614 10.9163 181.239 11.2823L180.922 11.1349L180.918 11.1302ZM193.174 10.3032C193.394 9.91344 193.654 9.5427 193.951 9.19099C194.249 8.83927 194.58 8.51131 194.935 8.21663C194.383 8.1691 193.836 8.09781 193.294 8.00275C192.756 7.90294 192.223 7.80788 191.69 7.71282C191.167 7.61776 190.648 7.54171 190.135 7.47042C189.621 7.40388 189.117 7.37061 188.627 7.37061C188.071 7.37061 187.6 7.41814 187.221 7.51795C186.842 7.61776 186.525 7.75559 186.285 7.93621C186.05 8.10731 185.877 8.3212 185.771 8.56835C185.665 8.8155 185.613 9.09117 185.613 9.39536C185.613 9.69955 185.661 9.96096 185.752 10.1844C185.848 10.4077 185.982 10.5931 186.155 10.7404C186.328 10.883 186.534 10.9924 186.774 11.0637C187.019 11.1302 187.288 11.1635 187.581 11.1635C187.783 11.1635 187.989 11.1492 188.21 11.1159C188.431 11.0827 188.642 11.0399 188.858 10.9876C189.079 10.9258 189.29 10.8545 189.496 10.7737C189.703 10.6929 189.895 10.6026 190.068 10.5028L190.255 10.7262C189.842 10.9591 189.4 11.1444 188.925 11.2728C188.45 11.4011 187.999 11.4677 187.566 11.4677C187.202 11.4677 186.88 11.4201 186.592 11.3298C186.304 11.23 186.059 11.0922 185.853 10.9116C185.651 10.7309 185.497 10.5123 185.392 10.2509C185.286 9.98948 185.233 9.6948 185.233 9.36685C185.233 8.4923 185.603 7.82689 186.338 7.3611C187.082 6.89531 188.152 6.66717 189.554 6.66717C190.116 6.66717 190.668 6.70044 191.205 6.76698C191.748 6.83352 192.29 6.91432 192.828 6.99988C193.37 7.08068 193.918 7.15672 194.47 7.23277C195.022 7.30882 195.583 7.35159 196.169 7.37061C196.673 7.08543 197.196 6.86204 197.725 6.70044C198.257 6.53884 198.785 6.45804 199.309 6.45804C199.578 6.45804 199.76 6.4818 199.851 6.53409C199.952 6.58162 200 6.67667 200 6.81451C200 7.01889 199.904 7.209 199.707 7.38962C199.515 7.56072 199.246 7.71282 198.901 7.8459C198.565 7.97423 198.161 8.0788 197.691 8.15009C197.22 8.22614 196.716 8.25941 196.174 8.25941H195.91C195.823 8.25941 195.737 8.25941 195.646 8.2499C195.559 8.33546 195.478 8.42101 195.401 8.51131C195.334 8.59687 195.267 8.68717 195.204 8.78223C195.147 8.86303 195.094 8.95809 195.036 9.07216C194.979 9.17673 194.916 9.31456 194.839 9.49042C194.763 9.65678 194.676 9.86591 194.575 10.1226C194.475 10.3745 194.355 10.6929 194.21 11.0779C194.071 11.4534 193.908 11.9049 193.711 12.4325C193.519 12.9506 193.294 13.5637 193.034 14.2719C192.535 15.6265 192.026 16.7957 191.508 17.7701C190.994 18.7397 190.447 19.5382 189.866 20.1656C189.285 20.7834 188.661 21.2445 187.989 21.5392C187.322 21.8291 186.582 21.9764 185.776 21.9764C184.715 21.9764 183.894 21.7435 183.318 21.2825C182.752 20.8167 182.463 20.1513 182.463 19.2863C182.463 18.9726 182.502 18.6731 182.574 18.3927C182.651 18.1123 182.747 17.8699 182.872 17.6607C182.996 17.4516 183.14 17.2853 183.304 17.1617C183.472 17.0381 183.649 16.9763 183.836 16.9763C184 16.9763 184.124 17.0239 184.211 17.1237C184.307 17.2187 184.35 17.3518 184.35 17.5324C184.35 17.618 184.336 17.694 184.302 17.7558C184.278 17.8176 184.23 17.8746 184.163 17.9222C184.096 17.9697 184 18.022 183.88 18.079C183.76 18.136 183.611 18.1978 183.428 18.2739C183.246 18.3547 183.112 18.4688 183.025 18.6161C182.939 18.7587 182.896 18.9868 182.896 19.3053C182.896 20.0657 183.126 20.6409 183.592 21.0306C184.052 21.4156 184.753 21.6057 185.694 21.6057C186.074 21.6057 186.424 21.5724 186.746 21.5106C187.062 21.4489 187.36 21.3395 187.638 21.1779C187.922 21.0116 188.186 20.7834 188.435 20.4983C188.69 20.2131 188.949 19.8519 189.203 19.4098C189.468 18.9726 189.736 18.445 190.01 17.8319C190.293 17.2187 190.596 16.4963 190.927 15.6693C191.201 14.9706 191.441 14.367 191.637 13.8584C191.844 13.3498 192.017 12.9173 192.161 12.5608C192.309 12.1949 192.434 11.8907 192.535 11.653C192.636 11.4106 192.718 11.2062 192.79 11.0399C192.866 10.8735 192.929 10.7357 192.986 10.6216C193.044 10.5076 193.102 10.403 193.164 10.2984L193.174 10.3032ZM199.251 6.72896C198.857 6.72896 198.459 6.78599 198.051 6.90482C197.643 7.02364 197.254 7.18049 196.88 7.38011C197.235 7.36585 197.581 7.34684 197.912 7.31357C198.248 7.27555 198.55 7.23277 198.814 7.18524C199.078 7.13771 199.285 7.08543 199.443 7.02839C199.602 6.9666 199.678 6.90482 199.678 6.84303C199.678 6.76698 199.539 6.73371 199.256 6.73371L199.251 6.72896Z" fill="#FEFDFA"/>
</g>
<defs>
<linearGradient id="paint0_linear_642_68600" x1="73.3754" y1="0.22387" x2="73.3754" y2="29" gradientUnits="userSpaceOnUse">
<stop stop-color="#C08D58"/>
<stop offset="1" stop-color="#FEF1BA"/>
</linearGradient>
<clipPath id="clip0_642_68600">
<rect width="200" height="28.777" fill="white" transform="translate(0 0.223022)"/>
</clipPath>
</defs>
</svg>
