<svg width="17" height="17" viewBox="0 0 17 17" fill="none" xmlns="http://www.w3.org/2000/svg">
<g clip-path="url(#clip0_70_60)">
<path d="M9.03347 13.2291C9.03347 13.2291 9.94579 13.2144 10.7517 11.2108C10.9906 10.6165 11.0622 10.0599 10.7169 10.0032C10.0232 9.89087 9.92934 12.7502 7.69354 12.1223C6.11561 12.2966 7.53488 12.8048 7.6471 12.8374C7.75933 12.87 8.50524 13.5 8.50524 13.5L9.03347 13.2291Z" fill="url(#paint0_linear_70_60)"/>
<path d="M7.65588 12.1864C7.65588 12.1864 8.60086 12.1096 9.31989 9.99522C9.53279 9.36794 9.50367 9.03592 9.14415 9.00131C8.4191 8.93209 8.55768 11.6337 6.20477 11.1384C4.57993 11.4239 6.07924 11.85 6.19774 11.876C6.31624 11.9019 7.12465 12.5 7.12465 12.5L7.65588 12.1864Z" fill="url(#paint1_linear_70_60)"/>
<path d="M10.3089 13.4684C10.3089 13.4684 10.9132 13.6949 11.6138 12.7317C11.9862 12.2203 12.0825 11.6334 11.7514 11.5186C11.0865 11.2879 10.4282 13.2813 8.85386 13.1878C7.27853 13.0931 8.22738 13.7789 8.33324 13.831C8.43909 13.8831 9.64104 14 9.64104 14L10.3089 13.4695V13.4684Z" fill="url(#paint2_linear_70_60)"/>
<path d="M7.91243 12.0817C7.91243 12.0817 8.10832 12.7628 9.18053 13.1131C10.2518 13.4645 11.1016 12.4454 11.7214 12.6488C12.3422 12.8522 11.6722 13.9894 10.2575 14.3798C8.84268 14.7702 6.98123 14.1671 5.82765 13.1861C4.8198 12.3293 3.61321 12.1927 3.83276 13.3412C3.17411 13.5456 2.95361 12.3827 2.95361 12.3293V11.5496L3.9009 11L5.25606 11.2301L6.96988 11.8455L7.91149 12.0807L7.91243 12.0817Z" fill="url(#paint3_linear_70_60)"/>
<path d="M7.91626 12.2208C7.94695 12.1822 8.01025 12.1478 8.11861 12.1291C8.43508 12.0749 9.17446 11.9915 9.37489 11.7329C9.52545 11.5379 9.5034 11.1981 8.91841 11.0386C8.33343 10.8791 7.40704 11.0021 7.04358 10.7967C6.77314 10.6435 6.09418 10.1524 5.48905 9.81776C5.28383 9.70413 4.69309 9.23707 3.73697 9.46643C2.48165 9.6447 2.09902 9.1985 2.09134 8.5L1.45361 9.78128L1.8679 11.6214C1.8679 11.6214 2.71661 12.1656 2.86813 12.5961C3.17117 12.5732 3.55093 13.4427 3.78301 13.5C3.40229 12.3907 4.02371 11.6109 5.37397 11.9831C7.50773 12.5711 7.91626 12.2219 7.91626 12.2219V12.2208Z" fill="url(#paint4_linear_70_60)"/>
<path d="M7.87375 4.23222C7.87375 4.23222 6.96144 4.24482 6.15554 5.96215C5.91658 6.47159 5.84499 6.94863 6.19037 6.99723C6.88404 7.09354 6.97789 4.64265 9.21369 5.18089C10.7916 5.03148 9.37235 4.59585 9.26013 4.56794C9.1479 4.54004 8.40199 4 8.40199 4L7.87375 4.23222Z" fill="url(#paint5_linear_70_60)"/>
<path d="M9.75134 5.26883C9.75134 5.26883 8.80636 5.33465 8.08734 7.14696C7.87444 7.68462 7.90356 7.96921 8.26308 7.99888C8.98813 8.05821 8.84955 5.74254 11.2025 6.16711C12.8273 5.92238 11.328 5.55713 11.2095 5.53488C11.091 5.51264 10.2826 5 10.2826 5L9.75134 5.26883Z" fill="url(#paint6_linear_70_60)"/>
<path d="M6.5985 3.92526C6.5985 3.92526 5.9941 3.7441 5.29345 4.51467C4.921 4.92378 4.82475 5.39326 5.15583 5.48512C5.82086 5.66968 6.47916 4.07495 8.05368 4.1498C9.6282 4.22465 8.68021 3.67691 8.57435 3.63523C8.46848 3.59356 7.26642 3.5 7.26642 3.5L6.5985 3.92441V3.92526Z" fill="url(#paint7_linear_70_60)"/>
<path d="M8.99457 5.0728C8.99457 5.0728 8.79867 4.489 7.72642 4.18874C6.65512 3.88759 5.80527 4.76109 5.18539 4.58674C4.56551 4.41239 5.2346 3.43764 6.64944 3.10303C8.06428 2.76843 9.92581 3.28531 11.0795 4.12622C12.0873 4.86059 13.294 4.9777 13.0744 3.99326C12.8539 3.00882 13.9536 4.8148 13.9536 4.86059V5.52891L13.0063 6L11.6511 5.80276L9.93717 5.27532L8.99552 5.07368L8.99457 5.0728Z" fill="url(#paint8_linear_70_60)"/>
<path d="M8.99096 5.23269C8.96027 5.26986 8.89698 5.30301 8.78861 5.3211C8.47215 5.37334 7.73276 5.45371 7.53233 5.70286C7.38177 5.89073 7.40383 6.21824 7.98881 6.37195C8.5738 6.52666 9.50019 6.40711 9.86365 6.60502C10.1341 6.7527 10.813 7.22589 11.4182 7.54838C11.6234 7.65788 12.2141 8.10796 13.1703 7.88694C14.4256 7.71515 14.8945 8.16221 14.8159 8.81824C14.9463 9.60487 15.4536 7.58354 15.4536 7.58354L15.0393 5.81036C15.0393 5.81036 14.1906 5.28594 14.0391 4.87102C13.7361 4.89312 13.3563 4.05526 13.1242 4C13.5049 5.06893 12.8835 5.8204 11.5333 5.46175C9.39949 4.89513 8.99096 5.23168 8.99096 5.23168V5.23269Z" fill="url(#paint9_linear_70_60)"/>
<path d="M7.95361 16.499C7.95361 15.7007 7.42979 14.9917 6.65825 14.7644C3.93632 13.9612 1.95166 11.4603 1.95166 8.5C1.95166 5.5397 3.93632 3.03879 6.65825 2.23461C7.42979 2.00734 7.95361 1.29835 7.95361 0.5C3.76203 0.799138 0.453613 4.26545 0.453613 8.5C0.453613 12.7346 3.76203 16.2009 7.95361 16.5V16.499Z" fill="url(#paint10_linear_70_60)"/>
<path d="M8.95361 0.5C8.95361 1.29845 9.47744 2.00753 10.249 2.23482C12.9709 3.03813 14.9556 5.53934 14.9556 8.5C14.9556 11.4607 12.9709 13.9619 10.249 14.7652C9.47744 14.9925 8.95361 15.7025 8.95361 16.5C13.1462 16.2008 16.4536 12.7341 16.4536 8.49903C16.4536 4.26396 13.1462 0.799174 8.95361 0.5Z" fill="url(#paint11_linear_70_60)"/>
</g>
<defs>
<linearGradient id="paint0_linear_70_60" x1="9.20582" y1="10.0568" x2="8.64246" y2="12.6787" gradientUnits="userSpaceOnUse">
<stop stop-color="#F5CB00"/>
<stop offset="1" stop-color="#DA344B"/>
</linearGradient>
<linearGradient id="paint1_linear_70_60" x1="7.6187" y1="9.13953" x2="7.24305" y2="11.7054" gradientUnits="userSpaceOnUse">
<stop stop-color="#F5CB00"/>
<stop offset="1" stop-color="#DA344B"/>
</linearGradient>
<linearGradient id="paint2_linear_70_60" x1="10.4088" y1="11.326" x2="9.52161" y2="13.5186" gradientUnits="userSpaceOnUse">
<stop stop-color="#F5CB00"/>
<stop offset="1" stop-color="#DA344B"/>
</linearGradient>
<linearGradient id="paint3_linear_70_60" x1="5.36016" y1="11.9924" x2="11.6724" y2="14.3559" gradientUnits="userSpaceOnUse">
<stop stop-color="#DA344B"/>
<stop offset="1" stop-color="#F5CB00"/>
</linearGradient>
<linearGradient id="paint4_linear_70_60" x1="1.45361" y1="10.999" x2="9.45353" y2="10.999" gradientUnits="userSpaceOnUse">
<stop stop-color="#DA344B"/>
<stop offset="1" stop-color="#F5CB00"/>
</linearGradient>
<linearGradient id="paint5_linear_70_60" x1="7.70048" y1="6.95222" x2="8.11925" y2="4.67741" gradientUnits="userSpaceOnUse">
<stop stop-color="#00F2FE"/>
<stop offset="1" stop-color="#534DDB"/>
</linearGradient>
<linearGradient id="paint6_linear_70_60" x1="9.78785" y1="7.88115" x2="10.0662" y2="5.66938" gradientUnits="userSpaceOnUse">
<stop stop-color="#00F2FE"/>
<stop offset="1" stop-color="#534DDB"/>
</linearGradient>
<linearGradient id="paint7_linear_70_60" x1="6.49954" y1="5.63906" x2="7.09766" y2="3.79059" gradientUnits="userSpaceOnUse">
<stop stop-color="#00F2FE"/>
<stop offset="1" stop-color="#534DDB"/>
</linearGradient>
<linearGradient id="paint8_linear_70_60" x1="11.5829" y1="5.06663" x2="5.53877" y2="2.42717" gradientUnits="userSpaceOnUse">
<stop stop-color="#534DDB"/>
<stop offset="1" stop-color="#00F2FE"/>
</linearGradient>
<linearGradient id="paint9_linear_70_60" x1="15.4536" y1="6.50054" x2="7.4537" y2="6.50054" gradientUnits="userSpaceOnUse">
<stop stop-color="#534DDB"/>
<stop offset="1" stop-color="#00F2FE"/>
</linearGradient>
<linearGradient id="paint10_linear_70_60" x1="3.12463" y1="1.24105" x2="7.41874" y2="16.6686" gradientUnits="userSpaceOnUse">
<stop stop-color="#F5CB00"/>
<stop offset="1" stop-color="#DA344B"/>
</linearGradient>
<linearGradient id="paint11_linear_70_60" x1="9.31588" y1="-0.0342399" x2="13.611" y2="15.394" gradientUnits="userSpaceOnUse">
<stop stop-color="#00F2FE"/>
<stop offset="1" stop-color="#534DDB"/>
</linearGradient>
<clipPath id="clip0_70_60">
<rect width="16" height="16" fill="white" transform="translate(0.453613 0.5)"/>
</clipPath>
</defs>
</svg>
