<svg width="41" height="40" viewBox="0 0 41 40" fill="none" xmlns="http://www.w3.org/2000/svg">
<g clip-path="url(#clip0_192_11481)">
<path d="M20.7124 0C15.4093 0 10.3187 2.10844 6.57178 5.85781C2.82107 9.60869 0.713476 14.6956 0.712402 20C0.712402 25.3022 2.82178 30.3928 6.57178 34.1422C10.3187 37.8916 15.4093 40 20.7124 40C26.0155 40 31.1062 37.8916 34.853 34.1422C38.603 30.3928 40.7124 25.3022 40.7124 20C40.7124 14.6978 38.603 9.60719 34.853 5.85781C31.1062 2.10844 26.0155 0 20.7124 0Z" fill="url(#paint0_linear_192_11481)"/>
<path d="M9.76556 19.7891C15.5968 17.2491 19.4843 15.5745 21.4281 14.7653C26.9843 12.455 28.1374 12.0538 28.8906 12.0402C29.0562 12.0375 29.4249 12.0784 29.6656 12.273C29.8656 12.437 29.9218 12.6589 29.9499 12.8147C29.9749 12.9703 30.0093 13.325 29.9812 13.6019C29.6812 16.7644 28.3781 24.4388 27.7156 27.9809C27.4374 29.4797 26.8843 29.9822 26.3499 30.0313C25.1874 30.1381 24.3062 29.2637 23.1812 28.5266C21.4218 27.3725 20.4281 26.6544 18.7187 25.5284C16.7437 24.2272 18.0249 23.5119 19.1499 22.3431C19.4437 22.0372 24.5624 17.3825 24.6593 16.9603C24.6718 16.9075 24.6843 16.7106 24.5656 16.6069C24.4499 16.5028 24.2781 16.5384 24.1531 16.5666C23.9749 16.6066 21.1656 18.4653 15.7156 22.1425C14.9187 22.6906 14.1968 22.9578 13.5468 22.9438C12.8343 22.9284 11.4593 22.54 10.4374 22.2081C9.18743 21.8009 8.19056 21.5856 8.27806 20.8941C8.32181 20.5341 8.81868 20.1656 9.76556 19.7891Z" fill="white"/>
</g>
<defs>
<linearGradient id="paint0_linear_192_11481" x1="2000.71" y1="0" x2="2000.71" y2="4000" gradientUnits="userSpaceOnUse">
<stop stop-color="#2AABEE"/>
<stop offset="1" stop-color="#229ED9"/>
</linearGradient>
<clipPath id="clip0_192_11481">
<rect width="40" height="40" fill="white" transform="translate(0.712402)"/>
</clipPath>
</defs>
</svg>
