<svg width="132" height="128" viewBox="0 0 132 128" fill="none" xmlns="http://www.w3.org/2000/svg">
<path fill-rule="evenodd" clip-rule="evenodd" d="M20.8611 74.0257C20.4936 71.5116 19.0037 69.3629 16.888 67.9275C14.7723 66.4921 12.021 65.7527 9.16034 66.0745C6.28977 66.3964 3.83639 67.7013 2.19749 69.5542C0.558584 71.4072 -0.275766 73.8169 0.0818129 76.331C0.449324 78.8451 1.93923 80.9938 4.05491 82.4291C6.17058 83.8645 8.92195 84.5953 11.7925 84.2821C14.6631 83.9602 17.1165 82.6553 18.7554 80.8024C19.0136 80.5066 19.252 80.2021 19.4705 79.889L34.9557 88.0663L86 96L20.8313 76.5745C20.9803 75.7481 20.9902 74.8956 20.871 74.0257H20.8611ZM14.7127 70.3807C16.1133 71.3289 17.0966 72.7556 17.3449 74.4171C17.5833 76.0787 17.0271 77.6707 15.9444 78.8972C14.8518 80.1238 13.2328 80.9851 11.3356 81.2026C9.43845 81.4113 7.62076 80.9242 6.22025 79.976C4.81973 79.0277 3.83639 77.6011 3.58807 75.9395C3.34968 74.2779 3.89598 72.686 4.98859 71.4594C6.08119 70.2328 7.70022 69.3716 9.59738 69.1541C11.4945 68.9453 13.3122 69.4238 14.7127 70.3807Z" fill="#352D25"/>
<path fill-rule="evenodd" clip-rule="evenodd" d="M47.1384 0.0173889C27.1339 11.5115 16.4867 29.9785 30.1306 48.6369C32.651 52.0799 35.3798 55.1664 37.801 58.2616C34.8539 44.7157 24.554 34.1954 34.5761 20.7276C29.9222 46.0546 46.6224 49.4802 44.6081 73.7378C44.7966 79.311 42.6235 85.9883 36.5309 94.7523C28.1758 106.785 57.9146 84.2581 55.166 62.3654C55.166 62.3654 64.9797 77.459 50.6511 95.7435C36.3324 114.019 55.166 123.905 60.4648 125.957L65.7636 128C65.7636 128 53.2707 119.436 58.897 110.194C67.1627 96.6303 71.3403 95.674 72.0448 79.1805C72.0448 79.1805 78.5145 84.1973 75.5773 95.5348C72.6302 106.881 76.8078 114.367 83.4263 117.436C90.0449 120.505 92.3867 119.636 94.8178 120.053C83.0393 111.541 82.2157 108.072 89.9357 92.4831C95.6116 81.0238 113.979 59.3485 85.4605 68.2429C76.8673 70.9208 71.9654 70.9556 71.37 67.3474C70.7846 63.7392 70.0404 59.2702 68.036 59.2702C66.0315 59.2702 64.3843 58.4442 64.3843 58.4442L64.2653 54.836C64.2653 54.836 61.3182 54.523 60.2664 54.0101C59.2046 53.4971 60.7327 49.9845 60.7327 49.9845C60.7327 49.9845 53.7867 49.6715 52.725 49.1585C51.6632 48.6456 59.0756 36.056 56.843 33.4824C54.6103 30.9002 49.1924 30.2828 47.7735 25.64C46.4041 21.1276 46.4736 12.3288 47.1285 0L47.1384 0.0173889Z" fill="url(#paint0_linear_91_34408)"/>
<path fill-rule="evenodd" clip-rule="evenodd" d="M20.8611 96.9788C20.4936 99.4924 19.0037 101.641 16.888 103.076C14.7723 104.511 12.021 105.241 9.16034 104.928C6.28977 104.607 3.83639 103.302 2.19749 101.449C0.558584 99.5967 -0.275766 97.1875 0.0818129 94.6739C0.449324 92.1603 1.93923 90.012 4.05491 88.5769C6.17058 87.1418 8.92195 86.4112 11.7925 86.7243C14.6631 87.0461 17.1165 88.3508 18.7554 90.2034C19.0136 90.4991 19.252 90.8035 19.4705 91.1166L34.9557 82.9322L86 75L20.8313 94.4217C20.9803 95.248 20.9902 96.1003 20.871 96.9701L20.8611 96.9788ZM14.7127 100.623C16.1133 99.675 17.0966 98.2486 17.3449 96.5874C17.5833 94.9261 17.0271 93.3345 15.9444 92.1081C14.8518 90.8818 13.2328 90.012 11.3356 89.8033C9.43845 89.5945 7.62076 90.0729 6.22025 91.0296C4.81973 91.9777 3.83639 93.4041 3.58807 95.0653C3.34968 96.7265 3.89598 98.3182 4.98859 99.5446C6.08119 100.771 7.70022 101.632 9.59738 101.849C11.4945 102.058 13.3122 101.58 14.7127 100.623Z" fill="#352D25"/>
<defs>
<linearGradient id="paint0_linear_91_34408" x1="62.5" y1="0" x2="62.5" y2="128" gradientUnits="userSpaceOnUse">
<stop stop-color="#C08D58"/>
<stop offset="1" stop-color="#FEF1BA"/>
</linearGradient>
</defs>
</svg>
