<svg width="132" height="128" viewBox="0 0 132 128" fill="none" xmlns="http://www.w3.org/2000/svg">
<path fill-rule="evenodd" clip-rule="evenodd" d="M86.3722 28.3946C70.2114 43.7913 75.6385 49.4167 73.6687 68.1809C71.4677 89.1348 51.5279 73.5532 43.9601 93.4074C38.5129 107.695 51.95 116.551 63.2465 116.259C82.6837 115.763 80.2315 92.0546 63.8697 100.892C58.1511 103.977 65.8998 91.714 75.8697 93.6604C86.0606 95.6459 90.5531 103.179 88.5229 110.225C85.9501 119.13 78.2817 124.065 68.9852 126.254C62.935 127.675 57.1661 128.191 51.739 127.938C-19.256 119.821 -13.5274 18.2826 46.6134 12.4042C74.945 9.63044 93.2968 21.8057 86.3722 28.4043V28.3946Z" fill="#352D25"/>
<path fill-rule="evenodd" clip-rule="evenodd" d="M91.5289 90.7415C97.1087 91.9991 100.435 89.5717 100.214 85.3993C100.074 82.6795 99.9337 79.9597 99.7935 77.2398C102.188 73.5451 102.428 74.637 99.3727 71.2835C99.3727 71.2835 101.506 70.3574 102.779 68.7488C104.051 67.1306 100.515 64.4497 100.976 63.7479C101.436 63.0557 107.757 59.0491 105.524 58.5519C103.29 58.0547 94.3539 49.9147 92.8813 45.6058C90.3268 38.1482 88.7741 32.2406 86.4901 28C70.0813 43.0712 75.8213 49.0471 73.8579 67.8325C71.664 88.8211 51.7891 73.2137 44.2458 93.1007C38.8964 107.197 51.8292 116.019 62.9788 116C47.5516 100.354 56.7779 82.933 91.5289 90.7415Z" fill="url(#paint0_linear_91_34365)"/>
<path fill-rule="evenodd" clip-rule="evenodd" d="M78.9949 36.709C74.1986 51.7856 76.3549 51.7075 75.3976 65.6995C74.5109 78.7731 66.2383 82.7988 55.7186 87.7038C37.3897 96.2339 44.5943 117.447 68.4651 114.564L72.4856 114.037L69.0294 116.372C58.3787 121.502 42.0954 115.492 39.6065 103.308C37.4199 92.6381 45.7128 83.7172 55.5372 80.0238C73.2212 73.3795 68.717 66.3835 71.7399 51.2482C73.3521 43.1676 73.8157 42.6595 78.9949 36.7188V36.709Z" fill="white"/>
<defs>
<linearGradient id="paint0_linear_91_34365" x1="74.5" y1="28" x2="74.5" y2="116" gradientUnits="userSpaceOnUse">
<stop stop-color="#C08D58"/>
<stop offset="1" stop-color="#FEF1BA"/>
</linearGradient>
</defs>
</svg>
