<svg width="132" height="128" viewBox="0 0 132 128" fill="none" xmlns="http://www.w3.org/2000/svg">
<g clip-path="url(#clip0_91_34348)">
<path d="M120.085 38.4471C119.588 36.6808 118.32 35.2348 116.647 34.5324C113.381 33.1484 107.347 31 101.445 31C92.7434 31 69.8034 36.5466 65.0268 36.5466C60.2501 36.5466 47.34 37.91 47.34 37.91C47.34 37.91 34.0547 33.3343 33 33.2413V58.0201C33 58.0201 47.5733 53.4445 49.3886 53.1966C51.2039 52.9487 77.7746 56.1196 85.5227 57.2868C93.2606 58.4539 94.8427 61.0878 94.5587 63.1329C94.2747 65.178 93.2707 80.95 96.4247 91.4647C99.5787 101.979 102.783 110.842 103.929 113.176C105.075 115.51 107.844 112.205 107.844 111.616C107.844 111.027 104.781 108.011 105.268 96.5258C105.745 85.0402 106.607 69.1649 104.315 62.9366C102.641 58.4023 111.252 56.1919 116.059 55.3243C118.117 54.9525 119.781 53.3928 120.277 51.3271C120.998 48.311 121.535 43.6528 120.085 38.4574V38.4471Z" fill="url(#paint0_linear_91_34348)"/>
<path d="M94.3297 63.0095H96V66H94.3297C93.5934 66 93 65.4873 93 64.8513V64.1487C93 63.5127 93.5934 63 94.3297 63V63.0095Z" fill="url(#paint1_linear_91_34348)"/>
<path d="M94.3297 69.0109H96V76H94.3297C93.5934 76 93 75.413 93 74.6848V70.3152C93 69.587 93.5934 69 94.3297 69V69.0109Z" fill="url(#paint2_linear_91_34348)"/>
<path d="M95.3297 79.0099H97V84H95.3297C94.5934 84 94 83.4653 94 82.802V80.198C94 79.5347 94.5934 79 95.3297 79V79.0099Z" fill="url(#paint3_linear_91_34348)"/>
<path d="M7.51715 64.7703L13.4644 56.4673C13.5354 56.374 13.5252 56.2496 13.4543 56.1978C13.3834 56.1459 13.2618 56.177 13.201 56.2703L7.27399 64.5526C7.17267 64.4489 7.07136 64.3453 6.97004 64.2416C6.98017 64.2416 6.9903 64.2209 7.00043 64.2105L12.1473 57.0167C12.2182 56.9234 12.2081 56.799 12.1372 56.7471C12.0663 56.6953 11.9447 56.7264 11.8839 56.8197L6.75727 63.9825C6.63569 63.827 6.53438 63.6508 6.43306 63.4746L12.1473 55.4825C12.2182 55.3892 12.2081 55.2648 12.1372 55.213C12.0663 55.1612 11.9447 55.1923 11.8839 55.2856L6.27095 63.1325C6.27095 63.1325 6.27095 63.1118 6.26082 63.1118C6.15951 62.8837 6.06832 62.6349 6.00753 62.3758L10.6478 55.8868C10.7188 55.7935 10.7086 55.6691 10.6377 55.6173C10.5668 55.5654 10.4452 55.5965 10.3844 55.6898L5.93661 61.8989C5.90621 61.4118 5.9974 60.9142 6.32161 60.4685L10.4756 54.6636C10.6276 54.4563 10.6073 54.1868 10.4452 54.0624C10.3135 53.9587 10.121 53.9898 9.96901 54.1142C8.30742 55.5758 -0.892127 63.8166 0.0703804 66.2215C1.05315 68.6575 39.675 96.1372 45.3893 100.19C45.7844 100.47 46.3721 100.304 46.7165 99.8274L46.4835 100.149L47.4257 100.854C47.6689 101.04 48.0134 100.988 48.2869 100.771L48.2363 100.833L83.6768 127.369C83.6768 127.369 86.8075 129.173 87 128.986L48.6415 100.263L48.5909 100.325C48.7125 99.9933 48.6517 99.6409 48.4085 99.4646L47.4663 98.7598C47.8006 98.2829 47.7905 97.6714 47.4257 97.3707C46.2707 96.3964 44.2444 93.8567 46.0681 88.8915C48.1654 83.18 48.7327 82.8172 47.9931 82.1848C47.7398 81.9775 47.3346 82.0708 47.1015 82.4025L44.7105 85.7507C44.4876 86.0616 44.2444 86.3415 43.9709 86.5903L46.6456 82.8482C46.7165 82.755 46.7064 82.6306 46.6355 82.5787C46.5646 82.5269 46.443 82.558 46.3822 82.6513L43.0691 87.2744C42.7449 87.4714 42.4004 87.6165 42.056 87.7305L46.6355 81.3245C46.7064 81.2312 46.6963 81.1068 46.6253 81.055C46.5544 81.0031 46.4328 81.0342 46.3721 81.1275L41.5494 87.8653C41.3569 87.8964 41.1745 87.9171 40.982 87.9275L45.3184 81.8739C45.3893 81.7806 45.3792 81.6562 45.3082 81.6044C45.2373 81.5525 45.1157 81.5836 45.0549 81.6769L40.5869 87.9275C40.3944 87.9068 40.2019 87.886 40.0195 87.8342C40.0094 87.8342 39.9891 87.8342 39.979 87.8238L45.3285 80.3501C45.3994 80.2568 45.3893 80.1324 45.3184 80.0806C45.2474 80.0287 45.1259 80.0598 45.0651 80.1531L39.6446 87.7305C39.5028 87.6891 39.361 87.6476 39.2191 87.5958L44.0215 80.8891C44.0924 80.7958 44.0823 80.6714 44.0114 80.6196C43.9405 80.5678 43.8189 80.5989 43.7581 80.6922L38.8949 87.4921C38.7227 87.4299 38.5403 87.3677 38.3579 87.2952L44.0215 79.3757C44.0924 79.2824 44.0823 79.158 44.0114 79.1062C43.9405 79.0544 43.8189 79.0855 43.7581 79.1788L38.0438 87.1708C37.9121 87.119 37.7804 87.0568 37.6487 86.9946L42.7145 79.9147C42.7854 79.8214 42.7753 79.697 42.7044 79.6452C42.6335 79.5934 42.5119 79.6245 42.4511 79.7178L37.3447 86.8494C37.1826 86.7665 37.0104 86.6836 36.8483 86.5903L42.7145 78.391C42.7854 78.2977 42.7753 78.1733 42.7044 78.1214C42.6335 78.0696 42.5119 78.1007 42.4511 78.194L36.5545 86.4244C36.4228 86.3519 36.3012 86.2793 36.1695 86.1964C36.1999 86.1757 36.2201 86.1549 36.2404 86.1238L41.3873 78.93C41.4582 78.8367 41.4481 78.7123 41.3771 78.6605C41.3062 78.6086 41.1846 78.6397 41.1239 78.733L35.977 85.9269C35.977 85.9269 35.9364 85.9995 35.9364 86.0409C35.7743 85.9373 35.6122 85.8232 35.4501 85.7092L41.3974 77.3958C41.4683 77.3025 41.4582 77.1782 41.3873 77.1263C41.3164 77.0745 41.1948 77.1056 41.134 77.1989L35.1867 85.5123L34.8118 85.2324C34.8118 85.2324 34.903 85.1909 34.9435 85.1391L40.0904 77.9452C40.1613 77.8519 40.1512 77.7275 40.0803 77.6757C40.0094 77.6239 39.8878 77.655 39.827 77.7483L34.6801 84.9421C34.6801 84.9421 34.6295 85.0458 34.6295 85.0976L34.1431 84.7348L40.0904 76.4214C40.1613 76.3282 40.1512 76.2038 40.0803 76.1519C40.0094 76.1001 39.8878 76.1312 39.827 76.2245L33.8797 84.5379L33.5048 84.258C33.5048 84.258 33.596 84.2165 33.6366 84.1647L38.7834 76.9708C38.8544 76.8775 38.8442 76.7532 38.7733 76.7013C38.7024 76.6495 38.5808 76.6806 38.52 76.7739L33.3731 83.9678C33.3731 83.9678 33.3225 84.0714 33.3225 84.1232L32.8362 83.7604L38.7834 75.4471C38.8544 75.3538 38.8442 75.2294 38.7733 75.1776C38.7024 75.1257 38.5808 75.1568 38.52 75.2501L32.5727 83.5635L32.1979 83.2836C32.1979 83.2836 32.2891 83.2421 32.3296 83.1903L37.4765 75.9965C37.5474 75.9032 37.5372 75.7788 37.4663 75.7269C37.3954 75.6751 37.2738 75.7062 37.213 75.7995L32.0662 82.9934C32.0662 82.9934 32.0155 83.097 32.0155 83.1489L31.5292 82.7861L37.4765 74.4727C37.5474 74.3794 37.5372 74.255 37.4663 74.2032C37.3954 74.1513 37.2738 74.1824 37.213 74.2757L31.2658 82.5891L30.8909 82.3092C30.8909 82.3092 30.9821 82.2678 31.0226 82.2159L36.1695 75.0221C36.2404 74.9288 36.2303 74.8044 36.1593 74.7526C36.0884 74.7007 35.9668 74.7318 35.9061 74.8251L30.7592 82.019C30.7592 82.019 30.7085 82.1226 30.7085 82.1745L30.2222 81.8117L36.1695 73.4983C36.2404 73.405 36.2303 73.2806 36.1593 73.2288C36.0884 73.177 35.9668 73.208 35.9061 73.3013L29.9588 81.6147L29.5839 81.3348C29.5839 81.3348 29.6751 81.2934 29.7156 81.2415L34.8625 74.0477C34.9334 73.9544 34.9233 73.83 34.8524 73.7782C34.7814 73.7263 34.6599 73.7574 34.5991 73.8507L29.4522 81.0446C29.4522 81.0446 29.4015 81.1483 29.4015 81.2001L28.9152 80.8373L34.8625 72.5239C34.9334 72.4306 34.9233 72.3062 34.8524 72.2544C34.7814 72.2026 34.6599 72.2337 34.5991 72.327L28.6518 80.6403L28.2769 80.3605C28.2769 80.3605 28.3681 80.319 28.4086 80.2672L33.5555 73.0733C33.6264 72.98 33.6163 72.8556 33.5454 72.8038C33.4745 72.752 33.3529 72.783 33.2921 72.8763L28.1452 80.0702C28.1452 80.0702 28.0945 80.1739 28.0945 80.2257L27.6082 79.8629L33.5555 71.5495C33.6264 71.4562 33.6163 71.3318 33.5454 71.28C33.4745 71.2282 33.3529 71.2593 33.2921 71.3526L27.3448 79.6659L26.9699 79.3861C26.9699 79.3861 27.0611 79.3446 27.1016 79.2928L32.2485 72.0989C32.3194 72.0056 32.3093 71.8812 32.2384 71.8294C32.1675 71.7776 32.0459 71.8087 31.9851 71.902L26.8382 79.0958C26.8382 79.0958 26.7876 79.1995 26.7876 79.2513L26.3012 78.8885L32.2485 70.5751C32.3194 70.4818 32.3093 70.3575 32.2384 70.3056C32.1675 70.2538 32.0459 70.2849 31.9851 70.3782L26.0378 78.6916L25.6629 78.4117C25.6629 78.4117 25.7541 78.3702 25.7947 78.3184L30.9415 71.1245C31.0125 71.0312 31.0023 70.9068 30.9314 70.855C30.8605 70.8032 30.7389 70.8343 30.6781 70.9276L25.5312 78.1214C25.5312 78.1214 25.4806 78.2251 25.4806 78.2769L24.9943 77.9141L30.9415 69.6007C31.0125 69.5075 31.0023 69.3831 30.9314 69.3312C30.8605 69.2794 30.7389 69.3105 30.6781 69.4038L24.7308 77.7172L24.356 77.4373C24.356 77.4373 24.4471 77.3958 24.4877 77.344L29.6346 70.1501C29.7055 70.0568 29.6953 69.9325 29.6244 69.8806C29.5535 69.8288 29.4319 69.8599 29.3711 69.9532L24.2243 77.1471C24.2243 77.1471 24.1736 77.2507 24.1736 77.3025L23.6873 76.9397L29.6346 68.6264C29.7055 68.5331 29.6953 68.4087 29.6244 68.3568C29.5535 68.305 29.4319 68.3361 29.3711 68.4294L23.4238 76.7428L23.049 76.4629C23.049 76.4629 23.1402 76.4214 23.1807 76.3696L28.3276 69.1757C28.3985 69.0825 28.3884 68.9581 28.3174 68.9062C28.2465 68.8544 28.1249 68.8855 28.0641 68.9788L22.9173 76.1727C22.9173 76.1727 22.8666 76.2763 22.8666 76.3282L22.3803 75.9654L28.3276 67.652C28.3985 67.5587 28.3884 67.4343 28.3174 67.3825C28.2465 67.3306 28.1249 67.3617 28.0641 67.455L22.1169 75.7684L21.742 75.4885C21.742 75.4885 21.8332 75.4471 21.8737 75.3952L27.0206 68.2014C27.0915 68.1081 27.0814 67.9837 27.0105 67.9319C26.9395 67.88 26.818 67.9111 26.7572 68.0044L21.6103 75.1983C21.6103 75.1983 21.5596 75.3019 21.5596 75.3538L21.0733 74.991L27.0206 66.6776C27.0915 66.5843 27.0814 66.4599 27.0105 66.4081C26.9395 66.3562 26.818 66.3873 26.7572 66.4806L20.8099 74.794L20.435 74.5141C20.435 74.5141 20.5262 74.4727 20.5667 74.4208L25.7136 67.227C25.7845 67.1337 25.7744 67.0093 25.7035 66.9575C25.6326 66.9056 25.511 66.9367 25.4502 67.03L20.3033 74.2239C20.3033 74.2239 20.2526 74.3276 20.2526 74.3794L19.7663 74.0166L25.7136 65.7032C25.7845 65.6099 25.7744 65.4855 25.7035 65.4337C25.6326 65.3819 25.511 65.413 25.4502 65.5063L19.5029 73.8196L19.128 73.5398C19.128 73.5398 19.2192 73.4983 19.2597 73.4465L24.4066 66.2526C24.4775 66.1593 24.4674 66.0349 24.3965 65.9831C24.3256 65.9313 24.204 65.9623 24.1432 66.0556L18.9963 73.2495C18.9963 73.2495 18.9457 73.3532 18.9457 73.405L18.4593 73.0422L24.4066 64.7288C24.4775 64.6355 24.4674 64.5111 24.3965 64.4593C24.3256 64.4075 24.204 64.4386 24.1432 64.5319L18.1959 72.8452L17.821 72.5654C17.821 72.5654 17.9122 72.5239 17.9528 72.4721L23.0996 65.2782C23.1706 65.1849 23.1604 65.0605 23.0895 65.0087C23.0186 64.9569 22.897 64.988 22.8362 65.0813L17.6893 72.2751C17.6893 72.2751 17.6387 72.3788 17.6387 72.4306L17.1524 72.0678L23.0996 63.7544C23.1706 63.6611 23.1604 63.5368 23.0895 63.4849C23.0186 63.4331 22.897 63.4642 22.8362 63.5575L16.8889 71.8709L16.5141 71.591C16.5141 71.591 16.6052 71.5495 16.6458 71.4977L21.7927 64.3038C21.8636 64.2105 21.8534 64.0861 21.7825 64.0343C21.7116 63.9825 21.59 64.0136 21.5292 64.1069L16.3823 71.3007C16.3823 71.3007 16.3317 71.4044 16.3317 71.4562L15.8454 71.0934L21.7927 62.78C21.8636 62.6868 21.8534 62.5624 21.7825 62.5105C21.7116 62.4587 21.59 62.4898 21.5292 62.5831L15.5819 70.8965L15.2071 70.6166C15.2071 70.6166 15.2983 70.5751 15.3388 70.5233L20.4857 63.3294C20.5566 63.2361 20.5465 63.1117 20.4755 63.0599C20.4046 63.0081 20.283 63.0392 20.2222 63.1325L15.0754 70.3264C15.0754 70.3264 15.0247 70.43 15.0247 70.4818L14.5384 70.119L20.4857 61.8057C20.5566 61.7124 20.5465 61.588 20.4755 61.5361C20.4046 61.4843 20.283 61.5154 20.2222 61.6087L14.275 69.9221L13.9001 69.6422C13.9001 69.6422 13.9913 69.6007 14.0318 69.5489L19.1787 62.355C19.2496 62.2618 19.2395 62.1374 19.1686 62.0855C19.0976 62.0337 18.9761 62.0648 18.9153 62.1581L13.7684 69.352C13.7684 69.352 13.7177 69.4556 13.7177 69.5075L13.2314 69.1447L19.1787 60.8313C19.2496 60.738 19.2395 60.6136 19.1686 60.5618C19.0976 60.5099 18.9761 60.541 18.9153 60.6343L12.968 68.9477L12.5931 68.6678C12.5931 68.6678 12.6843 68.6264 12.7248 68.5745L17.8717 61.3807C17.9426 61.2874 17.9325 61.163 17.8616 61.1112C17.7906 61.0593 17.6691 61.0904 17.6083 61.1837L12.4614 68.3776C12.4614 68.3776 12.4107 68.4812 12.4107 68.5331L11.9244 68.1703L17.8717 59.8569C17.9426 59.7636 17.9325 59.6392 17.8616 59.5874C17.7906 59.5355 17.6691 59.5666 17.6083 59.6599L11.661 67.9733L11.2861 67.6934C11.2861 67.6934 11.3773 67.652 11.4178 67.6001L16.5647 60.4063C16.6356 60.313 16.6255 60.1886 16.5546 60.1368C16.4837 60.0849 16.3621 60.116 16.3013 60.2093L11.1544 67.4032C11.1544 67.4032 11.1038 67.5069 11.1038 67.5587L10.6174 67.1959L16.5647 58.8825C16.6356 58.7892 16.6255 58.6648 16.5546 58.613C16.4837 58.5612 16.3621 58.5923 16.3013 58.6856L10.354 66.9989L9.97914 66.7191C9.97914 66.7191 10.0703 66.6776 10.1109 66.6258L15.2577 59.4319C15.3287 59.3386 15.3185 59.2142 15.2476 59.1624C15.1767 59.1105 15.0551 59.1416 14.9943 59.2349L9.84743 66.4288C9.84743 66.4288 9.79677 66.5325 9.79677 66.5843L9.31045 66.2215L15.2577 57.9081C15.3287 57.8148 15.3185 57.6904 15.2476 57.6386C15.1767 57.5868 15.0551 57.6179 14.9943 57.7112L9.04703 66.0245L8.67216 65.7447C8.67216 65.7447 8.76334 65.7032 8.80387 65.6514L13.9508 58.4575C14.0217 58.3642 14.0115 58.2398 13.9406 58.188C13.8697 58.1362 13.7481 58.1673 13.6873 58.2606L8.54045 65.4544C8.54045 65.4544 8.48979 65.5581 8.48979 65.6099L8.16558 65.3715C8.11492 65.33 8.06426 65.2886 8.00347 65.2471L7.51715 64.7703Z" fill="#352D25"/>
<path d="M57.6554 73L56.7121 70.1593L54 69.6662L56.6049 68.7657L57.3446 66L58.0306 68.6478L61 69.3446L58.1485 70.0521L57.6554 73Z" fill="#352D25"/>
<path d="M84.6554 119L83.7121 116.159L81 115.655L83.5942 114.755L84.3338 112L85.0306 114.648L88 115.345L85.1378 116.041L84.6554 119Z" fill="#352D25"/>
<path d="M28.6554 105L27.7121 102.159L25 101.655L27.5942 100.755L28.3338 98L29.0306 100.648L32 101.345L29.1378 102.052L28.6554 105Z" fill="#352D25"/>
<path d="M50.2275 32L48.8726 27.9394L45 27.2222L48.7108 25.9394L49.7725 22L50.7634 25.7778L55 26.7677L50.9252 27.7778L50.2275 32Z" fill="#352D25"/>
<path d="M120.232 84L118.879 79.9495L115 79.2323L118.717 77.9394L119.778 74L120.768 77.7778L125 78.7778L120.929 79.7879L120.232 84Z" fill="#352D25"/>
<path d="M63.5709 100L63.1673 98.7847L62 98.5657L63.1127 98.1825L63.4291 97L63.7236 98.1277L65 98.4343L63.7782 98.7299L63.5709 100Z" fill="#352D25"/>
<path d="M91.0926 36L90.5477 34.376L89 34.0926L90.4932 33.5695L90.9074 32L91.3106 33.5041L93 33.9074L91.376 34.3106L91.0926 36Z" fill="#352D25"/>
<path d="M82.5709 80L82.1673 78.7782L81 78.5709L82.1127 78.1782L82.4291 77L82.7345 78.1345L84 78.4291L82.7782 78.7345L82.5709 80Z" fill="#352D25"/>
</g>
<defs>
<linearGradient id="paint0_linear_91_34348" x1="77" y1="31" x2="77" y2="114" gradientUnits="userSpaceOnUse">
<stop stop-color="#C08D58"/>
<stop offset="1" stop-color="#FEF1BA"/>
</linearGradient>
<linearGradient id="paint1_linear_91_34348" x1="94.5" y1="63" x2="94.5" y2="66" gradientUnits="userSpaceOnUse">
<stop stop-color="#C08D58"/>
<stop offset="1" stop-color="#FEF1BA"/>
</linearGradient>
<linearGradient id="paint2_linear_91_34348" x1="94.5" y1="69" x2="94.5" y2="76" gradientUnits="userSpaceOnUse">
<stop stop-color="#C08D58"/>
<stop offset="1" stop-color="#FEF1BA"/>
</linearGradient>
<linearGradient id="paint3_linear_91_34348" x1="95.5" y1="79" x2="95.5" y2="84" gradientUnits="userSpaceOnUse">
<stop stop-color="#C08D58"/>
<stop offset="1" stop-color="#FEF1BA"/>
</linearGradient>
<clipPath id="clip0_91_34348">
<rect width="132" height="128" fill="white"/>
</clipPath>
</defs>
</svg>
