<svg width="423" height="453" viewBox="0 0 423 453" fill="none" xmlns="http://www.w3.org/2000/svg">
<path d="M149.946 1.29414C149.92 1.2687 149.969 1.3294 149.946 1.29414C149.938 1.28238 149.954 1.30589 149.946 1.29414C150.07 1.49202 149.626 2.08841 149.753 2.27647C149.729 2.2412 149.767 2.3098 149.753 2.27647C153.572 8.24012 159.659 12.6666 163.927 18.3203C168.251 24.6788 171.222 32.309 175.175 38.8907C186.925 59.0938 200.454 78.2185 218.505 93.3014C218.487 93.2877 218.522 93.315 218.505 93.3014C218.353 93.19 218.656 93.4127 218.505 93.3014C218.469 93.274 218.54 93.3287 218.505 93.3014C234.021 104.295 252.06 111.087 268.02 121.382C271.862 124.115 276.564 127.618 279.234 131.744C279.234 131.744 279.242 131.756 279.234 131.744C282.514 136.816 283.323 143.124 286.154 148.404C289.95 154.231 296.192 157.973 299.347 164.256C304.986 175.147 306.749 187.711 310.84 199.156C271.054 142.524 219.597 91.2952 156.426 61.7353C156.322 61.6944 156.54 61.778 156.426 61.7353C156.359 61.7119 156.493 61.7586 156.426 61.7353C150.212 58.4547 144.824 54.5928 139.325 50.2179C137.655 48.9004 135.675 47.4409 134.016 46.1155C107.004 24.8558 62.9474 8.64896 30.2001 24.7212C30.1786 24.7272 30.2217 24.7153 30.2001 24.7212C27.7293 25.7159 25.0492 26.3727 22.5605 27.3026C22.4722 27.3363 22.6487 27.2689 22.5605 27.3026C19.3065 28.3884 16.9256 29.3996 13.7468 30.6737C13.7135 30.6875 13.7802 30.6598 13.7468 30.6737C13.2684 30.8757 12.0681 31.0787 11.5916 31.2709C11.6799 31.2372 12.4846 31.4971 12.5728 31.4634C11.4986 31.9975 9.4023 32.3612 8.2624 32.6578C8.31539 32.6478 9.19063 32.8604 9.24362 32.8504C8.8492 32.9363 7.67753 32.3696 7.28119 32.4653C7.33417 32.4553 8.20941 32.6678 8.2624 32.6578C5.44135 33.4613 -5.53602 31.4492 3.75918 34.8346C3.72971 34.8288 3.77884 34.8384 3.75918 34.8346C3.94202 34.8908 4.55756 34.9708 4.7404 35.0271C5.171 35.1728 5.28523 35.1034 5.72162 35.2197C5.72162 35.2197 5.73144 35.2216 5.72162 35.2197C5.68424 35.2021 5.76092 35.2274 5.72162 35.2197C14.0304 36.8197 22.4913 34.9205 30.6203 32.965C43.5019 32.687 56.0636 33.4999 68.4849 37.3355C87.2031 43.6109 103.121 56.7631 123.66 57.3452C123.969 57.3854 124.333 57.4977 124.642 57.5378C124.632 57.5359 124.661 57.5417 124.642 57.5378C157.308 63.6119 185.831 81.1631 211.864 101.179C187.933 97.5442 163.886 96.3862 141.409 86.3324C116.909 74.2084 91.0531 72.7965 64.2955 74.2593C62.6219 74.6757 49.565 76.1731 54.3079 78.4201C95.7689 88.4548 110.275 126.388 161.522 118.844C161.658 118.83 162.368 119.051 162.504 119.037C162.504 119.037 162.513 119.039 162.504 119.037C162.441 119.045 162.566 119.029 162.504 119.037C162.431 119.043 162.576 119.031 162.504 119.037C173.713 116.931 184.065 115.649 194.639 111.061C199.774 109.437 205.225 109.007 210.514 108.056C210.316 108.078 210.714 108.024 210.514 108.056C211.425 107.939 211.758 107.576 212.669 107.459C212.587 107.463 212.752 107.454 212.669 107.459C212.868 107.436 213.452 107.673 213.65 107.651C213.546 107.661 212.773 107.448 212.669 107.459C225.435 104.964 247.414 131.955 257.103 140.663C289.969 175.724 319.436 213.455 340.257 256.958C317.057 220.12 280.985 213.378 249.812 188.199C249.786 188.174 249.838 188.225 249.812 188.199C249.698 188.106 249.926 188.293 249.812 188.199C249.794 188.186 249.83 188.213 249.812 188.199C249.688 188.104 248.955 188.103 248.831 188.007C248.788 187.968 249.069 187.054 249.024 187.025C249.095 187.079 249.741 188.145 249.812 188.199C242.669 181.91 233.499 177.613 225.247 173.177C217.054 167.814 208.817 162.781 199.315 159.926C184.266 155.34 167.942 156.708 153.198 150.876C153.161 150.858 153.226 150.892 153.198 150.876C133.992 143.76 144.112 148.082 153.215 155.98C163.798 166.587 173.165 178.797 184.508 188.646C184.449 188.583 184.577 188.71 184.508 188.646C184.508 188.646 184.518 188.647 184.508 188.646C184.439 188.581 184.579 188.7 184.508 188.646C184.488 188.642 184.526 188.659 184.508 188.646C204.77 204.632 224.345 225.244 252.474 221.367C268.102 219.159 284.121 215.763 298.767 224.331C298.71 224.31 298.822 224.362 298.767 224.331C298.757 224.329 298.775 224.343 298.767 224.331C299.083 224.485 299.429 224.379 299.748 224.524C299.663 224.487 299.832 224.561 299.748 224.524C299.561 224.436 299.933 224.621 299.748 224.524C299.718 224.518 299.777 224.529 299.748 224.524C302.752 226.532 305.739 229.127 308.596 231.361C308.462 231.263 308.718 231.467 308.596 231.361C308.385 231.187 308.809 231.525 308.596 231.361C308.553 231.322 308.639 231.4 308.596 231.361C308.72 231.457 309.443 231.456 309.577 231.554C309.558 231.55 308.616 231.365 308.596 231.361C323.639 242.741 335.276 258.303 346.196 273.425C346.147 273.365 345.264 273.294 345.215 273.233C355.214 286.705 360.496 304.192 365.573 320.075C365.559 320.042 365.587 320.108 365.573 320.075C365.524 319.912 365.613 320.236 365.573 320.075C365.536 319.955 365.611 320.195 365.573 320.075C375.46 357.626 383.522 395.123 384.983 434.061C386.564 439.525 384.593 447.287 387.593 451.916C389.543 453.779 392.349 450.892 392.289 448.757C392.254 448.934 392.121 449.561 392.096 449.74C392.142 449.453 392.252 449.046 392.289 448.757C392.296 448.718 392.281 448.797 392.289 448.757C392.404 447.964 392.742 447.592 392.674 446.793C392.666 446.73 392.682 446.856 392.674 446.793C392.227 439.869 391.007 432.919 390.643 425.991C390.636 425.867 390.659 426.116 390.643 425.991C389.684 409.763 383.953 393.607 387.929 377.511C387.898 377.668 387.969 377.355 387.929 377.511C393.104 350.671 411.131 329.613 419.647 304.163C425.213 286.613 420.864 268.475 415.741 251.368C411.962 222.995 396.354 199.253 381.752 175.327C365.188 150.955 356.09 123.603 350.69 94.7591C349.995 90.0311 348.115 84.7774 348.482 80.0437C348.517 79.9179 349.399 80.3562 349.464 80.2362C349.727 79.7778 349.004 78.636 348.675 79.0613C348.648 79.0968 348.693 79.024 348.675 79.0613C348.642 79.1263 348.514 79.9886 348.482 80.0437C348.467 80.0712 348.498 80.0161 348.482 80.0437C341.434 104.833 336.493 131.458 341.488 157.223C341.468 157.117 341.699 156.357 341.681 156.241C344.685 174.677 350.567 192.055 355.591 209.979C355.557 209.84 355.625 210.118 355.591 209.979C365.592 246.787 382.466 281.118 393.608 317.416C394.423 336.922 387.475 356.453 384.197 375.758C384.098 376.157 384.105 376.332 384.004 376.74C376.872 343.771 371.128 310.928 356.026 280.455C356.006 280.4 356.045 280.51 356.026 280.455C356 280.379 356.246 279.54 356.218 279.473C347.954 259.658 338.43 239.739 326.802 221.672C326.861 221.734 327.726 221.792 327.783 221.864C323.73 215.896 319.297 209.733 316.149 203.259C311.014 186.945 306.72 170.694 306.567 153.431C306.113 135.516 299.339 117.901 292.271 101.657C278.347 68.7728 245.057 53.1579 215.178 37.5598C193.958 24.9468 172.994 11.8072 151.12 0.504376C150.761 0.250386 149.588 -0.20434 149.157 0.119246C148.772 0.574233 149.697 0.898373 149.946 1.29414ZM18.4601 32.6188C22.4245 30.8255 26.5514 29.4227 30.603 27.8608C30.5481 27.8806 30.6598 27.8311 30.603 27.8608C31.9248 27.3651 33.6193 27.2287 34.9134 26.6664C34.9154 26.6566 34.9134 26.6664 34.9134 26.6664C34.9036 26.6645 34.9233 26.6683 34.9134 26.6664C58.7538 15.7336 83.9147 25.1012 106.91 33.6548C117.993 38.2787 127.291 45.5699 136.784 52.7797C132.028 50.7036 127.605 47.408 123.03 44.9796C109.935 38.2363 97.2739 30.529 82.3801 28.8407C82.3703 28.8388 82.3899 28.8426 82.3801 28.8407C80.9399 28.6397 78.7253 29.0416 77.2812 28.8602C77.2419 28.8525 77.3205 28.8679 77.2812 28.8602C77.1437 28.8332 77.4207 28.8774 77.2812 28.8602C67.3082 28.0968 57.0874 25.4881 47.0736 27.0125C47.0304 27.0245 47.1266 27.0025 47.0736 27.0125C46.9695 27.0227 47.1776 27.0023 47.0736 27.0125C47.0422 27.0166 47.105 27.0085 47.0736 27.0125C46.5593 27.0851 46.6066 26.7474 46.0924 26.82C45.9766 26.838 46.2082 26.8019 46.0924 26.82C44.2099 27.0525 42.687 27.5695 40.8007 27.8218C40.7712 27.816 40.8302 27.8276 40.8007 27.8218C40.6869 27.83 39.9353 27.6111 39.8195 27.6292C39.8392 27.6331 40.7791 27.8277 40.8007 27.8218C38.3352 28.1134 35.8113 29.0664 33.3539 29.4208C33.293 29.4191 33.4167 29.4127 33.3539 29.4208C33.2498 29.431 32.4865 29.22 32.3726 29.2282C32.3511 29.2342 32.3923 29.2321 32.3726 29.2282C27.3876 29.5151 23.1541 31.1116 18.4601 32.6188ZM105.596 50.7395C86.0361 41.0032 66.1723 29.2395 43.3588 30.3641C55.3319 28.112 67.7742 31.0038 79.6465 32.3849C85.3131 33.201 90.8185 34.5058 96.1344 36.6408C95.9751 36.5687 95.3144 36.5105 95.1532 36.4482C110.428 42.4866 124.948 51.4966 139.745 58.4616C139.392 58.3922 138.148 58.138 137.783 58.0765C127.137 54.2934 116.183 54.5621 105.596 50.7395ZM192.274 107.537C192.119 107.598 191.446 107.292 191.293 107.344C191.481 107.269 192.086 107.612 192.274 107.537C192.284 107.538 192.274 107.537 192.274 107.537C192.307 107.523 192.433 106.568 192.467 106.554C192.4 106.582 192.34 107.509 192.274 107.537ZM194.622 105.957C163.763 118.696 124.534 120.301 98.69 96.3117C91.5757 91.0687 83.4307 87.2579 75.8946 82.6566C78.3687 83.1013 81.4689 82.7406 83.9371 83.2148C83.8291 83.1936 84.0452 83.236 83.9371 83.2148C85.1261 83.4481 85.6899 83.569 86.8808 83.7925C86.8317 83.7828 86.9299 83.8021 86.8808 83.7925C98.0132 85.8242 109.958 86.1171 119.857 92.3044C119.827 92.2986 119.886 92.3101 119.857 92.3044C142.922 106.116 168.613 106.934 194.622 105.957C194.765 105.903 194.471 105.999 194.622 105.957ZM121.416 89.55C105.402 79.9482 85.664 83.7888 68.6233 78.1691C84.1686 79.1894 99.737 76.6339 114.916 81.1331C142.064 90.9404 169.141 101.62 198.337 102.605C172.018 103.185 145.198 102.523 121.416 89.55ZM178.131 158.83C178.131 158.83 178.171 158.837 178.131 158.83C178.041 158.822 178.22 158.847 178.131 158.83C194.464 159.739 209.721 165.885 222.706 175.739C231.547 180.606 240.645 184.063 248.253 190.954C248.359 191.036 249.127 191.064 249.234 191.146C249.181 191.105 248.316 190.997 248.253 190.954C250.257 192.541 252.331 194.662 254.35 196.231C254.285 196.198 254.413 196.274 254.35 196.231C254.287 196.188 254.403 196.272 254.35 196.231C250.901 194.932 247.38 193.456 243.942 192.148C228.033 186.118 212.163 180.618 196.616 173.679C196.465 173.619 196.768 173.739 196.616 173.679C185.087 168.886 173.847 163.509 163.22 156.923C167.85 158.189 173.391 158.236 178.131 158.83ZM164.815 164.377C164.815 164.377 164.85 164.405 164.815 164.377C164.789 164.352 164.85 164.405 164.815 164.377C164.822 164.389 164.815 164.377 164.815 164.377ZM234.216 215.744C224.717 214.073 216.686 208.346 209.266 202.686C193.015 192.211 179.308 179.068 165.603 165.552C165.585 165.539 165.621 165.566 165.603 165.552C165.575 165.537 165.621 165.566 165.603 165.552C165.603 165.552 165.613 165.554 165.603 165.552C162.618 162.926 159.818 159.694 157.14 156.75C195.513 182.158 241.209 192.252 281.473 213.796C280.86 213.696 280.123 213.46 279.511 213.411C264.23 212.708 249.725 219.552 234.216 215.744ZM390.771 290.335C390.823 290.437 391.701 290.425 391.752 290.527C390.118 286.635 388.796 282.194 387.004 278.374C386.998 278.352 387.01 278.395 387.004 278.374C384.378 272.154 379.764 266.487 377.333 260.153C377.383 260.265 378.07 261.226 378.122 261.328C377.452 259.799 376.813 257.358 376.142 255.839C376.148 255.86 375.943 256.799 375.949 256.821C375.438 255.629 375.279 253.701 374.758 252.507C374.807 252.618 374.506 253.375 374.565 253.489C374.076 252.342 373.682 251.296 373.181 250.157C373.133 250.035 373.23 250.269 373.181 250.157C372.914 249.543 372.853 248.613 372.585 248C372.54 247.919 372.621 248.078 372.585 248C358.728 209.986 345.56 171.854 343.557 131.105C343.551 131.084 343.553 131.125 343.557 131.105C343.556 131.003 343.557 131.207 343.557 131.105C343.556 131.054 343.557 131.156 343.557 131.105C343.992 122.385 343.867 113.488 344.644 104.794C344.667 105.615 345.207 106.129 345.24 106.952C345.899 119.662 348.357 132.82 352.037 145.011C352.025 144.968 352.049 145.054 352.037 145.011C352.031 144.99 352.043 145.033 352.037 145.011C352.223 145.619 352.436 146.559 352.632 147.169C352.628 147.137 352.829 146.218 352.825 146.186C353.3 147.667 353.339 150 353.824 151.483C353.786 151.363 354.064 150.622 354.016 150.501C357.689 163.558 363.534 175.218 368.067 187.944C368.035 187.846 368.097 188.051 368.067 187.944C368.111 188.085 367.821 188.783 367.874 188.926C367.861 188.893 368.071 187.975 368.067 187.944C368.127 188.108 367.815 188.761 367.874 188.926C367.855 188.871 367.894 188.981 367.874 188.926C367.839 188.796 367.912 189.046 367.874 188.926C367.857 188.861 367.894 188.981 367.874 188.926C367.841 188.838 367.898 189.012 367.874 188.926C367.876 188.916 367.882 188.938 367.874 188.926C367.912 189.046 368.615 189.979 368.663 190.101C368.611 189.948 367.916 189.077 367.874 188.926C377.53 222.299 383.606 256.797 391.752 290.527C391.675 290.349 390.848 290.513 390.771 290.335ZM387.724 259.132C383.739 234.82 378.022 210.254 371.396 186.557C365.719 171.861 358.748 158.634 354.385 143.432C354.367 143.367 354.402 143.496 354.385 143.432C354.347 143.312 353.634 142.377 353.596 142.257C353.61 142.29 353.39 143.206 353.403 143.239C348.844 128.1 347.053 111.707 346.379 95.9535C346.424 96.35 347.123 96.7318 347.168 97.1284C352.996 125.822 363.74 153.762 380.193 178.081C380.116 177.954 379.481 177.034 379.404 176.906C384.835 185.166 389.243 195.056 394.595 203.351C394.508 203.222 394.863 202.506 394.787 202.369C409.913 226.796 414.612 256.436 418.403 284.536C419.285 307.289 405.698 326.64 394.291 345.094C403.319 315.99 394.476 287.64 387.724 259.132ZM228.51 94.2447C200.578 76.8861 183.823 47.4176 168.833 19.2832C203.523 51.6002 239.289 83.4292 271.735 118.03C257.466 109.985 242.618 102.585 228.51 94.2447ZM291.06 149.367C286.245 144.575 284.488 138.591 282.177 132.321C286.077 138.709 289.798 144.599 293.811 150.927C293.128 150.354 291.742 149.95 291.06 149.367ZM189.649 27.4489C190.042 27.6281 190.237 27.4622 190.63 27.6415C221.028 46.6269 257.544 58.3561 279.674 87.9632C290.62 104.254 297.931 124.065 301.433 143.242C301.46 144.043 301.012 144.403 301.048 145.206C301.048 145.155 301.048 145.257 301.048 145.206C300.957 149.26 301.821 153.518 301.678 157.572C301.531 157.176 301.058 156.787 300.89 156.397C285.36 122.749 257.93 96.6456 230.788 72.2484C210.112 53.8544 191.883 34.0008 170.393 16.5287C176.898 20.091 182.914 24.3823 189.649 27.4489Z" fill="url(#paint0_linear_91_34298)"/>
<defs>
<linearGradient id="paint0_linear_91_34298" x1="240.036" y1="17.7249" x2="163.39" y2="408.275" gradientUnits="userSpaceOnUse">
<stop stop-color="#C08D58"/>
<stop offset="1" stop-color="#FEF1BA"/>
</linearGradient>
</defs>
</svg>
