<svg width="348" height="90" viewBox="0 0 348 90" fill="none" xmlns="http://www.w3.org/2000/svg">
<path d="M319.674 4.00125C319.94 5.15624 319.244 6.38147 318.151 6.70705C318.433 7.5008 318.349 8.36094 317.632 9.11299C316.332 10.4588 314.161 10.0161 312.606 9.45463C310.698 8.76089 309.001 7.49374 307.8 5.85404C295.558 4.75581 283.081 6.82276 271.824 11.796C269.179 12.9662 266.608 14.3011 264.122 15.7731C285.64 14.7731 308.647 19.1764 325.566 33.2385C327.594 34.9236 329.513 36.736 331.329 38.6495C331.413 38.7355 331.46 38.8245 331.498 38.9152C331.548 38.9057 331.6 38.8912 331.656 38.8933C336.51 38.6358 341.419 39.9918 345.441 42.7161C346.404 43.3702 347.416 44.1216 347.76 45.287C348.071 46.3438 347.751 47.5307 346.766 48.1083C345.781 48.686 344.624 48.474 343.653 48.0005C343.108 47.7305 342.569 47.4293 342.037 47.1184C342.667 47.7898 343.264 48.4889 343.772 49.2349C344.414 50.1725 344.953 51.2835 344.931 52.4512C344.906 53.6452 344.144 54.7041 342.991 55.0457C341.926 55.3616 340.807 55.0102 339.857 54.5156C337.53 53.2932 335.509 51.1039 334.03 48.9678C333.841 48.6888 333.655 48.405 333.478 48.1195C333.66 48.7237 333.859 49.3246 334.086 49.9159C334.59 51.2467 335.193 52.5372 335.869 53.7921C336.552 55.0585 337.174 56.4049 336.815 57.8806C336.481 59.2449 335.286 60.1314 333.89 60.0935C332.458 60.0454 331.292 59.081 330.492 57.9649C329.322 56.332 328.672 54.4285 328.409 52.4588C328.286 52.9129 328.16 53.372 328.016 53.8259C327.65 54.9961 326.995 56.1707 325.766 56.5824C323.13 57.4652 321.411 54.6424 321.246 52.4024C321.065 50.0079 322.046 47.7006 323.417 45.787C325.151 43.3603 327.48 41.3813 330.069 39.9151C330.03 39.8885 329.996 39.8653 329.967 39.824C314.456 23.4363 291.495 17.3875 269.502 17.4346C268.365 17.4363 267.234 17.4709 266.108 17.5088C268.041 18.3341 269.938 19.2429 271.726 20.3563C273.721 21.6042 276.618 23.4713 276.612 26.1535C276.608 28.8522 273.656 30.1796 271.328 29.6947C268.737 29.1537 266.435 27.0527 264.799 25.0748C263.107 23.0226 261.887 20.6108 261.225 18.0403C261.173 17.948 261.143 17.8558 261.129 17.7604C240.543 19.25 220.601 25.7556 201.114 32.3483C196.727 33.8329 192.341 35.3256 187.946 36.7904C194.157 36.5443 200.92 37.0315 205.177 42.0292C206.207 43.2374 206.932 44.7899 206.565 46.4035C206.204 48.0074 204.772 49.0121 203.19 49.1634C201.467 49.3333 199.667 48.734 198.071 48.1377C196.371 47.5063 194.739 46.67 193.196 45.7226C189.741 43.6051 186.693 40.8976 183.696 38.1888C178.239 39.9646 172.752 41.6696 167.214 43.1967C156.625 46.1232 145.847 48.319 134.958 49.7305C116.603 52.1115 97.9751 52.3159 79.5736 50.4096C92.7729 59.8606 109.102 63.4619 125.041 65.1222C131.547 65.7997 138.083 66.1687 144.619 66.5163C144.675 64.6984 145.085 62.8846 145.85 61.2328C146.603 59.6088 147.7 57.7097 149.297 56.7882C151.051 55.7726 152.883 57.0094 153.367 58.8C153.825 60.4935 153.139 62.3135 152.077 63.6347C151.051 64.915 149.68 65.7971 148.352 66.7222C157.408 67.2193 166.453 67.8083 175.415 69.287C184.584 70.8066 193.62 73.2599 201.97 77.3968C202.022 77.4251 202.063 77.4599 202.111 77.4931C202.224 77.3477 202.386 77.2356 202.6 77.173C205.213 76.4822 208.006 76.8391 210.384 78.1029C211.597 78.7473 212.751 79.7099 213.151 81.0777C213.473 82.192 213.155 83.3231 212.364 84.0977C212.512 84.764 212.469 85.4585 212.061 86.0485C211.618 86.6793 210.843 86.9908 210.083 86.9837C210.071 88.1794 208.989 89.1423 207.772 89.0827C206.271 89.0094 205.075 87.6884 204.152 86.6388C202.242 84.4749 200.935 81.8243 200.331 78.9997C200.298 78.8483 200.303 78.7153 200.332 78.5989C185.649 71.6159 169.265 69.7898 153.203 68.784C161.134 71.433 168.854 74.6767 176.309 78.4787C179.399 78.4631 182.836 79.1777 184.658 81.9125C185.099 82.5777 185.395 83.3518 185.138 84.1515C184.88 84.9512 184.143 85.4896 183.371 85.7107C181.756 86.1754 180.257 85.2366 179.114 84.1953C177.745 82.9502 176.375 81.6329 175.322 80.101C175.242 80.0397 175.176 79.9587 175.121 79.8712C165.829 75.1445 156.09 71.3179 146.077 68.4305C146.01 68.4136 145.954 68.3902 145.902 68.3619C131.076 67.544 116.175 66.7749 101.818 62.7213C99.856 62.1701 97.9146 61.5467 95.9953 60.8595C98.0873 62.0079 100.076 63.3296 101.926 64.8442C103.147 65.8451 104.314 66.9245 105.407 68.0608C106.39 69.0862 107.363 70.1773 107.764 71.5748C108.113 72.7862 107.888 74.2021 107.014 75.1419C106.153 76.0621 104.878 76.2353 103.699 75.9722C100.813 75.3306 98.6986 72.8055 97.2674 70.379C95.6554 67.6506 94.4596 64.646 93.2106 61.7198C93.1472 61.6553 93.0921 61.5892 93.0288 61.5247C92.9281 61.4205 92.8651 61.3133 92.8269 61.2013C92.521 60.9363 92.4513 60.5235 92.5565 60.1793C92.5013 59.9555 92.5427 59.7472 92.6379 59.5755C86.8892 57.2263 81.426 54.2041 76.5223 50.3581C76.4019 50.262 76.3225 50.1579 76.2629 50.0458C74.2636 49.813 72.2644 49.5588 70.2721 49.2734C58.2348 47.5476 46.3313 44.9094 34.6975 41.3797C34.6482 41.3892 34.6037 41.4019 34.5578 41.4065C34.1781 41.4712 33.8877 41.3098 33.7096 41.067C24.9961 38.3812 16.4386 35.1922 8.10432 31.4956C5.63444 30.3987 3.18629 29.2592 0.751697 28.0788C-0.270509 27.5852 0.300985 25.8811 1.32963 26.3862C11.6378 31.3945 22.3262 35.6222 33.2603 39.0566C35.7608 34.9222 38.3396 30.8409 41.0048 26.8111C43.1735 23.5334 45.6641 19.4137 50.0544 19.2712C51.7055 19.2173 53.4829 19.8296 54.5164 21.1692C55.6599 22.6623 55.6789 24.7173 54.973 26.409C54.1275 28.443 52.4627 30.0423 50.9411 31.5885C49.5488 33.0076 48.0899 34.367 46.5368 35.6123C43.9716 37.675 41.124 39.417 38.032 40.4986C46.4672 42.9524 55.04 44.9408 63.7062 46.4338C82.6242 49.6941 101.949 50.6937 121.116 49.3369C121.146 49.2927 121.171 49.2453 121.209 49.1996C123.641 46.1652 123.851 42.1227 125.03 38.5455C126.251 34.8536 128.755 31.7031 132.176 29.8207C133.554 29.0651 135.289 28.4879 136.839 29.0461C138.562 29.6646 139.382 31.497 139.278 33.239C139.172 35.0155 138.27 36.732 137.431 38.2618C136.517 39.9339 135.407 41.4946 134.153 42.9212C132.04 45.3271 129.522 47.3425 126.721 48.8581C127.57 48.7755 128.415 48.6978 129.26 48.6119C140.167 47.4568 150.997 45.5324 161.634 42.8396C173.231 39.9023 184.576 36.0927 195.899 32.2533C205.986 28.8354 216.15 25.3557 226.452 22.4633C226.454 22.4288 226.464 22.3928 226.474 22.3567C226.347 19.483 226.674 16.624 227.5 13.8605C228.368 10.9529 229.762 7.70077 232.009 5.57996C234.033 3.67272 237.706 3.11442 239.349 5.80689C241.083 8.63964 239.074 11.7247 237.103 13.7752C234.53 16.4489 231.885 19.0596 229.265 21.6869C239.735 18.8729 250.361 16.7533 261.194 15.9918C261.228 15.9641 261.261 15.9365 261.29 15.9137C261.31 15.6329 261.44 15.3563 261.737 15.1712C272.438 8.4512 284.819 4.59976 297.407 3.90514C300.539 3.73221 303.674 3.77609 306.794 4.01043C306.841 3.89907 306.916 3.79942 307.007 3.71796C308.425 1.69302 310.746 0.431814 313.221 0.342844C314.562 0.293359 315.89 0.621531 317.078 1.22797C318.224 1.81276 319.38 2.71955 319.685 4.03743L319.674 4.00125ZM340.339 44.0444C341.591 44.7663 342.829 45.5209 344.094 46.215C344.551 46.4679 345.293 46.9003 345.826 46.5888C346.367 46.2757 346.008 45.5733 345.712 45.2213C344.937 44.3008 343.65 43.6494 342.611 43.0867C341.501 42.4907 340.328 42.0092 339.125 41.6228C337.647 41.1489 336.126 40.8538 334.593 40.7229C336.506 41.8289 338.425 42.9383 340.339 44.0444ZM331.061 55.3918C331.523 56.3938 332.205 57.6306 333.252 58.1195C334.398 58.6615 335.283 57.8433 335.124 56.6464C334.965 55.4495 334.118 54.3511 333.605 53.2863C333.068 52.1836 332.594 51.0517 332.195 49.8925C331.662 48.3627 331.254 46.7961 330.958 45.2121C330.831 45.4839 330.717 45.7574 330.598 46.0275C329.89 49.1729 329.694 52.4073 331.069 55.3902L331.061 55.3918ZM325.763 45.6675C324.479 47.1678 323.316 48.986 323.06 50.9831C322.941 51.9268 322.998 52.9258 323.418 53.7912C323.804 54.5906 324.836 55.3849 325.649 54.5974C326.368 53.8962 326.504 52.5913 326.751 51.67C327.058 50.5027 327.413 49.339 327.815 48.2003C328.137 47.2943 328.5 46.4018 328.881 45.5142C329.139 44.3778 329.458 43.2549 329.806 42.1438C328.305 43.1234 326.936 44.3077 325.771 45.666L325.763 45.6675ZM332.712 41.9249C333.742 45.7414 335.934 49.2361 339.012 51.7418C339.686 52.2854 343.058 54.7258 343.153 52.4187C343.186 51.5172 342.598 50.5948 342.065 49.9175C341.202 48.8222 340.239 47.7887 339.236 46.8141C337.28 44.9193 335.071 43.2904 332.717 41.9282L332.712 41.9249ZM269.904 27.1943C270.812 27.7396 271.933 28.1928 273.007 27.9689C273.081 27.9547 273.161 27.9306 273.234 27.9082C270.06 26.0177 267.091 23.7937 264.391 21.2792C265.679 23.6949 267.558 25.7878 269.9 27.1992L269.904 27.1943ZM211.469 82.2713C211.542 81.8053 211.356 81.2488 211.126 80.935C210.553 80.1376 209.59 79.6198 208.696 79.2635C207.75 78.8789 206.761 78.673 205.767 78.6215C206.627 78.9119 207.467 79.253 208.278 79.6892C209.416 80.2969 210.639 81.1779 211.469 82.2713ZM204.597 84.3112C205.2 85.1368 205.882 85.9433 206.653 86.6173C206.97 86.8972 207.44 87.3096 207.895 87.2817C208.021 87.2743 208.345 87.165 208.322 86.9989C208.296 86.8164 208.322 86.6622 208.376 86.5197C207.929 86.3161 207.501 86.0617 207.099 85.8239C206.301 85.3468 205.565 84.7896 204.874 84.1769C204.514 83.854 204.175 83.523 203.848 83.1724C204.081 83.5667 204.328 83.9495 204.598 84.3194L204.597 84.3112ZM206.023 82.8218C206.71 83.4394 207.473 83.9787 208.267 84.4394C208.736 84.7072 210.028 85.5707 210.552 85.0521C211.004 84.6069 210.22 83.6158 209.954 83.2919C209.354 82.555 208.612 81.9649 207.803 81.4729C206.485 80.6783 205.013 80.1946 203.524 79.7996C204.205 80.9214 205.039 81.9458 206.023 82.8218ZM181.913 83.9246C182.317 84.0557 183.21 84.1393 183.417 83.6135C183.609 83.1418 182.77 82.3786 182.493 82.1121C181.963 81.609 181.323 81.2168 180.644 80.9425C179.711 80.5596 178.73 80.3735 177.74 80.2958C178.469 81.1272 179.265 81.8902 180.07 82.6515C180.609 83.1613 181.191 83.6928 181.908 83.9213L181.913 83.9246ZM151.7 60.2762C151.805 59.3226 151.261 57.5989 150.031 58.4114C149.489 58.7672 149.07 59.3424 148.691 59.8587C148.231 60.4927 147.823 61.1681 147.494 61.8836C146.91 63.1639 146.562 64.5181 146.437 65.9019C148.529 64.4206 151.401 62.9679 151.697 60.2811L151.7 60.2762ZM97.6138 67.218C98.6762 69.4513 99.9476 71.7764 102.015 73.2236C102.807 73.7829 103.941 74.4382 104.965 74.2665C102.278 71.3957 99.5877 68.5298 96.8959 65.6556C97.1352 66.1764 97.3696 66.6939 97.6123 67.2097L97.6138 67.218ZM106.096 72.8637C106.119 72.5353 106.081 72.2016 105.983 71.9052C105.605 70.7675 104.644 69.8572 103.829 69.0169C102.903 68.0658 101.928 67.1669 100.903 66.3201C99.9195 65.5164 98.8983 64.7584 97.8405 64.0544C100.591 66.9897 103.346 69.9283 106.096 72.8637ZM43.7673 35.4512C46.6888 33.3582 49.4361 30.8172 51.7668 28.0794C52.8741 26.775 53.982 25.0911 53.5781 23.2978C53.4525 22.7253 53.1584 22.2747 52.773 21.927C52.7504 22.055 52.6949 22.1893 52.587 22.3166C49.6019 25.8497 46.6134 29.3876 43.6234 32.9173C41.915 34.9385 40.1423 37.002 38.0149 38.5882C40.0571 37.8111 41.9776 36.7294 43.759 35.4528L43.7673 35.4512ZM42.5337 31.4607C45.3942 28.0795 48.2499 24.6951 51.1138 21.309C51.1619 21.2486 51.2133 21.2046 51.2695 21.1639C50.9306 21.0843 50.5849 21.0358 50.2354 21.0349C46.5395 20.9755 44.3288 24.9987 42.5614 27.6748C40.3693 30.9869 38.2393 34.3339 36.1581 37.7141C38.6549 36.0994 40.6226 33.7384 42.5352 31.4689L42.5337 31.4607ZM137.004 34.9982C137.496 33.7485 137.956 31.6822 136.511 30.8439C135.258 30.1221 133.582 31.0118 132.493 31.6692C129.497 33.4824 127.525 36.3854 126.526 39.6978C126.005 41.422 125.653 43.2247 125.156 44.9655C128.705 40.561 132.051 35.9909 135.182 31.2746C135.822 30.3117 137.299 31.3145 136.659 32.2773C133.161 37.5543 129.384 42.6421 125.36 47.5261C130.516 44.8792 134.887 40.41 137.008 34.9933L137.004 34.9982ZM200.435 47.0132C201.461 47.3014 202.903 47.6715 203.934 47.132C198.729 45.2023 193.659 42.9057 188.776 40.2704C192.263 43.1831 196.036 45.7808 200.435 47.0132ZM204.901 45.5818C204.897 44.6833 204.283 43.7147 203.734 43.0915C201.737 40.8038 198.789 39.5178 195.854 38.9366C193.676 38.5037 191.452 38.4335 189.224 38.4963C194.268 41.2412 199.504 43.608 204.893 45.5834L204.901 45.5818ZM233.703 14.6476C235.444 12.8927 238.377 10.721 238.183 7.94531C238.16 7.60021 238.073 7.276 237.941 6.98596C235.374 10.2723 233.054 13.7412 231.006 17.3664C231.908 16.4596 232.804 15.5495 233.703 14.6476ZM236.589 5.81003C236.499 5.78474 236.418 5.75785 236.321 5.74238C235.122 5.55143 234.007 6.11996 233.158 6.91871C231.266 8.69385 230.108 11.5042 229.332 13.9296C228.853 15.4241 228.531 16.9609 228.353 18.5168C230.718 14.0463 233.459 9.7888 236.589 5.81003ZM270.594 21.7591C268.587 20.5177 266.437 19.5594 264.257 18.6666C267.372 21.7918 270.882 24.4911 274.703 26.7131C274.763 26.5608 274.811 26.4067 274.821 26.2343C274.871 25.3296 274.181 24.5461 273.58 23.9586C272.699 23.1097 271.633 22.4072 270.596 21.7673L270.594 21.7591ZM309.278 4.84465C310.321 6.21219 311.712 7.25704 313.344 7.82067C314.086 8.07403 315.056 8.38158 315.844 8.15729C316.402 7.9987 316.708 7.5689 316.387 7.04261C316.034 6.4586 315.352 6.07426 314.772 5.75966C314.074 5.37848 313.304 5.11344 312.529 4.93869C311.457 4.69773 310.355 4.67992 309.278 4.84465ZM314.116 2.13966C312.785 1.9954 311.51 2.30489 310.41 2.94742C312.687 2.89646 315.014 3.55216 316.786 4.92002C316.885 4.99464 316.982 5.08238 317.075 5.16681C317.222 5.06603 317.398 5.00654 317.621 5.01472C317.677 5.01675 317.733 4.99744 317.805 4.90269C317.891 4.79655 317.94 4.67206 317.946 4.52592C317.955 4.1449 317.585 3.72177 317.289 3.46339C316.422 2.70979 315.248 2.24962 314.114 2.13142L314.116 2.13966Z" fill="url(#paint0_linear_460_12202)"/>
<defs>
<linearGradient id="paint0_linear_460_12202" x1="304.18" y1="113.273" x2="55.9993" y2="-55.2682" gradientUnits="userSpaceOnUse">
<stop stop-color="#C08D58"/>
<stop offset="1" stop-color="#FEF1BA"/>
</linearGradient>
</defs>
</svg>
