<svg width="132" height="128" viewBox="0 0 132 128" fill="none" xmlns="http://www.w3.org/2000/svg">
<path fill-rule="evenodd" clip-rule="evenodd" d="M92 44.1254C92 25.4186 79.9023 9.43562 62.8094 2.98075C65.1627 5.1495 66.9917 7.73967 68.2218 10.6176C72.5218 20.67 69.238 28.1527 62.9164 36.0979C54.4448 46.7156 53.7603 46.0372 52.359 59.5945C37.5231 37.4341 74.383 27.2276 57.7286 3.51523C57.0868 2.60045 56.3595 1.7165 55.568 0.894225C53.2682 0.421417 50.8936 0.123341 48.4869 0C52.0167 2.77518 54.2844 6.75294 55.0331 12.55C56.3167 22.4379 51.375 27.9677 47.0643 36.026C40.3041 48.6582 44.572 52.6257 46.7755 64.2198C42.6039 61.1054 40.486 58.6077 38.7318 53.633C34.7313 42.3164 38.3146 33.5078 44.0479 23.6404C50.5406 12.478 48.5832 7.41076 42.2081 0.0822276C40.2614 0.236404 38.3467 0.493366 36.4748 0.873668C37.8868 2.43599 39.1168 4.08055 39.8763 5.4373C44.1976 13.2078 42.1867 19.5188 37.7584 26.4259C31.8219 35.6662 32.5599 37.9378 33.3408 48.8021C17.4887 29.6739 39.994 22.7668 34.8276 7.59578C34.1644 5.64287 33.1161 3.82358 31.9502 2.02486C13.4133 7.74995 0 24.4319 0 44.1254C0 53.448 3.0057 62.1024 8.13998 69.2254L7.96884 69.4104L9.66957 71.2297C11.0387 72.9256 12.5362 74.5188 14.1407 75.9989L46.0053 110L77.87 75.9989C79.4745 74.5188 80.972 72.9256 82.3411 71.2297L84.0419 69.4104L83.86 69.2254C88.9943 62.0921 92 53.448 92 44.1254Z" fill="url(#paint0_linear_91_34414)"/>
<path fill-rule="evenodd" clip-rule="evenodd" d="M77.4158 41.9829L26 99.2989L30.5262 103L51.7025 90.6218C59.3648 79.21 80.207 53.1479 81.7589 41.2735C82.3085 37.0583 82.3085 36.5237 77.4051 41.9829H77.4158Z" fill="white"/>
<path fill-rule="evenodd" clip-rule="evenodd" d="M23.029 94.5861C18.3615 93.3648 13.63 94.11 9.75098 96.2837C5.872 98.4573 2.84555 102.07 1.59873 106.603C0.351918 111.137 1.10853 115.733 3.3464 119.5C5.58428 123.268 9.30341 126.207 13.971 127.418C18.6385 128.629 23.37 127.895 27.249 125.721C31.128 123.547 34.1544 119.935 35.4013 115.401C36.6481 110.868 35.8915 106.272 33.6536 102.504C31.4157 98.7368 27.6966 95.7972 23.029 94.5861ZM12.7135 101.262C15.2817 99.8236 18.4147 99.3371 21.4945 100.144C24.5849 100.952 27.0465 102.887 28.5278 105.382C30.0091 107.876 30.5099 110.919 29.6787 113.911C28.8475 116.913 26.8547 119.304 24.2865 120.742C21.7183 122.181 18.5853 122.668 15.5055 121.86C12.4151 121.053 9.95346 119.117 8.4722 116.623C6.99094 114.128 6.49008 111.085 7.32129 108.094C8.1525 105.092 10.1453 102.701 12.7135 101.262Z" fill="#352D25"/>
<path fill-rule="evenodd" clip-rule="evenodd" d="M14.5843 41.9829L66 99.2989L61.4738 103L40.2975 90.6218C32.6461 79.21 11.7931 53.1479 10.2413 41.2735C9.69169 37.0583 9.69169 36.5237 14.5843 41.9829Z" fill="white"/>
<path fill-rule="evenodd" clip-rule="evenodd" d="M68.971 94.5861C73.6385 93.3648 78.37 94.11 82.249 96.2837C86.128 98.4573 89.1545 102.07 90.4013 106.603C91.6481 111.137 90.8915 115.733 88.6536 119.5C86.4157 123.268 82.6966 126.207 78.029 127.418C73.3615 128.629 68.63 127.895 64.751 125.721C60.872 123.547 57.8455 119.935 56.5987 115.401C55.3519 110.868 56.1085 106.272 58.3464 102.504C60.5843 98.7368 64.3034 95.7972 68.971 94.5861ZM79.2865 101.262C76.7183 99.8236 73.5852 99.3371 70.5055 100.144C67.4151 100.952 64.9535 102.887 63.4722 105.382C61.9909 107.876 61.4901 110.919 62.3213 113.911C63.1525 116.913 65.1453 119.304 67.7135 120.742C70.2817 122.181 73.4147 122.668 76.5051 121.86C79.5955 121.053 82.0572 119.117 83.5385 116.623C85.0197 114.128 85.5206 111.085 84.6894 108.094C83.8582 105.092 81.8654 102.701 79.2971 101.262H79.2865Z" fill="#352D25"/>
<path fill-rule="evenodd" clip-rule="evenodd" d="M44.525 80.2147C46.0623 79.8164 47.6318 80.0615 48.911 80.7661C50.1903 81.4706 51.1901 82.6347 51.5986 84.0949C52.0071 85.5551 51.7598 87.0357 51.0181 88.261C50.2763 89.4761 49.0508 90.4258 47.5135 90.8138C45.9763 91.2018 44.4175 90.967 43.1275 90.2624C41.8482 89.568 40.8485 88.3938 40.44 86.9336C40.0315 85.4734 40.2787 83.9928 41.0205 82.7675C41.7622 81.5523 42.9877 80.6027 44.525 80.2147ZM48.5348 78.7136C48.395 78.877 48.137 78.8974 47.9543 78.7647C47.7823 78.632 47.7608 78.3869 47.9005 78.2235L78.2803 43.1484C78.4201 42.985 78.6781 42.9544 78.8501 43.0973C79.0221 43.2301 79.0543 43.4752 78.9038 43.6385L48.524 78.7239L48.5348 78.7136ZM44.095 78.2235C44.2348 78.3869 44.2133 78.632 44.0413 78.7647C43.8692 78.8974 43.6112 78.877 43.4607 78.7136L13.0917 43.6283C12.952 43.4649 12.9735 43.2199 13.1455 43.0871C13.3175 42.9544 13.5755 42.9748 13.7152 43.1382L44.095 78.2133V78.2235ZM47.9328 82.3692C47.0835 81.8995 46.0515 81.7463 45.0303 82.0016C44.009 82.2671 43.2027 82.89 42.7082 83.6967C42.2245 84.5033 42.0525 85.4836 42.3212 86.4537C42.59 87.4237 43.2565 88.1895 44.1058 88.6592C44.955 89.129 45.987 89.2821 47.0083 89.0269C48.0295 88.7716 48.8358 88.1385 49.3303 87.3318C49.8141 86.5251 49.9861 85.5449 49.7066 84.5748C49.4378 83.6048 48.7713 82.8389 47.922 82.3692H47.9328Z" fill="#352D25"/>
<path fill-rule="evenodd" clip-rule="evenodd" d="M18.5 104.257C16.5223 104.257 14.7339 105.01 13.4295 106.228C12.1355 107.446 11.336 109.139 11.336 111C11.336 112.861 12.1355 114.545 13.4295 115.772C14.7234 116.99 16.5223 117.743 18.5 117.743C20.4777 117.743 22.2661 116.99 23.5705 115.772C24.8645 114.554 25.664 112.871 25.664 111C25.664 109.129 24.8645 107.455 23.5705 106.228C22.2766 105.01 20.4777 104.257 18.5 104.257ZM12.4932 105.347C14.0291 103.901 16.1541 103 18.5 103C20.8459 103 22.9709 103.891 24.5068 105.347C26.0427 106.792 27 108.792 27 111C27 113.208 26.0532 115.208 24.5068 116.653C22.9709 118.099 20.8459 119 18.5 119C16.1541 119 14.0291 118.109 12.4932 116.653C10.9573 115.208 10 113.208 10 111C10 108.792 10.9468 106.792 12.4932 105.347Z" fill="#352D25"/>
<path fill-rule="evenodd" clip-rule="evenodd" d="M73.5 104.257C71.5223 104.257 69.7339 105.01 68.4295 106.228C67.1355 107.446 66.336 109.139 66.336 111C66.336 112.861 67.1355 114.545 68.4295 115.772C69.7234 116.99 71.5223 117.743 73.5 117.743C75.4777 117.743 77.2661 116.99 78.56 115.772C79.8645 114.554 80.664 112.871 80.664 111C80.664 109.129 79.8645 107.455 78.56 106.228C77.2661 105.01 75.4777 104.257 73.5 104.257ZM67.4932 105.347C69.0291 103.901 71.1541 103 73.5 103C75.8459 103 77.9709 103.891 79.5068 105.347C81.0427 106.792 82 108.792 82 111C82 113.208 81.0427 115.208 79.5068 116.653C77.9709 118.099 75.8459 119 73.5 119C71.1541 119 69.0291 118.109 67.4932 116.653C65.9573 115.208 65 113.208 65 111C65 108.792 65.9468 106.792 67.4932 105.347Z" fill="#352D25"/>
<defs>
<linearGradient id="paint0_linear_91_34414" x1="46" y1="0" x2="46" y2="110" gradientUnits="userSpaceOnUse">
<stop stop-color="#C08D58"/>
<stop offset="1" stop-color="#FEF1BA"/>
</linearGradient>
</defs>
</svg>
