<svg width="50" height="60" viewBox="0 0 50 60" fill="none" xmlns="http://www.w3.org/2000/svg">
<path d="M46.6525 13.1624C44.8076 17.1914 42.095 19.5127 39.9946 18.7734C38.394 18.2091 37.8942 16.563 38.0542 14.5966L39.2533 13.0121C40.1771 11.8095 39.4976 11.7331 38.5709 11.9993C38.599 11.9056 38.6243 11.8169 38.6551 11.7257C38.7422 11.7455 38.8377 11.7578 38.9528 11.7578C39.374 11.7578 39.1803 11.3758 38.891 11.0333C39.0539 10.5873 39.2364 10.1412 39.4358 9.71493C39.725 9.07423 40.0367 8.48282 40.3596 7.93576C40.5787 7.83472 40.632 7.69426 40.5955 7.54148C42.3113 4.80372 44.3331 3.43607 46.0853 4.0546C48.7193 4.98115 48.4301 9.2763 46.6525 13.1624ZM9.45115 15.8952C6.49986 16.6961 3.80411 12.8593 2.50678 9.1728C1.00165 4.89983 1.37512 1.70619 3.60755 1.09999C5.6097 0.557855 7.69049 2.31978 9.20966 4.89243C8.92043 5.5701 8.38408 7.33202 9.13384 7.33202C9.68141 7.33202 10.0015 7.2581 10.1953 7.15213C10.1784 7.07821 10.1588 7.00428 10.1447 6.92542C10.17 6.92542 10.2009 6.92542 10.2262 6.92542C10.2486 6.97964 10.2739 7.03139 10.2964 7.08806C10.2683 7.11024 10.2318 7.13242 10.1953 7.15213C10.2852 7.5538 10.389 7.84458 10.5182 7.84458C10.5435 7.84458 10.5603 7.83965 10.58 7.83965C10.5828 7.84458 10.5856 7.85197 10.5884 7.85937C11.0546 9.18266 11.3269 10.4222 11.4112 11.5138C11.2202 12.778 10.9057 14.0618 10.6249 15.119C10.316 15.496 9.92852 15.7646 9.45115 15.8952ZM9.65053 5.68099C9.73758 5.85102 9.82182 6.02598 9.90606 6.2034C9.52135 6.06541 9.52416 5.86827 9.65053 5.68099ZM46.8997 3.46072C43.1677 2.14728 39.3712 5.06 37.1612 9.88743C37.1107 9.99585 37.0686 10.1067 37.0237 10.2152C36.6951 10.5651 36.4368 10.8756 36.3188 11.0974C35.5663 12.4823 27.5127 23.7808 25.255 26.6195C21.3377 20.937 18.2517 16.0529 15.0926 10.8312C14.8483 10.4419 13.4414 8.33496 12.1918 6.36358C11.8043 5.28671 11.1107 3.93631 10.1476 2.75595C10.1447 2.72638 10.1335 2.71406 10.1167 2.71406C8.60873 0.880669 6.45774 -0.526406 3.81253 0.190685C-0.0289137 1.23305 -0.882569 5.59474 0.869671 10.5626C2.19789 14.3329 5.50019 17.8198 9.24335 16.8045C9.97626 16.6074 10.5997 16.2895 11.1135 15.8706L21.2647 30.8457L7.63994 49.7389C5.23061 53.1051 5.23061 53.1051 3.45591 55.6728L7.96849 54.1376L23.1461 33.6229C27.6643 40.2936 39.4189 52.9178 41.8339 60C42.446 58.068 43.6985 54.8547 41.3425 50.0913C40.3203 48.0214 28.5657 31.0453 27.1364 28.9975L36.4761 16.6764C36.9198 17.8986 37.7846 18.8745 39.1831 19.3649C42.9824 20.7054 46.7901 17.6522 48.9439 12.9505C50.1711 10.2694 51.1623 4.96636 46.8997 3.46072Z" fill="url(#paint0_linear_126_75)"/>
<defs>
<linearGradient id="paint0_linear_126_75" x1="25" y1="0" x2="25" y2="60" gradientUnits="userSpaceOnUse">
<stop stop-color="#C08D58"/>
<stop offset="1" stop-color="#FEF1BA"/>
</linearGradient>
</defs>
</svg>
