<svg width="132" height="128" viewBox="0 0 132 128" fill="none" xmlns="http://www.w3.org/2000/svg">
<g clip-path="url(#clip0_91_34400)">
<path fill-rule="evenodd" clip-rule="evenodd" d="M29.0557 108.285C28.5491 100.572 31.5096 92.5492 37.4207 88.2878C49.1933 79.7949 54.717 83.066 60.2109 83.9663C66.5293 84.9967 70.0561 81.9656 69.4998 77.154C69.1422 74.0229 68.7746 70.8918 68.4169 67.7608C70.8112 63.3093 71.1589 64.5597 67.493 60.9184C67.493 60.9184 69.8078 59.698 71.0993 57.7373C72.4007 55.7767 68.248 52.9357 68.705 52.0954C69.172 51.2551 75.9275 46.1734 73.3942 45.7633C70.8609 45.3531 60.2804 36.6201 58.3134 31.7585C53.4652 19.7944 51.1107 11.3015 45.7361 7C76.3249 9.13073 101.549 34.7195 102.94 65.9702C104.222 94.75 84.8588 118.718 58.0451 124C79.2159 113.977 96.3334 96.7607 97.2275 71.0419C98.0024 48.7943 83.9746 26.2366 61.562 20.6347L67.9103 24.2259C83.5772 33.5391 93.0947 49.3745 93.045 67.4007C92.9953 83.4061 85.7231 100.242 73.4439 110.826C57.7371 124.37 35.7517 128.522 30.7943 116.738C29.8406 114.477 29.2644 111.696 29.0458 108.295L29.0557 108.285Z" fill="url(#paint0_linear_91_34400)"/>
<path fill-rule="evenodd" clip-rule="evenodd" d="M43.8548 24.9528C52.1109 51.9182 52.9983 62.5706 30.5036 78.2447C0.909491 98.8706 22.7661 125.427 49.1395 123.899C65.3225 122.961 81.9144 115.104 72.0231 120.315C28.0407 143.517 -0.675907 108.285 0.012096 92.3414C0.759925 75.1198 7.71973 71.965 13.6724 59.4957C17.6609 51.1594 14.849 42.5736 13.9217 29.5252C13.4032 22.3071 14.6895 19.4718 18.5882 13.0524C3.14301 24.7132 11.3791 42.0445 12.6355 52.3175C-0.955096 34.0477 -0.376771 -1.67322 36.0276 3.50822C40.4747 4.13718 43.0472 6.85269 43.0472 6.85269C39.3479 9.27868 42.3791 20.1108 43.8548 24.9528Z" fill="#352D25"/>
<path fill-rule="evenodd" clip-rule="evenodd" d="M48 5.31952C59.0651 -3.1983 73.8287 -0.338889 82.8135 5.87328C97.2756 15.8712 103.215 37.2261 102.994 54C102.994 54 99.3961 37.2463 89.5069 23.2915C80.7633 10.9175 65.4972 1.18143 48 5.31952Z" fill="#352D25"/>
<path fill-rule="evenodd" clip-rule="evenodd" d="M82.1038 112.718C83.5106 115.155 83.7999 117.94 83.1115 120.457C82.4331 122.973 80.7869 125.241 78.3327 126.643C75.8884 128.046 73.0949 128.324 70.5708 127.648C68.0467 126.972 65.772 125.33 64.3653 122.884C62.9586 120.447 62.6692 117.662 63.3576 115.145C64.0361 112.629 65.6822 110.361 68.1265 108.959C70.5708 107.556 73.3643 107.268 75.8884 107.954C76.2874 108.064 76.6765 108.193 77.0556 108.342L83.6103 92.0003L118 55L80.3479 110.481C81.0164 111.127 81.605 111.873 82.0939 112.718H82.1038ZM79.7693 119.562C80.2183 117.9 80.0287 116.06 79.1009 114.439C78.1631 112.828 76.6665 111.734 75.0004 111.286C73.3244 110.839 71.4787 111.028 69.8624 111.953C68.2462 112.888 67.1588 114.379 66.7098 116.041C66.2609 117.711 66.4404 119.542 67.3782 121.163C68.3061 122.774 69.8126 123.858 71.4787 124.316C73.1548 124.763 74.9905 124.584 76.6167 123.649C78.2329 122.724 79.3204 121.223 79.7793 119.562H79.7693Z" fill="#352D25"/>
<path fill-rule="evenodd" clip-rule="evenodd" d="M66.5362 91.7288C64.5612 89.715 61.9578 88.6933 59.3444 88.6635C56.7311 88.6338 54.0977 89.596 52.0829 91.5601C50.058 93.5243 49.0306 96.1134 49.0007 98.7124C48.9707 101.311 49.9383 103.93 51.9133 105.934C53.8883 107.938 56.4917 108.97 59.105 108.999C61.7184 109.029 64.3517 108.067 66.3666 106.103C68.3815 104.139 69.4089 101.549 69.4488 98.9505C69.4488 98.5438 69.4388 98.1271 69.3889 97.7204L86.9444 95.8852L132 73L68.2319 94.0004C67.793 93.187 67.2244 92.4232 66.5461 91.7288H66.5362ZM59.3045 92.1057C61.0301 92.1256 62.7558 92.8001 64.0624 94.1294C65.3691 95.4587 66.0075 97.1847 65.9876 98.9108C65.9676 100.627 65.2893 102.343 63.9527 103.643C62.6161 104.942 60.8805 105.577 59.1449 105.557C57.4193 105.537 55.6937 104.863 54.387 103.533C53.0803 102.204 52.4419 100.478 52.4619 98.7521C52.4818 97.026 53.1601 95.3198 54.4967 94.0203C55.8333 92.7208 57.5689 92.0859 59.3045 92.1057Z" fill="#352D25"/>
</g>
<defs>
<linearGradient id="paint0_linear_91_34400" x1="66" y1="7" x2="66" y2="124" gradientUnits="userSpaceOnUse">
<stop stop-color="#C08D58"/>
<stop offset="1" stop-color="#FEF1BA"/>
</linearGradient>
<clipPath id="clip0_91_34400">
<rect width="132" height="128" fill="white"/>
</clipPath>
</defs>
</svg>
